<svg xmlns="http://www.w3.org/2000/svg" xmlns:xlink="http://www.w3.org/1999/xlink" width="251pt" height="188pt" viewBox="0 0 250.5 188"><g id="graph0" class="graph" transform="scale(1 1) rotate(0) translate(4 184)"><title>sourcetree</title><polygon fill="#fff" stroke="transparent" points="-4 4 -4 -184 246.5 -184 246.5 4 -4 4"/><g id="node1" class="node"><title>mulle-container</title><polygon fill="#ff0" stroke="#000" points="188.5 -180 60.5 -180 60.5 -144 188.5 -144 188.5 -180"/><text x="124.5" y="-158.3" font-family="Times,serif" font-size="14" text-anchor="middle">mulle-container</text></g><g id="node2" class="node"><title>mulle-allocator</title><polygon fill="#d3d3d3" stroke="#000" points="123 -108 0 -108 0 -72 123 -72 123 -108"/><text x="61.5" y="-86.3" font-family="Times,serif" font-size="14" text-anchor="middle">mulle-allocator</text></g><g id="edge2" class="edge"><title>mulle-container-&gt;mulle-allocator</title><path fill="none" stroke="#000" d="M108.93,-143.7C101.3,-135.22 91.98,-124.86 83.62,-115.58"/><polygon fill="#000" stroke="#000" points="86.19 -113.2 76.89 -108.1 80.98 -117.88 86.19 -113.2"/></g><g id="node4" class="node"><title>mulle-data</title><polygon fill="#d3d3d3" stroke="#000" points="233.5 -108 141.5 -108 141.5 -72 233.5 -72 233.5 -108"/><text x="187.5" y="-86.3" font-family="Times,serif" font-size="14" text-anchor="middle">mulle-data</text></g><g id="edge3" class="edge"><title>mulle-container-&gt;mulle-data</title><path fill="none" stroke="#000" d="M140.07,-143.7C147.7,-135.22 157.02,-124.86 165.38,-115.58"/><polygon fill="#000" stroke="#000" points="168.02 -117.88 172.11 -108.1 162.81 -113.2 168.02 -117.88"/></g><g id="node3" class="node"><title>mulle-c11</title><polygon fill="#d3d3d3" stroke="#000" points="104.5 -36 18.5 -36 18.5 0 104.5 0 104.5 -36"/><text x="61.5" y="-14.3" font-family="Times,serif" font-size="14" text-anchor="middle">mulle-c11</text></g><g id="edge1" class="edge"><title>mulle-allocator-&gt;mulle-c11</title><path fill="none" stroke="#000" d="M61.5,-71.7C61.5,-63.98 61.5,-54.71 61.5,-46.11"/><polygon fill="#000" stroke="#000" points="65 -46.1 61.5 -36.1 58 -46.1 65 -46.1"/></g><g id="node5" class="node"><title>src/farmhash</title><polygon fill="#d3d3d3" stroke="#000" points="242.5 -36 132.5 -36 132.5 0 242.5 0 242.5 -36"/><text x="187.5" y="-14.3" font-family="Times,serif" font-size="14" text-anchor="middle">src/farmhash</text></g><g id="edge4" class="edge"><title>mulle-data-&gt;src/farmhash</title><path fill="none" stroke="#000" d="M187.5,-71.7C187.5,-63.98 187.5,-54.71 187.5,-46.11"/><polygon fill="#000" stroke="#000" points="191 -46.1 187.5 -36.1 184 -46.1 191 -46.1"/></g></g></svg>