<svg xmlns="http://www.w3.org/2000/svg" xmlns:xlink="http://www.w3.org/1999/xlink" width="245pt" height="245pt" viewBox="0 0 245 245"><g id="graph0" class="graph" transform="scale(1 1) rotate(0) translate(4 241)"><title>so</title><polygon fill="#fff" stroke="transparent" points="-4 4 -4 -241 241 -241 241 4 -4 4"/><g id="clust1" class="cluster"><title>cluster0</title><polygon fill="none" stroke="#fff" points="8 -64 8 -173 229 -173 229 -64 8 -64"/></g><g id="node1" class="node"><title>Array</title><polygon fill="none" stroke="#000" points="16 -72.5 16 -164.5 70 -164.5 70 -72.5 16 -72.5"/><text x="43" y="-149.3" font-family="Times,serif" font-size="14" text-anchor="middle">A</text><polyline fill="none" stroke="#000" points="16 -141.5 70 -141.5"/><text x="43" y="-126.3" font-family="Times,serif" font-size="14" text-anchor="middle">B</text><polyline fill="none" stroke="#000" points="16 -118.5 70 -118.5"/><text x="43" y="-103.3" font-family="Times,serif" font-size="14" text-anchor="middle">C</text><polyline fill="none" stroke="#000" points="16 -95.5 70 -95.5"/><text x="43" y="-80.3" font-family="Times,serif" font-size="14" text-anchor="middle">D</text></g><g id="node2" class="node"><title>notes</title><polygon fill="none" stroke="#000" points="220.5 -136.5 71.5 -136.5 71.5 -100.5 220.5 -100.5 220.5 -136.5"/><text x="146" y="-114.8" font-family="Times,serif" font-size="14" text-anchor="middle">{ a_1 | b_2 | c_3 | d_4 }</text></g><g id="node4" class="node"><title>Z</title><ellipse cx="43" cy="-18" fill="none" stroke="#000" rx="27" ry="18"/><text x="43" y="-14.3" font-family="Times,serif" font-size="14" text-anchor="middle">Z</text></g><g id="edge3" class="edge"><title>Array-&gt;Z</title><path fill="none" stroke="#000" d="M43,-72.29C43,-63.52 43,-54.59 43,-46.6"/><polygon fill="#000" stroke="#000" points="46.5 -46.41 43 -36.41 39.5 -46.41 46.5 -46.41"/></g><g id="node3" class="node"><title>X</title><ellipse cx="43" cy="-219" fill="none" stroke="#000" rx="27" ry="18"/><text x="43" y="-215.3" font-family="Times,serif" font-size="14" text-anchor="middle">X</text></g><g id="edge2" class="edge"><title>X-&gt;Array</title><path fill="none" stroke="#000" d="M43,-200.84C43,-193.48 43,-184.41 43,-175.04"/><polygon fill="#000" stroke="#000" points="46.5 -174.81 43 -164.81 39.5 -174.81 46.5 -174.81"/></g></g></svg>