<?xml version="1.0" encoding="UTF-8" standalone="no"?>
<!DOCTYPE svg PUBLIC "-//W3C//DTD SVG 1.1//EN"
 "http://www.w3.org/Graphics/SVG/1.1/DTD/svg11.dtd">
<!-- Generated by graphviz version 2.44.0 (20200408.0750)
 -->
<!-- Title: so Pages: 1 -->
<svg width="245pt" height="245pt"
 viewBox="0.00 0.00 245.00 245.00" xmlns="http://www.w3.org/2000/svg" xmlns:xlink="http://www.w3.org/1999/xlink">
<g id="graph0" class="graph" transform="scale(1 1) rotate(0) translate(4 241)">
<title>so</title>
<polygon fill="white" stroke="transparent" points="-4,4 -4,-241 241,-241 241,4 -4,4"/>
<g id="clust1" class="cluster">
<title>cluster0</title>
<polygon fill="none" stroke="white" points="8,-64 8,-173 229,-173 229,-64 8,-64"/>
</g>
<!-- Array -->
<g id="node1" class="node">
<title>Array</title>
<polygon fill="none" stroke="black" points="16,-72.5 16,-164.5 70,-164.5 70,-72.5 16,-72.5"/>
<text text-anchor="middle" x="43" y="-149.3" font-family="Times,serif" font-size="14.00">A</text>
<polyline fill="none" stroke="black" points="16,-141.5 70,-141.5 "/>
<text text-anchor="middle" x="43" y="-126.3" font-family="Times,serif" font-size="14.00">B</text>
<polyline fill="none" stroke="black" points="16,-118.5 70,-118.5 "/>
<text text-anchor="middle" x="43" y="-103.3" font-family="Times,serif" font-size="14.00">C</text>
<polyline fill="none" stroke="black" points="16,-95.5 70,-95.5 "/>
<text text-anchor="middle" x="43" y="-80.3" font-family="Times,serif" font-size="14.00">D</text>
</g>
<!-- notes -->
<g id="node2" class="node">
<title>notes</title>
<polygon fill="none" stroke="black" points="220.5,-136.5 71.5,-136.5 71.5,-100.5 220.5,-100.5 220.5,-136.5"/>
<text text-anchor="middle" x="146" y="-114.8" font-family="Times,serif" font-size="14.00">{ a_1 | b_2 | c_3 | d_4 }</text>
</g>
<!-- Z -->
<g id="node4" class="node">
<title>Z</title>
<ellipse fill="none" stroke="black" cx="43" cy="-18" rx="27" ry="18"/>
<text text-anchor="middle" x="43" y="-14.3" font-family="Times,serif" font-size="14.00">Z</text>
</g>
<!-- Array&#45;&gt;Z -->
<g id="edge3" class="edge">
<title>Array&#45;&gt;Z</title>
<path fill="none" stroke="black" d="M43,-72.29C43,-63.52 43,-54.59 43,-46.6"/>
<polygon fill="black" stroke="black" points="46.5,-46.41 43,-36.41 39.5,-46.41 46.5,-46.41"/>
</g>
<!-- X -->
<g id="node3" class="node">
<title>X</title>
<ellipse fill="none" stroke="black" cx="43" cy="-219" rx="27" ry="18"/>
<text text-anchor="middle" x="43" y="-215.3" font-family="Times,serif" font-size="14.00">X</text>
</g>
<!-- X&#45;&gt;Array -->
<g id="edge2" class="edge">
<title>X&#45;&gt;Array</title>
<path fill="none" stroke="black" d="M43,-200.84C43,-193.48 43,-184.41 43,-175.04"/>
<polygon fill="black" stroke="black" points="46.5,-174.81 43,-164.81 39.5,-174.81 46.5,-174.81"/>
</g>
</g>
</svg>
