<svg xmlns="http://www.w3.org/2000/svg" xmlns:xlink="http://www.w3.org/1999/xlink" width="988pt" height="250pt" viewBox="0 0 987.8 249.8"><g id="graph0" class="graph" transform="scale(1 1) rotate(0) translate(14.4 235.4)"><polygon fill="#fff" stroke="transparent" points="-14.4 14.4 -14.4 -235.4 973.4 -235.4 973.4 14.4 -14.4 14.4"/><g id="node1" class="node"><title>mulle__pointermap</title><polygon fill="#00f" stroke="transparent" points="11 -193 11 -214 127 -214 127 -193 11 -193"/><polygon fill="none" stroke="#000" points="11 -193 11 -214 127 -214 127 -193 11 -193"/><text x="15" y="-199.8" fill="#fff" font-family="Times,serif" font-size="14" text-anchor="start">mulle__pointermap</text><polygon fill="#000" stroke="transparent" points="11 -170 11 -191 84 -191 84 -170 11 -170"/><polygon fill="none" stroke="#000" points="11 -170 11 -191 84 -191 84 -170 11 -170"/><text x="32" y="-176.8" fill="#fff" font-family="Times,serif" font-size="14" text-anchor="start">count</text><polygon fill="none" stroke="#000" points="86 -170 86 -191 127 -191 127 -170 86 -170"/><text x="103" y="-176.8" font-family="Times,serif" font-size="14" text-anchor="start">3</text><polygon fill="#000" stroke="transparent" points="11 -147 11 -168 84 -168 84 -147 11 -147"/><polygon fill="none" stroke="#000" points="11 -147 11 -168 84 -168 84 -147 11 -147"/><text x="36.5" y="-153.8" fill="#fff" font-family="Times,serif" font-size="14" text-anchor="start">size</text><polygon fill="none" stroke="#000" points="86 -147 86 -168 127 -168 127 -147 86 -147"/><text x="103" y="-153.8" font-family="Times,serif" font-size="14" text-anchor="start">8</text><polygon fill="#000" stroke="transparent" points="11 -124 11 -145 84 -145 84 -124 11 -124"/><polygon fill="none" stroke="#000" points="11 -124 11 -145 84 -145 84 -124 11 -124"/><text x="27.5" y="-130.8" fill="#fff" font-family="Times,serif" font-size="14" text-anchor="start">storage</text><polygon fill="none" stroke="#000" points="86 -124 86 -145 127 -145 127 -124 86 -124"/><polygon fill="none" stroke="#000" points="8 -121 8 -217 130 -217 130 -121 8 -121"/></g><g id="node3" class="node"><title>k_a</title><polygon fill="#ff0" stroke="#000" points="80 -58.5 80 -94.5 134 -94.5 134 -58.5 80 -58.5"/><text x="107" y="-72.8" font-family="Times,serif" font-size="14" text-anchor="middle">0</text></g><g id="edge3" class="edge"><title>mulle__pointermap:c-&gt;k_a</title><path fill="none" stroke="#000" d="M107,-115.53C107,-112.12 107,-108.46 107,-104.81"/><ellipse cx="107" cy="-119.84" fill="#000" stroke="#000" rx="4" ry="4"/><polygon fill="#000" stroke="#000" points="107 -94.76 111.5 -104.76 107 -99.76 107 -104.76 107 -104.76 107 -104.76 107 -99.76 102.5 -104.76 107 -94.76 107 -94.76"/></g><g id="node2" class="node"><title>global</title><polygon fill="none" stroke="#000" points="139.5 -151 139.5 -187 328.5 -187 328.5 -151 139.5 -151"/><text x="169" y="-165.3" font-family="Times,serif" font-size="14" text-anchor="middle">notakey</text><polyline fill="none" stroke="#000" points="198.5 -151 198.5 -187"/><text x="263.5" y="-165.3" font-family="Times,serif" font-size="14" text-anchor="middle">mulle_not_a_pointer</text></g><g id="node19" class="node"><title>KEYS</title><text x="107" y="-14.3" font-family="Times,serif" font-size="14" text-anchor="middle">KEYS</text></g><g id="node4" class="node"><title>k_b</title><polygon fill="#d3d3d3" stroke="#000" points="135 -58.5 135 -94.5 189 -94.5 189 -58.5 135 -58.5"/><text x="162" y="-72.8" font-family="Times,serif" font-size="14" text-anchor="middle">1</text></g><g id="node5" class="node"><title>k_c</title><polygon fill="#ff0" stroke="#000" points="190 -58.5 190 -94.5 244 -94.5 244 -58.5 190 -58.5"/><text x="217" y="-72.8" font-family="Times,serif" font-size="14" text-anchor="middle">2</text></g><g id="node6" class="node"><title>k_d</title><polygon fill="#d3d3d3" stroke="#000" points="245 -58.5 245 -94.5 299 -94.5 299 -58.5 245 -58.5"/><text x="272" y="-72.8" font-family="Times,serif" font-size="14" text-anchor="middle">3</text></g><g id="node7" class="node"><title>k_e</title><polygon fill="#d3d3d3" stroke="#000" points="300 -58.5 300 -94.5 354 -94.5 354 -58.5 300 -58.5"/><text x="327" y="-72.8" font-family="Times,serif" font-size="14" text-anchor="middle">4</text></g><g id="node8" class="node"><title>k_f</title><polygon fill="#7fff00" stroke="#000" points="355 -58.5 355 -94.5 409 -94.5 409 -58.5 355 -58.5"/><text x="382" y="-72.8" font-family="Times,serif" font-size="14" text-anchor="middle">5</text></g><g id="node9" class="node"><title>k_g</title><polygon fill="#d3d3d3" stroke="#000" points="410 -58.5 410 -94.5 464 -94.5 464 -58.5 410 -58.5"/><text x="437" y="-72.8" font-family="Times,serif" font-size="14" text-anchor="middle">6</text></g><g id="node10" class="node"><title>k_h</title><polygon fill="#d3d3d3" stroke="#000" points="465 -58.5 465 -94.5 519 -94.5 519 -58.5 465 -58.5"/><text x="492" y="-72.8" font-family="Times,serif" font-size="14" text-anchor="middle">7</text></g><g id="node11" class="node"><title>v_a</title><polygon fill="#ff0" stroke="#000" points="520 -58.5 520 -94.5 574 -94.5 574 -58.5 520 -58.5"/><text x="547" y="-72.8" font-family="Times,serif" font-size="14" text-anchor="middle">0</text></g><g id="node20" class="node"><title>VALUES</title><text x="547" y="-14.3" font-family="Times,serif" font-size="14" text-anchor="middle">VALUES</text></g><g id="node12" class="node"><title>v_b</title><polygon fill="#fff" stroke="#000" points="575 -58.5 575 -94.5 629 -94.5 629 -58.5 575 -58.5"/><text x="602" y="-72.8" font-family="Times,serif" font-size="14" text-anchor="middle">1</text></g><g id="node13" class="node"><title>v_c</title><polygon fill="#ff0" stroke="#000" points="630 -58.5 630 -94.5 684 -94.5 684 -58.5 630 -58.5"/><text x="657" y="-72.8" font-family="Times,serif" font-size="14" text-anchor="middle">2</text></g><g id="node14" class="node"><title>v_d</title><polygon fill="#fff" stroke="#000" points="685 -58.5 685 -94.5 739 -94.5 739 -58.5 685 -58.5"/><text x="712" y="-72.8" font-family="Times,serif" font-size="14" text-anchor="middle">3</text></g><g id="node15" class="node"><title>v_e</title><polygon fill="#fff" stroke="#000" points="740 -58.5 740 -94.5 794 -94.5 794 -58.5 740 -58.5"/><text x="767" y="-72.8" font-family="Times,serif" font-size="14" text-anchor="middle">4</text></g><g id="node16" class="node"><title>v_f</title><polygon fill="#7fff00" stroke="#000" points="795 -58.5 795 -94.5 849 -94.5 849 -58.5 795 -58.5"/><text x="822" y="-72.8" font-family="Times,serif" font-size="14" text-anchor="middle">5</text></g><g id="node17" class="node"><title>v_g</title><polygon fill="#fff" stroke="#000" points="850 -58.5 850 -94.5 904 -94.5 904 -58.5 850 -58.5"/><text x="877" y="-72.8" font-family="Times,serif" font-size="14" text-anchor="middle">6</text></g><g id="node18" class="node"><title>v_h</title><polygon fill="#fff" stroke="#000" points="905 -58.5 905 -94.5 959 -94.5 959 -58.5 905 -58.5"/><text x="932" y="-72.8" font-family="Times,serif" font-size="14" text-anchor="middle">7</text></g></g></svg>