<svg xmlns="http://www.w3.org/2000/svg" xmlns:xlink="http://www.w3.org/1999/xlink" width="515pt" height="304pt" viewBox="0 0 515.3 304.16"><g id="graph0" class="graph" transform="scale(1 1) rotate(0) translate(14.4 289.76)"><polygon fill="#fff" stroke="transparent" points="-14.4 14.4 -14.4 -289.76 500.9 -289.76 500.9 14.4 -14.4 14.4"/><g id="node1" class="node"><title>mulle_set</title><polygon fill="#00f" stroke="transparent" points="11.5 -204 11.5 -225 80.5 -225 80.5 -204 11.5 -204"/><polygon fill="none" stroke="#000" points="11.5 -204 11.5 -225 80.5 -225 80.5 -204 11.5 -204"/><text x="19" y="-210.8" fill="#fff" font-family="Times,serif" font-size="14" text-anchor="start">mulle_set</text><polygon fill="#000" stroke="transparent" points="11.5 -181 11.5 -202 65.5 -202 65.5 -181 11.5 -181"/><polygon fill="none" stroke="#000" points="11.5 -181 11.5 -202 65.5 -202 65.5 -181 11.5 -181"/><text x="14.5" y="-187.8" fill="#fff" font-family="Times,serif" font-size="14" text-anchor="start">allocator</text><polygon fill="none" stroke="#000" points="67.5 -181 67.5 -202 80.5 -202 80.5 -181 67.5 -181"/><polygon fill="#000" stroke="transparent" points="11.5 -158 11.5 -179 65.5 -179 65.5 -158 11.5 -158"/><polygon fill="none" stroke="#000" points="11.5 -158 11.5 -179 65.5 -179 65.5 -158 11.5 -158"/><text x="15.5" y="-164.8" fill="#fff" font-family="Times,serif" font-size="14" text-anchor="start">callback</text><polygon fill="none" stroke="#000" points="67.5 -158 67.5 -179 80.5 -179 80.5 -158 67.5 -158"/><polygon fill="#000" stroke="transparent" points="11.5 -135 11.5 -156 65.5 -156 65.5 -135 11.5 -135"/><polygon fill="none" stroke="#000" points="11.5 -135 11.5 -156 65.5 -156 65.5 -135 11.5 -135"/><text x="23" y="-141.8" fill="#fff" font-family="Times,serif" font-size="14" text-anchor="start">count</text><polygon fill="none" stroke="#000" points="67.5 -135 67.5 -156 80.5 -156 80.5 -135 67.5 -135"/><text x="70.5" y="-141.8" font-family="Times,serif" font-size="14" text-anchor="start">3</text><polygon fill="#000" stroke="transparent" points="11.5 -112 11.5 -133 65.5 -133 65.5 -112 11.5 -112"/><polygon fill="none" stroke="#000" points="11.5 -112 11.5 -133 65.5 -133 65.5 -112 11.5 -112"/><text x="27.5" y="-118.8" fill="#fff" font-family="Times,serif" font-size="14" text-anchor="start">size</text><polygon fill="none" stroke="#000" points="67.5 -112 67.5 -133 80.5 -133 80.5 -112 67.5 -112"/><text x="70.5" y="-118.8" font-family="Times,serif" font-size="14" text-anchor="start">8</text><polygon fill="#000" stroke="transparent" points="11.5 -89 11.5 -110 65.5 -110 65.5 -89 11.5 -89"/><polygon fill="none" stroke="#000" points="11.5 -89 11.5 -110 65.5 -110 65.5 -89 11.5 -89"/><text x="18.5" y="-95.8" fill="#fff" font-family="Times,serif" font-size="14" text-anchor="start">storage</text><polygon fill="none" stroke="#000" points="67.5 -89 67.5 -110 80.5 -110 80.5 -89 67.5 -89"/><polygon fill="none" stroke="#000" points="8 -86 8 -228 83 -228 83 -86 8 -86"/></g><g id="node2" class="node"><title>mulle_container_callback</title><polygon fill="#00f" stroke="transparent" points="103.5 -227 103.5 -248 269.5 -248 269.5 -227 103.5 -227"/><polygon fill="none" stroke="#000" points="103.5 -227 103.5 -248 269.5 -248 269.5 -227 103.5 -227"/><text x="106.5" y="-233.8" fill="#fff" font-family="Times,serif" font-size="14" text-anchor="start">mulle_container_keycallback</text><polygon fill="none" stroke="#000" points="103.5 -204 103.5 -225 269.5 -225 269.5 -204 103.5 -204"/><text x="174" y="-210.8" font-family="Times,serif" font-size="14" text-anchor="start">hash</text><polygon fill="none" stroke="#000" points="103.5 -181 103.5 -202 269.5 -202 269.5 -181 103.5 -181"/><text x="163.5" y="-187.8" font-family="Times,serif" font-size="14" text-anchor="start">is_equal</text><polygon fill="none" stroke="#000" points="103.5 -158 103.5 -179 269.5 -179 269.5 -158 103.5 -158"/><text x="171" y="-164.8" font-family="Times,serif" font-size="14" text-anchor="start">retain</text><polygon fill="none" stroke="#000" points="103.5 -135 103.5 -156 269.5 -156 269.5 -135 103.5 -135"/><text x="167.5" y="-141.8" font-family="Times,serif" font-size="14" text-anchor="start">release</text><polygon fill="none" stroke="#000" points="103.5 -112 103.5 -133 269.5 -133 269.5 -112 103.5 -112"/><text x="163.5" y="-118.8" font-family="Times,serif" font-size="14" text-anchor="start">describe</text><polygon fill="#d3d3d3" stroke="transparent" points="103.5 -89 103.5 -110 269.5 -110 269.5 -89 103.5 -89"/><polygon fill="none" stroke="#000" points="103.5 -89 103.5 -110 269.5 -110 269.5 -89 103.5 -89"/><text x="165" y="-95.8" font-family="Times,serif" font-size="14" text-anchor="start">notakey</text><polygon fill="none" stroke="#000" points="103.5 -66 103.5 -87 269.5 -87 269.5 -66 103.5 -66"/><text x="164" y="-72.8" font-family="Times,serif" font-size="14" text-anchor="start">userinfo</text><polygon fill="none" stroke="#000" points="100.5 -63 100.5 -251 272.5 -251 272.5 -63 100.5 -63"/></g><g id="edge5" class="edge"><title>mulle_set:c-&gt;mulle_container_callback:w</title><path fill="none" stroke="#000" d="M75.09,-179.18C74.94,-195.38 76.79,-226.12 92.36,-235.33"/><polygon fill="#000" stroke="#000" points="91.94 -238.83 102.5 -238 93.72 -232.07 91.94 -238.83"/></g><g id="node3" class="node"><title>mulle_allocator</title><polygon fill="#00f" stroke="transparent" points="292.5 -181 292.5 -202 384.5 -202 384.5 -181 292.5 -181"/><polygon fill="none" stroke="#000" points="292.5 -181 292.5 -202 384.5 -202 384.5 -181 292.5 -181"/><text x="295.5" y="-187.8" fill="#fff" font-family="Times,serif" font-size="14" text-anchor="start">mulle_allocator</text><polygon fill="none" stroke="#000" points="292.5 -158 292.5 -179 384.5 -179 384.5 -158 292.5 -158"/><text x="322" y="-164.8" font-family="Times,serif" font-size="14" text-anchor="start">calloc</text><polygon fill="none" stroke="#000" points="292.5 -135 292.5 -156 384.5 -156 384.5 -135 292.5 -135"/><text x="320" y="-141.8" font-family="Times,serif" font-size="14" text-anchor="start">realloc</text><polygon fill="none" stroke="#000" points="292.5 -112 292.5 -133 384.5 -133 384.5 -112 292.5 -112"/><text x="327.5" y="-118.8" font-family="Times,serif" font-size="14" text-anchor="start">free</text><polygon fill="none" stroke="#000" points="289.5 -109 289.5 -205 387.5 -205 387.5 -109 289.5 -109"/></g><g id="edge4" class="edge"><title>mulle_set:c-&gt;mulle_allocator:w</title><path fill="none" stroke="#000" d="M73.98,-202.22C73.77,-218.77 76.1,-251.06 96,-266 112.08,-278.08 261.47,-278.78 277,-266 299.24,-247.7 269.21,-206.2 281.6,-194.89"/><polygon fill="#000" stroke="#000" points="282.88 -198.16 291.5 -192 280.92 -191.44 282.88 -198.16"/></g><g id="node4" class="node"><title>k_a</title><polygon fill="#ff0" stroke="#000" points="47.5 -.5 47.5 -36.5 101.5 -36.5 101.5 -.5 47.5 -.5"/><text x="74.5" y="-14.8" font-family="Times,serif" font-size="14" text-anchor="middle">0</text></g><g id="edge3" class="edge"><title>mulle_set:c-&gt;k_a</title><path fill="none" stroke="#000" d="M74.5,-80.82C74.5,-70.89 74.5,-58.17 74.5,-46.89"/><ellipse cx="74.5" cy="-85" fill="#000" stroke="#000" rx="4" ry="4"/><polygon fill="#000" stroke="#000" points="74.5 -36.66 79 -46.66 74.5 -41.66 74.5 -46.66 74.5 -46.66 74.5 -46.66 74.5 -41.66 70 -46.66 74.5 -36.66 74.5 -36.66"/></g><g id="node5" class="node"><title>k_b</title><polygon fill="#d3d3d3" stroke="#000" points="102.5 -.5 102.5 -36.5 156.5 -36.5 156.5 -.5 102.5 -.5"/><text x="129.5" y="-14.8" font-family="Times,serif" font-size="14" text-anchor="middle">1</text></g><g id="node6" class="node"><title>k_c</title><polygon fill="#ff0" stroke="#000" points="157.5 -.5 157.5 -36.5 211.5 -36.5 211.5 -.5 157.5 -.5"/><text x="184.5" y="-14.8" font-family="Times,serif" font-size="14" text-anchor="middle">2</text></g><g id="node7" class="node"><title>k_d</title><polygon fill="#d3d3d3" stroke="#000" points="212.5 -.5 212.5 -36.5 266.5 -36.5 266.5 -.5 212.5 -.5"/><text x="239.5" y="-14.8" font-family="Times,serif" font-size="14" text-anchor="middle">3</text></g><g id="node8" class="node"><title>k_e</title><polygon fill="#d3d3d3" stroke="#000" points="267.5 -.5 267.5 -36.5 321.5 -36.5 321.5 -.5 267.5 -.5"/><text x="294.5" y="-14.8" font-family="Times,serif" font-size="14" text-anchor="middle">4</text></g><g id="node9" class="node"><title>k_f</title><polygon fill="#7fff00" stroke="#000" points="322.5 -.5 322.5 -36.5 376.5 -36.5 376.5 -.5 322.5 -.5"/><text x="349.5" y="-14.8" font-family="Times,serif" font-size="14" text-anchor="middle">5</text></g><g id="node10" class="node"><title>k_g</title><polygon fill="#d3d3d3" stroke="#000" points="377.5 -.5 377.5 -36.5 431.5 -36.5 431.5 -.5 377.5 -.5"/><text x="404.5" y="-14.8" font-family="Times,serif" font-size="14" text-anchor="middle">6</text></g><g id="node11" class="node"><title>k_h</title><polygon fill="#d3d3d3" stroke="#000" points="432.5 -.5 432.5 -36.5 486.5 -36.5 486.5 -.5 432.5 -.5"/><text x="459.5" y="-14.8" font-family="Times,serif" font-size="14" text-anchor="middle">7</text></g></g></svg>