<?xml version="1.0" encoding="UTF-8" standalone="no"?>
<!DOCTYPE svg PUBLIC "-//W3C//DTD SVG 1.1//EN"
 "http://www.w3.org/Graphics/SVG/1.1/DTD/svg11.dtd">
<!-- Generated by graphviz version 2.43.0 (0)
 -->
<!-- Title: G Pages: 1 -->
<svg width="223pt" height="305pt"
 viewBox="0.00 0.00 223.00 305.00" xmlns="http://www.w3.org/2000/svg" xmlns:xlink="http://www.w3.org/1999/xlink">
<g id="graph0" class="graph" transform="scale(1 1) rotate(0) translate(4 301)">
<title>G</title>
<polygon fill="white" stroke="transparent" points="-4,4 -4,-301 219,-301 219,4 -4,4"/>
<!-- mulle&#45;uniquepointerarray.h -->
<g id="node1" class="node">
<title>mulle&#45;uniquepointerarray.h</title>
<polygon fill="none" stroke="black" points="207,-297 2,-297 2,-261 213,-261 213,-291 207,-297"/>
<polyline fill="none" stroke="black" points="207,-297 207,-291 "/>
<polyline fill="none" stroke="black" points="213,-291 207,-291 "/>
<text text-anchor="middle" x="107.5" y="-275.3" font-family="Times,serif" font-size="14.00">mulle&#45;uniquepointerarray.h</text>
</g>
<!-- mulle&#45;&#45;uniquepointerarray.h -->
<g id="node2" class="node">
<title>mulle&#45;&#45;uniquepointerarray.h</title>
<polygon fill="none" stroke="black" points="209,-210 0,-210 0,-174 215,-174 215,-204 209,-210"/>
<polyline fill="none" stroke="black" points="209,-210 209,-204 "/>
<polyline fill="none" stroke="black" points="215,-204 209,-204 "/>
<text text-anchor="middle" x="107.5" y="-188.3" font-family="Times,serif" font-size="14.00">mulle&#45;&#45;uniquepointerarray.h</text>
</g>
<!-- mulle&#45;uniquepointerarray.h&#45;&gt;mulle&#45;&#45;uniquepointerarray.h -->
<g id="edge1" class="edge">
<title>mulle&#45;uniquepointerarray.h&#45;&gt;mulle&#45;&#45;uniquepointerarray.h</title>
<path fill="none" stroke="black" d="M107.5,-260.8C107.5,-249.16 107.5,-233.55 107.5,-220.24"/>
<polygon fill="black" stroke="black" points="111,-220.18 107.5,-210.18 104,-220.18 111,-220.18"/>
<text text-anchor="middle" x="142" y="-231.8" font-family="Times,serif" font-size="14.00"> #include</text>
</g>
<!-- mulle&#45;&#45;pointerarray.h -->
<g id="node3" class="node">
<title>mulle&#45;&#45;pointerarray.h</title>
<polygon fill="none" stroke="black" points="185,-123 24,-123 24,-87 191,-87 191,-117 185,-123"/>
<polyline fill="none" stroke="black" points="185,-123 185,-117 "/>
<polyline fill="none" stroke="black" points="191,-117 185,-117 "/>
<text text-anchor="middle" x="107.5" y="-101.3" font-family="Times,serif" font-size="14.00">mulle&#45;&#45;pointerarray.h</text>
</g>
<!-- mulle&#45;&#45;uniquepointerarray.h&#45;&gt;mulle&#45;&#45;pointerarray.h -->
<g id="edge2" class="edge">
<title>mulle&#45;&#45;uniquepointerarray.h&#45;&gt;mulle&#45;&#45;pointerarray.h</title>
<path fill="none" stroke="black" d="M107.5,-173.8C107.5,-162.16 107.5,-146.55 107.5,-133.24"/>
<polygon fill="black" stroke="black" points="111,-133.18 107.5,-123.18 104,-133.18 111,-133.18"/>
<text text-anchor="middle" x="142" y="-144.8" font-family="Times,serif" font-size="14.00"> #include</text>
</g>
<!-- mulle&#45;container&#45;operation.h -->
<g id="node4" class="node">
<title>mulle&#45;container&#45;operation.h</title>
<polygon fill="none" stroke="black" points="209,-36 0,-36 0,0 215,0 215,-30 209,-36"/>
<polyline fill="none" stroke="black" points="209,-36 209,-30 "/>
<polyline fill="none" stroke="black" points="215,-30 209,-30 "/>
<text text-anchor="middle" x="107.5" y="-14.3" font-family="Times,serif" font-size="14.00">mulle&#45;container&#45;operation.h</text>
</g>
<!-- mulle&#45;&#45;pointerarray.h&#45;&gt;mulle&#45;container&#45;operation.h -->
<g id="edge3" class="edge">
<title>mulle&#45;&#45;pointerarray.h&#45;&gt;mulle&#45;container&#45;operation.h</title>
<path fill="none" stroke="black" d="M107.5,-86.8C107.5,-75.16 107.5,-59.55 107.5,-46.24"/>
<polygon fill="black" stroke="black" points="111,-46.18 107.5,-36.18 104,-46.18 111,-46.18"/>
<text text-anchor="middle" x="142" y="-57.8" font-family="Times,serif" font-size="14.00"> #include</text>
</g>
</g>
</svg>
