<svg xmlns="http://www.w3.org/2000/svg" xmlns:xlink="http://www.w3.org/1999/xlink" width="956pt" height="454pt" viewBox="0 0 956.3 453.8"><g id="graph0" class="graph" transform="scale(1 1) rotate(0) translate(14.4 439.4)"><polygon fill="#fff" stroke="transparent" points="-14.4 14.4 -14.4 -439.4 941.9 -439.4 941.9 14.4 -14.4 14.4"/><g id="node1" class="node"><title>mulle_map</title><polygon fill="#00f" stroke="transparent" points="11.5 -308 11.5 -329 82.5 -329 82.5 -308 11.5 -308"/><polygon fill="none" stroke="#000" points="11.5 -308 11.5 -329 82.5 -329 82.5 -308 11.5 -308"/><text x="15.5" y="-314.8" fill="#fff" font-family="Times,serif" font-size="14" text-anchor="start">mulle_map</text><polygon fill="#000" stroke="transparent" points="11.5 -285 11.5 -306 66.5 -306 66.5 -285 11.5 -285"/><polygon fill="none" stroke="#000" points="11.5 -285 11.5 -306 66.5 -306 66.5 -285 11.5 -285"/><text x="15" y="-291.8" fill="#fff" font-family="Times,serif" font-size="14" text-anchor="start">allocator</text><polygon fill="none" stroke="#000" points="68.5 -285 68.5 -306 82.5 -306 82.5 -285 68.5 -285"/><polygon fill="#000" stroke="transparent" points="11.5 -262 11.5 -283 66.5 -283 66.5 -262 11.5 -262"/><polygon fill="none" stroke="#000" points="11.5 -262 11.5 -283 66.5 -283 66.5 -262 11.5 -262"/><text x="16" y="-268.8" fill="#fff" font-family="Times,serif" font-size="14" text-anchor="start">callback</text><polygon fill="none" stroke="#000" points="68.5 -262 68.5 -283 82.5 -283 82.5 -262 68.5 -262"/><polygon fill="#000" stroke="transparent" points="11.5 -239 11.5 -260 66.5 -260 66.5 -239 11.5 -239"/><polygon fill="none" stroke="#000" points="11.5 -239 11.5 -260 66.5 -260 66.5 -239 11.5 -239"/><text x="23.5" y="-245.8" fill="#fff" font-family="Times,serif" font-size="14" text-anchor="start">count</text><polygon fill="none" stroke="#000" points="68.5 -239 68.5 -260 82.5 -260 82.5 -239 68.5 -239"/><text x="72" y="-245.8" font-family="Times,serif" font-size="14" text-anchor="start">3</text><polygon fill="#000" stroke="transparent" points="11.5 -216 11.5 -237 66.5 -237 66.5 -216 11.5 -216"/><polygon fill="none" stroke="#000" points="11.5 -216 11.5 -237 66.5 -237 66.5 -216 11.5 -216"/><text x="28" y="-222.8" fill="#fff" font-family="Times,serif" font-size="14" text-anchor="start">size</text><polygon fill="none" stroke="#000" points="68.5 -216 68.5 -237 82.5 -237 82.5 -216 68.5 -216"/><text x="72" y="-222.8" font-family="Times,serif" font-size="14" text-anchor="start">8</text><polygon fill="#000" stroke="transparent" points="11.5 -193 11.5 -214 66.5 -214 66.5 -193 11.5 -193"/><polygon fill="none" stroke="#000" points="11.5 -193 11.5 -214 66.5 -214 66.5 -193 11.5 -193"/><text x="19" y="-199.8" fill="#fff" font-family="Times,serif" font-size="14" text-anchor="start">storage</text><polygon fill="none" stroke="#000" points="68.5 -193 68.5 -214 82.5 -214 82.5 -193 68.5 -193"/><polygon fill="none" stroke="#000" points="8 -190 8 -332 85 -332 85 -190 8 -190"/></g><g id="node2" class="node"><title>mulle_container_callback</title><polygon fill="#00f" stroke="transparent" points="105.5 -377 105.5 -398 254.5 -398 254.5 -377 105.5 -377"/><polygon fill="none" stroke="#000" points="105.5 -377 105.5 -398 254.5 -398 254.5 -377 105.5 -377"/><text x="109.5" y="-383.8" fill="#fff" font-family="Times,serif" font-size="14" text-anchor="start">mulle_container_callback</text><polygon fill="none" stroke="#000" points="105.5 -354 105.5 -375 195.5 -375 195.5 -354 105.5 -354"/><text x="116" y="-360.8" font-family="Times,serif" font-size="14" text-anchor="start">keycallback.</text><polygon fill="none" stroke="#000" points="197.5 -354 197.5 -375 254.5 -375 254.5 -354 197.5 -354"/><text x="213.5" y="-360.8" font-family="Times,serif" font-size="14" text-anchor="start">hash</text><polygon fill="none" stroke="#000" points="105.5 -331 105.5 -352 195.5 -352 195.5 -331 105.5 -331"/><text x="116" y="-337.8" font-family="Times,serif" font-size="14" text-anchor="start">keycallback.</text><polygon fill="none" stroke="#000" points="197.5 -331 197.5 -352 254.5 -352 254.5 -331 197.5 -331"/><text x="203" y="-337.8" font-family="Times,serif" font-size="14" text-anchor="start">is_equal</text><polygon fill="none" stroke="#000" points="105.5 -308 105.5 -329 195.5 -329 195.5 -308 105.5 -308"/><text x="116" y="-314.8" font-family="Times,serif" font-size="14" text-anchor="start">keycallback.</text><polygon fill="none" stroke="#000" points="197.5 -308 197.5 -329 254.5 -329 254.5 -308 197.5 -308"/><text x="210.5" y="-314.8" font-family="Times,serif" font-size="14" text-anchor="start">retain</text><polygon fill="none" stroke="#000" points="105.5 -285 105.5 -306 195.5 -306 195.5 -285 105.5 -285"/><text x="116" y="-291.8" font-family="Times,serif" font-size="14" text-anchor="start">keycallback.</text><polygon fill="none" stroke="#000" points="197.5 -285 197.5 -306 254.5 -306 254.5 -285 197.5 -285"/><text x="207" y="-291.8" font-family="Times,serif" font-size="14" text-anchor="start">release</text><polygon fill="none" stroke="#000" points="105.5 -262 105.5 -283 195.5 -283 195.5 -262 105.5 -262"/><text x="116" y="-268.8" font-family="Times,serif" font-size="14" text-anchor="start">keycallback.</text><polygon fill="none" stroke="#000" points="197.5 -262 197.5 -283 254.5 -283 254.5 -262 197.5 -262"/><text x="203" y="-268.8" font-family="Times,serif" font-size="14" text-anchor="start">describe</text><polygon fill="none" stroke="#000" points="105.5 -239 105.5 -260 195.5 -260 195.5 -239 105.5 -239"/><text x="116" y="-245.8" font-family="Times,serif" font-size="14" text-anchor="start">keycallback.</text><polygon fill="#d3d3d3" stroke="transparent" points="197.5 -239 197.5 -260 254.5 -260 254.5 -239 197.5 -239"/><polygon fill="none" stroke="#000" points="197.5 -239 197.5 -260 254.5 -260 254.5 -239 197.5 -239"/><text x="204.5" y="-245.8" font-family="Times,serif" font-size="14" text-anchor="start">notakey</text><polygon fill="none" stroke="#000" points="105.5 -216 105.5 -237 195.5 -237 195.5 -216 105.5 -216"/><text x="116" y="-222.8" font-family="Times,serif" font-size="14" text-anchor="start">keycallback.</text><polygon fill="none" stroke="#000" points="197.5 -216 197.5 -237 254.5 -237 254.5 -216 197.5 -216"/><text x="203.5" y="-222.8" font-family="Times,serif" font-size="14" text-anchor="start">userinfo</text><polygon fill="none" stroke="#000" points="105.5 -193 105.5 -214 195.5 -214 195.5 -193 105.5 -193"/><text x="111" y="-199.8" font-family="Times,serif" font-size="14" text-anchor="start">valuecallback.</text><polygon fill="none" stroke="#000" points="197.5 -193 197.5 -214 254.5 -214 254.5 -193 197.5 -193"/><text x="210.5" y="-199.8" font-family="Times,serif" font-size="14" text-anchor="start">retain</text><polygon fill="none" stroke="#000" points="105.5 -170 105.5 -191 195.5 -191 195.5 -170 105.5 -170"/><text x="111" y="-176.8" font-family="Times,serif" font-size="14" text-anchor="start">valuecallback.</text><polygon fill="none" stroke="#000" points="197.5 -170 197.5 -191 254.5 -191 254.5 -170 197.5 -170"/><text x="207" y="-176.8" font-family="Times,serif" font-size="14" text-anchor="start">release</text><polygon fill="none" stroke="#000" points="105.5 -147 105.5 -168 195.5 -168 195.5 -147 105.5 -147"/><text x="111" y="-153.8" font-family="Times,serif" font-size="14" text-anchor="start">valuecallback.</text><polygon fill="none" stroke="#000" points="197.5 -147 197.5 -168 254.5 -168 254.5 -147 197.5 -147"/><text x="203" y="-153.8" font-family="Times,serif" font-size="14" text-anchor="start">describe</text><polygon fill="none" stroke="#000" points="105.5 -124 105.5 -145 195.5 -145 195.5 -124 105.5 -124"/><text x="111" y="-130.8" font-family="Times,serif" font-size="14" text-anchor="start">valuecallback.</text><polygon fill="none" stroke="#000" points="197.5 -124 197.5 -145 254.5 -145 254.5 -124 197.5 -124"/><text x="203.5" y="-130.8" font-family="Times,serif" font-size="14" text-anchor="start">userinfo</text><polygon fill="none" stroke="#000" points="102 -121 102 -401 257 -401 257 -121 102 -121"/></g><g id="edge7" class="edge"><title>mulle_map:c-&gt;mulle_container_callback:w</title><path fill="none" stroke="#000" d="M76.81,-283.21C77.77,-306.95 81.54,-365.23 95.59,-382.86"/><polygon fill="#000" stroke="#000" points="94.09 -386.04 104.5 -388 97.58 -379.97 94.09 -386.04"/></g><g id="node3" class="node"><title>mulle_allocator</title><polygon fill="#00f" stroke="transparent" points="277.5 -285 277.5 -306 369.5 -306 369.5 -285 277.5 -285"/><polygon fill="none" stroke="#000" points="277.5 -285 277.5 -306 369.5 -306 369.5 -285 277.5 -285"/><text x="280.5" y="-291.8" fill="#fff" font-family="Times,serif" font-size="14" text-anchor="start">mulle_allocator</text><polygon fill="none" stroke="#000" points="277.5 -262 277.5 -283 369.5 -283 369.5 -262 277.5 -262"/><text x="307" y="-268.8" font-family="Times,serif" font-size="14" text-anchor="start">calloc</text><polygon fill="none" stroke="#000" points="277.5 -239 277.5 -260 369.5 -260 369.5 -239 277.5 -239"/><text x="305" y="-245.8" font-family="Times,serif" font-size="14" text-anchor="start">realloc</text><polygon fill="none" stroke="#000" points="277.5 -216 277.5 -237 369.5 -237 369.5 -216 277.5 -216"/><text x="312.5" y="-222.8" font-family="Times,serif" font-size="14" text-anchor="start">free</text><polygon fill="none" stroke="#000" points="274.5 -213 274.5 -309 372.5 -309 372.5 -213 274.5 -213"/></g><g id="edge6" class="edge"><title>mulle_map:c-&gt;mulle_allocator:w</title><path fill="none" stroke="#000" d="M73.59,-306.1C69.78,-329.71 64.21,-388.56 97,-416 111.06,-427.77 248.28,-428.16 262,-416 279.2,-400.76 257.92,-323.77 268.23,-301.84"/><polygon fill="#000" stroke="#000" points="270.35 -304.63 276.5 -296 266.31 -298.91 270.35 -304.63"/></g><g id="node4" class="node"><title>k_a</title><polygon fill="#ff0" stroke="#000" points="48.5 -58.5 48.5 -94.5 102.5 -94.5 102.5 -58.5 48.5 -58.5"/><text x="75.5" y="-72.8" font-family="Times,serif" font-size="14" text-anchor="middle">0</text></g><g id="edge5" class="edge"><title>mulle_map:c-&gt;k_a</title><path fill="none" stroke="#000" d="M75.5,-184.51C75.5,-163.79 75.5,-129.03 75.5,-104.76"/><ellipse cx="75.5" cy="-188.64" fill="#000" stroke="#000" rx="4" ry="4"/><polygon fill="#000" stroke="#000" points="75.5 -94.76 80 -104.76 75.5 -99.76 75.5 -104.76 75.5 -104.76 75.5 -104.76 75.5 -99.76 71 -104.76 75.5 -94.76 75.5 -94.76"/></g><g id="node20" class="node"><title>KEYS</title><text x="75.5" y="-14.3" font-family="Times,serif" font-size="14" text-anchor="middle">KEYS</text></g><g id="node5" class="node"><title>k_b</title><polygon fill="#d3d3d3" stroke="#000" points="103.5 -58.5 103.5 -94.5 157.5 -94.5 157.5 -58.5 103.5 -58.5"/><text x="130.5" y="-72.8" font-family="Times,serif" font-size="14" text-anchor="middle">1</text></g><g id="node6" class="node"><title>k_c</title><polygon fill="#ff0" stroke="#000" points="158.5 -58.5 158.5 -94.5 212.5 -94.5 212.5 -58.5 158.5 -58.5"/><text x="185.5" y="-72.8" font-family="Times,serif" font-size="14" text-anchor="middle">2</text></g><g id="node7" class="node"><title>k_d</title><polygon fill="#d3d3d3" stroke="#000" points="213.5 -58.5 213.5 -94.5 267.5 -94.5 267.5 -58.5 213.5 -58.5"/><text x="240.5" y="-72.8" font-family="Times,serif" font-size="14" text-anchor="middle">3</text></g><g id="node8" class="node"><title>k_e</title><polygon fill="#d3d3d3" stroke="#000" points="268.5 -58.5 268.5 -94.5 322.5 -94.5 322.5 -58.5 268.5 -58.5"/><text x="295.5" y="-72.8" font-family="Times,serif" font-size="14" text-anchor="middle">4</text></g><g id="node9" class="node"><title>k_f</title><polygon fill="#7fff00" stroke="#000" points="323.5 -58.5 323.5 -94.5 377.5 -94.5 377.5 -58.5 323.5 -58.5"/><text x="350.5" y="-72.8" font-family="Times,serif" font-size="14" text-anchor="middle">5</text></g><g id="node10" class="node"><title>k_g</title><polygon fill="#d3d3d3" stroke="#000" points="378.5 -58.5 378.5 -94.5 432.5 -94.5 432.5 -58.5 378.5 -58.5"/><text x="405.5" y="-72.8" font-family="Times,serif" font-size="14" text-anchor="middle">6</text></g><g id="node11" class="node"><title>k_h</title><polygon fill="#d3d3d3" stroke="#000" points="433.5 -58.5 433.5 -94.5 487.5 -94.5 487.5 -58.5 433.5 -58.5"/><text x="460.5" y="-72.8" font-family="Times,serif" font-size="14" text-anchor="middle">7</text></g><g id="node12" class="node"><title>v_a</title><polygon fill="#ff0" stroke="#000" points="488.5 -58.5 488.5 -94.5 542.5 -94.5 542.5 -58.5 488.5 -58.5"/><text x="515.5" y="-72.8" font-family="Times,serif" font-size="14" text-anchor="middle">0</text></g><g id="node21" class="node"><title>VALUES</title><text x="515.5" y="-14.3" font-family="Times,serif" font-size="14" text-anchor="middle">VALUES</text></g><g id="node13" class="node"><title>v_b</title><polygon fill="#fff" stroke="#000" points="543.5 -58.5 543.5 -94.5 597.5 -94.5 597.5 -58.5 543.5 -58.5"/><text x="570.5" y="-72.8" font-family="Times,serif" font-size="14" text-anchor="middle">1</text></g><g id="node14" class="node"><title>v_c</title><polygon fill="#ff0" stroke="#000" points="598.5 -58.5 598.5 -94.5 652.5 -94.5 652.5 -58.5 598.5 -58.5"/><text x="625.5" y="-72.8" font-family="Times,serif" font-size="14" text-anchor="middle">2</text></g><g id="node15" class="node"><title>v_d</title><polygon fill="#fff" stroke="#000" points="653.5 -58.5 653.5 -94.5 707.5 -94.5 707.5 -58.5 653.5 -58.5"/><text x="680.5" y="-72.8" font-family="Times,serif" font-size="14" text-anchor="middle">3</text></g><g id="node16" class="node"><title>v_e</title><polygon fill="#fff" stroke="#000" points="708.5 -58.5 708.5 -94.5 762.5 -94.5 762.5 -58.5 708.5 -58.5"/><text x="735.5" y="-72.8" font-family="Times,serif" font-size="14" text-anchor="middle">4</text></g><g id="node17" class="node"><title>v_f</title><polygon fill="#7fff00" stroke="#000" points="763.5 -58.5 763.5 -94.5 817.5 -94.5 817.5 -58.5 763.5 -58.5"/><text x="790.5" y="-72.8" font-family="Times,serif" font-size="14" text-anchor="middle">5</text></g><g id="node18" class="node"><title>v_g</title><polygon fill="#fff" stroke="#000" points="818.5 -58.5 818.5 -94.5 872.5 -94.5 872.5 -58.5 818.5 -58.5"/><text x="845.5" y="-72.8" font-family="Times,serif" font-size="14" text-anchor="middle">6</text></g><g id="node19" class="node"><title>v_h</title><polygon fill="#fff" stroke="#000" points="873.5 -58.5 873.5 -94.5 927.5 -94.5 927.5 -58.5 873.5 -58.5"/><text x="900.5" y="-72.8" font-family="Times,serif" font-size="14" text-anchor="middle">7</text></g></g></svg>