<?xml version="1.0" encoding="UTF-8" standalone="no"?>
<!DOCTYPE svg PUBLIC "-//W3C//DTD SVG 1.1//EN"
 "http://www.w3.org/Graphics/SVG/1.1/DTD/svg11.dtd">
<!-- Generated by graphviz version 2.44.0 (20200408.0750)
 -->
<!-- Pages: 1 -->
<svg width="551pt" height="192pt"
 viewBox="0.00 0.00 550.80 191.80" xmlns="http://www.w3.org/2000/svg" xmlns:xlink="http://www.w3.org/1999/xlink">
<g id="graph0" class="graph" transform="scale(1 1) rotate(0) translate(14.4 177.4)">
<polygon fill="white" stroke="transparent" points="-14.4,14.4 -14.4,-177.4 536.4,-177.4 536.4,14.4 -14.4,14.4"/>
<!-- mulle__pointerarray -->
<g id="node1" class="node">
<title>mulle__pointerarray</title>
<polygon fill="blue" stroke="transparent" points="11,-135 11,-156 131,-156 131,-135 11,-135"/>
<polygon fill="none" stroke="black" points="11,-135 11,-156 131,-156 131,-135 11,-135"/>
<text text-anchor="start" x="15" y="-141.8" font-family="Times,serif" font-size="14.00" fill="white">mulle__pointerarray</text>
<polygon fill="black" stroke="transparent" points="11,-112 11,-133 86,-133 86,-112 11,-112"/>
<polygon fill="none" stroke="black" points="11,-112 11,-133 86,-133 86,-112 11,-112"/>
<text text-anchor="start" x="36" y="-118.8" font-family="Times,serif" font-size="14.00" fill="white">used</text>
<polygon fill="none" stroke="black" points="88,-112 88,-133 131,-133 131,-112 88,-112"/>
<text text-anchor="start" x="106" y="-118.8" font-family="Times,serif" font-size="14.00">5</text>
<polygon fill="black" stroke="transparent" points="11,-89 11,-110 86,-110 86,-89 11,-89"/>
<polygon fill="none" stroke="black" points="11,-89 11,-110 86,-110 86,-89 11,-89"/>
<text text-anchor="start" x="37.5" y="-95.8" font-family="Times,serif" font-size="14.00" fill="white">size</text>
<polygon fill="none" stroke="black" points="88,-89 88,-110 131,-110 131,-89 88,-89"/>
<text text-anchor="start" x="106" y="-95.8" font-family="Times,serif" font-size="14.00">8</text>
<polygon fill="black" stroke="transparent" points="11,-66 11,-87 86,-87 86,-66 11,-66"/>
<polygon fill="none" stroke="black" points="11,-66 11,-87 86,-87 86,-66 11,-66"/>
<text text-anchor="start" x="28.5" y="-72.8" font-family="Times,serif" font-size="14.00" fill="white">storage</text>
<polygon fill="none" stroke="black" points="88,-66 88,-87 131,-87 131,-66 88,-66"/>
<polygon fill="none" stroke="black" points="8,-63 8,-159 134,-159 134,-63 8,-63"/>
</g>
<!-- a -->
<g id="node2" class="node">
<title>a</title>
<polygon fill="yellow" stroke="black" points="83,-0.5 83,-36.5 137,-36.5 137,-0.5 83,-0.5"/>
<text text-anchor="middle" x="110" y="-14.8" font-family="Times,serif" font-size="14.00">0</text>
</g>
<!-- mulle__pointerarray&#45;&gt;a -->
<g id="edge1" class="edge">
<title>mulle__pointerarray:c&#45;&gt;a</title>
<path fill="none" stroke="black" d="M110,-57.53C110,-54.12 110,-50.46 110,-46.81"/>
<ellipse fill="black" stroke="black" cx="110" cy="-61.84" rx="4" ry="4"/>
<polygon fill="black" stroke="black" points="110,-36.76 114.5,-46.76 110,-41.76 110,-46.76 110,-46.76 110,-46.76 110,-41.76 105.5,-46.76 110,-36.76 110,-36.76"/>
</g>
<!-- b -->
<g id="node3" class="node">
<title>b</title>
<polygon fill="yellow" stroke="black" points="138,-0.5 138,-36.5 192,-36.5 192,-0.5 138,-0.5"/>
<text text-anchor="middle" x="165" y="-14.8" font-family="Times,serif" font-size="14.00">1</text>
</g>
<!-- c -->
<g id="node4" class="node">
<title>c</title>
<polygon fill="yellow" stroke="black" points="193,-0.5 193,-36.5 247,-36.5 247,-0.5 193,-0.5"/>
<text text-anchor="middle" x="220" y="-14.8" font-family="Times,serif" font-size="14.00">2</text>
</g>
<!-- d -->
<g id="node5" class="node">
<title>d</title>
<polygon fill="yellow" stroke="black" points="248,-0.5 248,-36.5 302,-36.5 302,-0.5 248,-0.5"/>
<text text-anchor="middle" x="275" y="-14.8" font-family="Times,serif" font-size="14.00">3</text>
</g>
<!-- e -->
<g id="node6" class="node">
<title>e</title>
<polygon fill="chartreuse" stroke="black" points="303,-0.5 303,-36.5 357,-36.5 357,-0.5 303,-0.5"/>
<text text-anchor="middle" x="330" y="-14.8" font-family="Times,serif" font-size="14.00">4</text>
</g>
<!-- f -->
<g id="node7" class="node">
<title>f</title>
<polygon fill="white" stroke="black" points="358,-0.5 358,-36.5 412,-36.5 412,-0.5 358,-0.5"/>
<text text-anchor="middle" x="385" y="-14.8" font-family="Times,serif" font-size="14.00">5</text>
</g>
<!-- g -->
<g id="node8" class="node">
<title>g</title>
<polygon fill="white" stroke="black" points="413,-0.5 413,-36.5 467,-36.5 467,-0.5 413,-0.5"/>
<text text-anchor="middle" x="440" y="-14.8" font-family="Times,serif" font-size="14.00">6</text>
</g>
<!-- h -->
<g id="node9" class="node">
<title>h</title>
<polygon fill="white" stroke="black" points="468,-0.5 468,-36.5 522,-36.5 522,-0.5 468,-0.5"/>
<text text-anchor="middle" x="495" y="-14.8" font-family="Times,serif" font-size="14.00">7</text>
</g>
</g>
</svg>
