<svg xmlns="http://www.w3.org/2000/svg" xmlns:xlink="http://www.w3.org/1999/xlink" width="688" height="228" viewBox="0 0 516 171"><g id="graph0" class="graph" transform="scale(1 1) rotate(0) translate(4 167)"><title>G</title><polygon fill="#fff" stroke="transparent" points="-4 4 -4 -167 512 -167 512 4 -4 4"/><g id="node1" class="node"><title>mulle__pointerqueue</title><polygon fill="#00f" stroke="transparent" points="11 -135 11 -156 135 -156 135 -135 11 -135"/><polygon fill="none" stroke="#000" points="11 -135 11 -156 135 -156 135 -135 11 -135"/><text x="15" y="-141.8" fill="#fff" font-family="Times,serif" font-size="14" text-anchor="start">mulle__pointerqueue</text><polygon fill="#000" stroke="transparent" points="11 -112 11 -133 101 -133 101 -112 11 -112"/><polygon fill="none" stroke="#000" points="11 -112 11 -133 101 -133 101 -112 11 -112"/><text x="40.5" y="-118.8" fill="#fff" font-family="Times,serif" font-size="14" text-anchor="start">count</text><polygon fill="none" stroke="#000" points="103 -112 103 -133 135 -133 135 -112 103 -112"/><text x="112" y="-118.8" font-family="Times,serif" font-size="14" text-anchor="start">10</text><polygon fill="#000" stroke="transparent" points="11 -89 11 -110 101 -110 101 -89 11 -89"/><polygon fill="none" stroke="#000" points="11 -89 11 -110 101 -110 101 -89 11 -89"/><text x="22.5" y="-95.8" fill="#fff" font-family="Times,serif" font-size="14" text-anchor="start">_read_index</text><polygon fill="none" stroke="#000" points="103 -89 103 -110 135 -110 135 -89 103 -89"/><text x="115.5" y="-95.8" font-family="Times,serif" font-size="14" text-anchor="start">1</text><polygon fill="#000" stroke="transparent" points="11 -66 11 -87 101 -87 101 -66 11 -66"/><polygon fill="none" stroke="#000" points="11 -66 11 -87 101 -87 101 -66 11 -66"/><text x="20" y="-72.8" fill="#fff" font-family="Times,serif" font-size="14" text-anchor="start">_write_index</text><polygon fill="none" stroke="#000" points="103 -66 103 -87 135 -87 135 -66 103 -66"/><text x="115.5" y="-72.8" font-family="Times,serif" font-size="14" text-anchor="start">2</text><polygon fill="#000" stroke="transparent" points="11 -43 11 -64 101 -64 101 -43 11 -43"/><polygon fill="none" stroke="#000" points="11 -43 11 -64 101 -64 101 -43 11 -43"/><text x="40.5" y="-49.8" fill="#fff" font-family="Times,serif" font-size="14" text-anchor="start">_read</text><polygon fill="none" stroke="#000" points="103 -43 103 -64 135 -64 135 -43 103 -43"/><polygon fill="#000" stroke="transparent" points="11 -20 11 -41 101 -41 101 -20 11 -20"/><polygon fill="none" stroke="#000" points="11 -20 11 -41 101 -41 101 -20 11 -20"/><text x="38.5" y="-26.8" fill="#fff" font-family="Times,serif" font-size="14" text-anchor="start">_write</text><polygon fill="none" stroke="#000" points="103 -20 103 -41 135 -41 135 -20 103 -20"/><polygon fill="none" stroke="#000" points="8 -17 8 -159 138 -159 138 -17 8 -17"/></g><g id="node2" class="node"><title>bucket_0</title><polygon fill="#000" stroke="transparent" points="193 -65 193 -86 236 -86 236 -65 193 -65"/><polygon fill="none" stroke="#000" points="193 -65 193 -86 236 -86 236 -65 193 -65"/><text x="199" y="-71.8" fill="#fff" font-family="Times,serif" font-size="14" text-anchor="start">_next</text><polygon fill="none" stroke="#000" points="238 -65 238 -86 251 -86 251 -65 238 -65"/><polygon fill="#ff0" stroke="transparent" points="193 -42 193 -63 206 -63 206 -42 193 -42"/><polygon fill="none" stroke="#000" points="193 -42 193 -63 206 -63 206 -42 193 -42"/><text x="196" y="-48.8" font-family="Times,serif" font-size="14" text-anchor="start">0</text><polygon fill="#7fff00" stroke="transparent" points="208 -42 208 -63 221 -63 221 -42 208 -42"/><polygon fill="none" stroke="#000" points="208 -42 208 -63 221 -63 221 -42 208 -42"/><text x="211" y="-48.8" font-family="Times,serif" font-size="14" text-anchor="start">1</text><polygon fill="#7fff00" stroke="transparent" points="223 -42 223 -63 236 -63 236 -42 223 -42"/><polygon fill="none" stroke="#000" points="223 -42 223 -63 236 -63 236 -42 223 -42"/><text x="226" y="-48.8" font-family="Times,serif" font-size="14" text-anchor="start">2</text><polygon fill="#7fff00" stroke="transparent" points="238 -42 238 -63 251 -63 251 -42 238 -42"/><polygon fill="none" stroke="#000" points="238 -42 238 -63 251 -63 251 -42 238 -42"/><text x="241" y="-48.8" font-family="Times,serif" font-size="14" text-anchor="start">3</text><polygon fill="none" stroke="#000" points="190 -39 190 -89 254 -89 254 -39 190 -39"/></g><g id="edge1" class="edge"><title>mulle__pointerqueue:c-&gt;bucket_0:name</title><path fill="none" stroke="#000" d="M142.63,-64.18C153.81,-68.89 167.89,-73.67 181.87,-75.36"/><ellipse cx="138.66" cy="-62.41" fill="#000" stroke="#000" rx="4" ry="4"/><polygon fill="#000" stroke="#000" points="192 -76 181.74 -79.86 187.01 -75.69 182.02 -75.37 182.02 -75.37 182.02 -75.37 187.01 -75.69 182.3 -70.88 192 -76 192 -76"/></g><g id="node4" class="node"><title>bucket_2</title><polygon fill="#000" stroke="transparent" points="425 -30 425 -51 475 -51 475 -30 425 -30"/><polygon fill="none" stroke="#000" points="425 -30 425 -51 475 -51 475 -30 425 -30"/><text x="434.5" y="-36.8" fill="#fff" font-family="Times,serif" font-size="14" text-anchor="start">_next</text><polygon fill="none" stroke="#000" points="477 -30 477 -51 497 -51 497 -30 477 -30"/><polygon fill="#7fff00" stroke="transparent" points="425 -7 425 -28 438 -28 438 -7 425 -7"/><polygon fill="none" stroke="#000" points="425 -7 425 -28 438 -28 438 -7 425 -7"/><text x="428" y="-13.8" font-family="Times,serif" font-size="14" text-anchor="start">8</text><polygon fill="#7fff00" stroke="transparent" points="440 -7 440 -28 453 -28 453 -7 440 -7"/><polygon fill="none" stroke="#000" points="440 -7 440 -28 453 -28 453 -7 440 -7"/><text x="443" y="-13.8" font-family="Times,serif" font-size="14" text-anchor="start">9</text><polygon fill="#fff" stroke="transparent" points="455 -7 455 -28 475 -28 475 -7 455 -7"/><polygon fill="none" stroke="#000" points="455 -7 455 -28 475 -28 475 -7 455 -7"/><text x="458" y="-13.8" font-family="Times,serif" font-size="14" text-anchor="start">10</text><polygon fill="#fff" stroke="transparent" points="477 -7 477 -28 497 -28 497 -7 477 -7"/><polygon fill="none" stroke="#000" points="477 -7 477 -28 497 -28 497 -7 477 -7"/><text x="480" y="-13.8" font-family="Times,serif" font-size="14" text-anchor="start">11</text><polygon fill="none" stroke="#000" points="422 -4 422 -54 500 -54 500 -4 422 -4"/></g><g id="edge2" class="edge"><title>mulle__pointerqueue:c-&gt;bucket_2:name</title><path fill="none" stroke="#000" d="M143.32,-28.14C154.94,-27.3 169.2,-26.41 182,-26 269.07,-23.19 291.97,-12.33 378,-26 395.42,-28.77 400.74,-37.09 413.97,-39.99"/><ellipse cx="139.01" cy="-28.46" fill="#000" stroke="#000" rx="4" ry="4"/><polygon fill="#000" stroke="#000" points="424 -41 413.6 -44.48 419.03 -40.5 414.05 -40 414.05 -40 414.05 -40 419.03 -40.5 414.5 -35.52 424 -41 424 -41"/></g><g id="node3" class="node"><title>bucket_1</title><polygon fill="#000" stroke="transparent" points="309 -65 309 -86 352 -86 352 -65 309 -65"/><polygon fill="none" stroke="#000" points="309 -65 309 -86 352 -86 352 -65 309 -65"/><text x="315" y="-71.8" fill="#fff" font-family="Times,serif" font-size="14" text-anchor="start">_next</text><polygon fill="none" stroke="#000" points="354 -65 354 -86 367 -86 367 -65 354 -65"/><polygon fill="#7fff00" stroke="transparent" points="309 -42 309 -63 322 -63 322 -42 309 -42"/><polygon fill="none" stroke="#000" points="309 -42 309 -63 322 -63 322 -42 309 -42"/><text x="312" y="-48.8" font-family="Times,serif" font-size="14" text-anchor="start">4</text><polygon fill="#7fff00" stroke="transparent" points="324 -42 324 -63 337 -63 337 -42 324 -42"/><polygon fill="none" stroke="#000" points="324 -42 324 -63 337 -63 337 -42 324 -42"/><text x="327" y="-48.8" font-family="Times,serif" font-size="14" text-anchor="start">5</text><polygon fill="#7fff00" stroke="transparent" points="339 -42 339 -63 352 -63 352 -42 339 -42"/><polygon fill="none" stroke="#000" points="339 -42 339 -63 352 -63 352 -42 339 -42"/><text x="342" y="-48.8" font-family="Times,serif" font-size="14" text-anchor="start">6</text><polygon fill="#7fff00" stroke="transparent" points="354 -42 354 -63 367 -63 367 -42 354 -42"/><polygon fill="none" stroke="#000" points="354 -42 354 -63 367 -63 367 -42 354 -42"/><text x="357" y="-48.8" font-family="Times,serif" font-size="14" text-anchor="start">7</text><polygon fill="none" stroke="#000" points="306 -39 306 -89 370 -89 370 -39 306 -39"/></g><g id="edge3" class="edge"><title>bucket_0:name_value-&gt;bucket_1:name</title><path fill="none" stroke="#000" d="M260.04,-76C275.41,-76 283.15,-76 297.83,-76"/><ellipse cx="256" cy="-76" fill="#000" stroke="#000" rx="4" ry="4"/><polygon fill="#000" stroke="#000" points="308 -76 298 -80.5 303 -76 298 -76 298 -76 298 -76 303 -76 298 -71.5 308 -76 308 -76"/></g><g id="edge4" class="edge"><title>bucket_1:name_value-&gt;bucket_2:name</title><path fill="none" stroke="#000" d="M376.02,-74.99C394,-70.1 397.03,-48.89 413.82,-42.7"/><ellipse cx="371.97" cy="-75.5" fill="#000" stroke="#000" rx="4" ry="4"/><polygon fill="#000" stroke="#000" points="424 -41 414.88 -47.09 419.07 -41.82 414.14 -42.65 414.14 -42.65 414.14 -42.65 419.07 -41.82 413.4 -38.21 424 -41 424 -41"/></g></g></svg>