<?xml version="1.0" encoding="UTF-8" standalone="no"?>
<!DOCTYPE svg PUBLIC "-//W3C//DTD SVG 1.1//EN"
 "http://www.w3.org/Graphics/SVG/1.1/DTD/svg11.dtd">
<!-- Generated by graphviz version 2.44.0 (20200408.0750)
 -->
<!-- Pages: 1 -->
<svg width="548pt" height="215pt"
 viewBox="0.00 0.00 548.30 214.80" xmlns="http://www.w3.org/2000/svg" xmlns:xlink="http://www.w3.org/1999/xlink">
<g id="graph0" class="graph" transform="scale(1 1) rotate(0) translate(14.4 200.4)">
<polygon fill="white" stroke="transparent" points="-14.4,14.4 -14.4,-200.4 533.9,-200.4 533.9,14.4 -14.4,14.4"/>
<!-- mulle_pointerarray -->
<g id="node1" class="node">
<title>mulle_pointerarray</title>
<polygon fill="blue" stroke="transparent" points="11.5,-157.5 11.5,-178.5 124.5,-178.5 124.5,-157.5 11.5,-157.5"/>
<polygon fill="none" stroke="black" points="11.5,-157.5 11.5,-178.5 124.5,-178.5 124.5,-157.5 11.5,-157.5"/>
<text text-anchor="start" x="15.5" y="-164.3" font-family="Times,serif" font-size="14.00" fill="white">mulle_pointerarray</text>
<polygon fill="black" stroke="transparent" points="11.5,-134.5 11.5,-155.5 87.5,-155.5 87.5,-134.5 11.5,-134.5"/>
<polygon fill="none" stroke="black" points="11.5,-134.5 11.5,-155.5 87.5,-155.5 87.5,-134.5 11.5,-134.5"/>
<text text-anchor="start" x="25.5" y="-141.3" font-family="Times,serif" font-size="14.00" fill="white">allocator</text>
<polygon fill="none" stroke="black" points="89.5,-134.5 89.5,-155.5 124.5,-155.5 124.5,-134.5 89.5,-134.5"/>
<polygon fill="black" stroke="transparent" points="11.5,-111.5 11.5,-132.5 87.5,-132.5 87.5,-111.5 11.5,-111.5"/>
<polygon fill="none" stroke="black" points="11.5,-111.5 11.5,-132.5 87.5,-132.5 87.5,-111.5 11.5,-111.5"/>
<text text-anchor="start" x="34" y="-118.3" font-family="Times,serif" font-size="14.00" fill="white">count</text>
<polygon fill="none" stroke="black" points="89.5,-111.5 89.5,-132.5 124.5,-132.5 124.5,-111.5 89.5,-111.5"/>
<text text-anchor="start" x="103.5" y="-118.3" font-family="Times,serif" font-size="14.00">6</text>
<polygon fill="black" stroke="transparent" points="11.5,-88.5 11.5,-109.5 87.5,-109.5 87.5,-88.5 11.5,-88.5"/>
<polygon fill="none" stroke="black" points="11.5,-88.5 11.5,-109.5 87.5,-109.5 87.5,-88.5 11.5,-88.5"/>
<text text-anchor="start" x="38.5" y="-95.3" font-family="Times,serif" font-size="14.00" fill="white">size</text>
<polygon fill="none" stroke="black" points="89.5,-88.5 89.5,-109.5 124.5,-109.5 124.5,-88.5 89.5,-88.5"/>
<text text-anchor="start" x="103.5" y="-95.3" font-family="Times,serif" font-size="14.00">8</text>
<polygon fill="black" stroke="transparent" points="11.5,-65.5 11.5,-86.5 87.5,-86.5 87.5,-65.5 11.5,-65.5"/>
<polygon fill="none" stroke="black" points="11.5,-65.5 11.5,-86.5 87.5,-86.5 87.5,-65.5 11.5,-65.5"/>
<text text-anchor="start" x="29.5" y="-72.3" font-family="Times,serif" font-size="14.00" fill="white">storage</text>
<polygon fill="none" stroke="black" points="89.5,-65.5 89.5,-86.5 124.5,-86.5 124.5,-65.5 89.5,-65.5"/>
<polygon fill="none" stroke="black" points="8,-63 8,-182 127,-182 127,-63 8,-63"/>
</g>
<!-- mulle_allocator -->
<g id="node2" class="node">
<title>mulle_allocator</title>
<polygon fill="blue" stroke="transparent" points="147.5,-146.5 147.5,-167.5 239.5,-167.5 239.5,-146.5 147.5,-146.5"/>
<polygon fill="none" stroke="black" points="147.5,-146.5 147.5,-167.5 239.5,-167.5 239.5,-146.5 147.5,-146.5"/>
<text text-anchor="start" x="150.5" y="-153.3" font-family="Times,serif" font-size="14.00" fill="white">mulle_allocator</text>
<polygon fill="none" stroke="black" points="147.5,-123.5 147.5,-144.5 239.5,-144.5 239.5,-123.5 147.5,-123.5"/>
<text text-anchor="start" x="177" y="-130.3" font-family="Times,serif" font-size="14.00">calloc</text>
<polygon fill="none" stroke="black" points="147.5,-100.5 147.5,-121.5 239.5,-121.5 239.5,-100.5 147.5,-100.5"/>
<text text-anchor="start" x="175" y="-107.3" font-family="Times,serif" font-size="14.00">realloc</text>
<polygon fill="none" stroke="black" points="147.5,-77.5 147.5,-98.5 239.5,-98.5 239.5,-77.5 147.5,-77.5"/>
<text text-anchor="start" x="182.5" y="-84.3" font-family="Times,serif" font-size="14.00">free</text>
<polygon fill="none" stroke="black" points="144.5,-74.5 144.5,-170.5 242.5,-170.5 242.5,-74.5 144.5,-74.5"/>
</g>
<!-- mulle_pointerarray&#45;&gt;mulle_allocator -->
<!-- mulle_pointerarray&#45;&gt;mulle_allocator -->
<g id="edge3" class="edge">
<title>mulle_pointerarray:c&#45;&gt;mulle_allocator:w</title>
<path fill="none" stroke="black" d="M124.8,-153.03C128.4,-154.35 132.36,-155.56 136.41,-156.39"/>
<polygon fill="black" stroke="black" points="136.18,-159.89 146.5,-157.5 136.94,-152.93 136.18,-159.89"/>
</g>
<!-- a -->
<g id="node3" class="node">
<title>a</title>
<polygon fill="yellow" stroke="black" points="80.5,-0.5 80.5,-36.5 134.5,-36.5 134.5,-0.5 80.5,-0.5"/>
<text text-anchor="middle" x="107.5" y="-14.8" font-family="Times,serif" font-size="14.00">0</text>
</g>
<!-- mulle_pointerarray&#45;&gt;a -->
<g id="edge2" class="edge">
<title>mulle_pointerarray:c&#45;&gt;a</title>
<path fill="none" stroke="black" d="M107.5,-57.19C107.5,-53.91 107.5,-50.4 107.5,-46.89"/>
<ellipse fill="black" stroke="black" cx="107.5" cy="-61.42" rx="4" ry="4"/>
<polygon fill="black" stroke="black" points="107.5,-36.6 112,-46.6 107.5,-41.6 107.5,-46.6 107.5,-46.6 107.5,-46.6 107.5,-41.6 103,-46.6 107.5,-36.6 107.5,-36.6"/>
</g>
<!-- b -->
<g id="node4" class="node">
<title>b</title>
<polygon fill="yellow" stroke="black" points="135.5,-0.5 135.5,-36.5 189.5,-36.5 189.5,-0.5 135.5,-0.5"/>
<text text-anchor="middle" x="162.5" y="-14.8" font-family="Times,serif" font-size="14.00">1</text>
</g>
<!-- c -->
<g id="node5" class="node">
<title>c</title>
<polygon fill="yellow" stroke="black" points="190.5,-0.5 190.5,-36.5 244.5,-36.5 244.5,-0.5 190.5,-0.5"/>
<text text-anchor="middle" x="217.5" y="-14.8" font-family="Times,serif" font-size="14.00">2</text>
</g>
<!-- d -->
<g id="node6" class="node">
<title>d</title>
<polygon fill="yellow" stroke="black" points="245.5,-0.5 245.5,-36.5 299.5,-36.5 299.5,-0.5 245.5,-0.5"/>
<text text-anchor="middle" x="272.5" y="-14.8" font-family="Times,serif" font-size="14.00">3</text>
</g>
<!-- e -->
<g id="node7" class="node">
<title>e</title>
<polygon fill="chartreuse" stroke="black" points="300.5,-0.5 300.5,-36.5 354.5,-36.5 354.5,-0.5 300.5,-0.5"/>
<text text-anchor="middle" x="327.5" y="-14.8" font-family="Times,serif" font-size="14.00">4</text>
</g>
<!-- f -->
<g id="node8" class="node">
<title>f</title>
<polygon fill="chartreuse" stroke="black" points="355.5,-0.5 355.5,-36.5 409.5,-36.5 409.5,-0.5 355.5,-0.5"/>
<text text-anchor="middle" x="382.5" y="-14.8" font-family="Times,serif" font-size="14.00">5</text>
</g>
<!-- g -->
<g id="node9" class="node">
<title>g</title>
<polygon fill="white" stroke="black" points="410.5,-0.5 410.5,-36.5 464.5,-36.5 464.5,-0.5 410.5,-0.5"/>
<text text-anchor="middle" x="437.5" y="-14.8" font-family="Times,serif" font-size="14.00">6</text>
</g>
<!-- h -->
<g id="node10" class="node">
<title>h</title>
<polygon fill="white" stroke="black" points="465.5,-0.5 465.5,-36.5 519.5,-36.5 519.5,-0.5 465.5,-0.5"/>
<text text-anchor="middle" x="492.5" y="-14.8" font-family="Times,serif" font-size="14.00">7</text>
</g>
</g>
</svg>
