<svg xmlns="http://www.w3.org/2000/svg" xmlns:xlink="http://www.w3.org/1999/xlink" width="692" height="304pt" viewBox="0 0 519.3 304.1"><g id="graph0" class="graph" transform="scale(1 1) rotate(0) translate(14.4 289.7)"><polygon fill="#fff" stroke="transparent" points="-14.4 14.4 -14.4 -289.7 504.9 -289.7 504.9 14.4 -14.4 14.4"/><g id="node1" class="node"><title>mulle_array</title><polygon fill="#00f" stroke="transparent" points="11.5 -204 11.5 -225 86.5 -225 86.5 -204 11.5 -204"/><polygon fill="none" stroke="#000" points="11.5 -204 11.5 -225 86.5 -225 86.5 -204 11.5 -204"/><text x="15.5" y="-210.8" fill="#fff" font-family="Times,serif" font-size="14" text-anchor="start">mulle_array</text><polygon fill="#000" stroke="transparent" points="11.5 -181 11.5 -202 68.5 -202 68.5 -181 11.5 -181"/><polygon fill="none" stroke="#000" points="11.5 -181 11.5 -202 68.5 -202 68.5 -181 11.5 -181"/><text x="16" y="-187.8" fill="#fff" font-family="Times,serif" font-size="14" text-anchor="start">allocator</text><polygon fill="none" stroke="#000" points="70.5 -181 70.5 -202 86.5 -202 86.5 -181 70.5 -181"/><polygon fill="#000" stroke="transparent" points="11.5 -158 11.5 -179 68.5 -179 68.5 -158 11.5 -158"/><polygon fill="none" stroke="#000" points="11.5 -158 11.5 -179 68.5 -179 68.5 -158 11.5 -158"/><text x="17" y="-164.8" fill="#fff" font-family="Times,serif" font-size="14" text-anchor="start">callback</text><polygon fill="none" stroke="#000" points="70.5 -158 70.5 -179 86.5 -179 86.5 -158 70.5 -158"/><polygon fill="#000" stroke="transparent" points="11.5 -135 11.5 -156 68.5 -156 68.5 -135 11.5 -135"/><polygon fill="none" stroke="#000" points="11.5 -135 11.5 -156 68.5 -156 68.5 -135 11.5 -135"/><text x="24.5" y="-141.8" fill="#fff" font-family="Times,serif" font-size="14" text-anchor="start">count</text><polygon fill="none" stroke="#000" points="70.5 -135 70.5 -156 86.5 -156 86.5 -135 70.5 -135"/><text x="75" y="-141.8" font-family="Times,serif" font-size="14" text-anchor="start">7</text><polygon fill="#000" stroke="transparent" points="11.5 -112 11.5 -133 68.5 -133 68.5 -112 11.5 -112"/><polygon fill="none" stroke="#000" points="11.5 -112 11.5 -133 68.5 -133 68.5 -112 11.5 -112"/><text x="29" y="-118.8" fill="#fff" font-family="Times,serif" font-size="14" text-anchor="start">size</text><polygon fill="none" stroke="#000" points="70.5 -112 70.5 -133 86.5 -133 86.5 -112 70.5 -112"/><text x="75" y="-118.8" font-family="Times,serif" font-size="14" text-anchor="start">8</text><polygon fill="#000" stroke="transparent" points="11.5 -89 11.5 -110 68.5 -110 68.5 -89 11.5 -89"/><polygon fill="none" stroke="#000" points="11.5 -89 11.5 -110 68.5 -110 68.5 -89 11.5 -89"/><text x="20" y="-95.8" fill="#fff" font-family="Times,serif" font-size="14" text-anchor="start">storage</text><polygon fill="none" stroke="#000" points="70.5 -89 70.5 -110 86.5 -110 86.5 -89 70.5 -89"/><polygon fill="none" stroke="#000" points="8 -86 8 -228 89 -228 89 -86 8 -86"/></g><g id="node2" class="node"><title>mulle_container_keycallback</title><polygon fill="#00f" stroke="transparent" points="109.5 -227 109.5 -248 275.5 -248 275.5 -227 109.5 -227"/><polygon fill="none" stroke="#000" points="109.5 -227 109.5 -248 275.5 -248 275.5 -227 109.5 -227"/><text x="112.5" y="-233.8" fill="#fff" font-family="Times,serif" font-size="14" text-anchor="start">mulle_container_keycallback</text><polygon fill="none" stroke="#000" points="109.5 -204 109.5 -225 275.5 -225 275.5 -204 109.5 -204"/><text x="180" y="-210.8" font-family="Times,serif" font-size="14" text-anchor="start">hash</text><polygon fill="none" stroke="#000" points="109.5 -181 109.5 -202 275.5 -202 275.5 -181 109.5 -181"/><text x="169.5" y="-187.8" font-family="Times,serif" font-size="14" text-anchor="start">is_equal</text><polygon fill="none" stroke="#000" points="109.5 -158 109.5 -179 275.5 -179 275.5 -158 109.5 -158"/><text x="177" y="-164.8" font-family="Times,serif" font-size="14" text-anchor="start">retain</text><polygon fill="none" stroke="#000" points="109.5 -135 109.5 -156 275.5 -156 275.5 -135 109.5 -135"/><text x="173.5" y="-141.8" font-family="Times,serif" font-size="14" text-anchor="start">release</text><polygon fill="none" stroke="#000" points="109.5 -112 109.5 -133 275.5 -133 275.5 -112 109.5 -112"/><text x="169.5" y="-118.8" font-family="Times,serif" font-size="14" text-anchor="start">describe</text><polygon fill="none" stroke="#000" points="109.5 -89 109.5 -110 275.5 -110 275.5 -89 109.5 -89"/><text x="171" y="-95.8" fill="#d3d3d3" font-family="Times,serif" font-size="14" text-anchor="start">notakey</text><polygon fill="none" stroke="#000" points="109.5 -66 109.5 -87 275.5 -87 275.5 -66 109.5 -66"/><text x="170" y="-72.8" font-family="Times,serif" font-size="14" text-anchor="start">userinfo</text><polygon fill="none" stroke="#000" points="106.5 -63 106.5 -251 278.5 -251 278.5 -63 106.5 -63"/></g><g id="edge5" class="edge"><title>mulle_array:c-&gt;mulle_container_keycallback:w</title><path fill="none" stroke="#000" d="M79.34,-179.18C79.59,-195.53 82.28,-226.69 98.64,-235.58"/><polygon fill="#000" stroke="#000" points="97.95 -239.01 108.5 -238 99.62 -232.21 97.95 -239.01"/></g><g id="node3" class="node"><title>mulle_allocator</title><polygon fill="#00f" stroke="transparent" points="298.5 -181 298.5 -202 390.5 -202 390.5 -181 298.5 -181"/><polygon fill="none" stroke="#000" points="298.5 -181 298.5 -202 390.5 -202 390.5 -181 298.5 -181"/><text x="301.5" y="-187.8" fill="#fff" font-family="Times,serif" font-size="14" text-anchor="start">mulle_allocator</text><polygon fill="none" stroke="#000" points="298.5 -158 298.5 -179 390.5 -179 390.5 -158 298.5 -158"/><text x="328" y="-164.8" font-family="Times,serif" font-size="14" text-anchor="start">calloc</text><polygon fill="none" stroke="#000" points="298.5 -135 298.5 -156 390.5 -156 390.5 -135 298.5 -135"/><text x="326" y="-141.8" font-family="Times,serif" font-size="14" text-anchor="start">realloc</text><polygon fill="none" stroke="#000" points="298.5 -112 298.5 -133 390.5 -133 390.5 -112 298.5 -112"/><text x="333.5" y="-118.8" font-family="Times,serif" font-size="14" text-anchor="start">free</text><polygon fill="none" stroke="#000" points="295.5 -109 295.5 -205 393.5 -205 393.5 -109 295.5 -109"/></g><g id="edge4" class="edge"><title>mulle_array:c-&gt;mulle_allocator:w</title><path fill="none" stroke="#000" d="M78.27,-202.25C78.53,-218.84 81.77,-251.2 102,-266 118.23,-277.88 267.47,-278.78 283,-266 305.24,-247.7 275.21,-206.2 287.6,-194.89"/><polygon fill="#000" stroke="#000" points="288.88 -198.16 297.5 -192 286.92 -191.44 288.88 -198.16"/></g><g id="node4" class="node"><title>k_a</title><polygon fill="#ff0" stroke="#000" points="51.5 -.5 51.5 -36.5 105.5 -36.5 105.5 -.5 51.5 -.5"/><text x="78.5" y="-14.8" font-family="Times,serif" font-size="14" text-anchor="middle">0</text></g><g id="edge3" class="edge"><title>mulle_array:c-&gt;k_a</title><path fill="none" stroke="#000" d="M78.5,-80.82C78.5,-70.89 78.5,-58.17 78.5,-46.89"/><ellipse cx="78.5" cy="-85" fill="#000" stroke="#000" rx="4" ry="4"/><polygon fill="#000" stroke="#000" points="78.5 -36.66 83 -46.66 78.5 -41.66 78.5 -46.66 78.5 -46.66 78.5 -46.66 78.5 -41.66 74 -46.66 78.5 -36.66 78.5 -36.66"/></g><g id="node5" class="node"><title>k_b</title><polygon fill="#ff0" stroke="#000" points="106.5 -.5 106.5 -36.5 160.5 -36.5 160.5 -.5 106.5 -.5"/><text x="133.5" y="-14.8" font-family="Times,serif" font-size="14" text-anchor="middle">1</text></g><g id="node6" class="node"><title>k_c</title><polygon fill="#ff0" stroke="#000" points="161.5 -.5 161.5 -36.5 215.5 -36.5 215.5 -.5 161.5 -.5"/><text x="188.5" y="-14.8" font-family="Times,serif" font-size="14" text-anchor="middle">2</text></g><g id="node7" class="node"><title>k_d</title><polygon fill="#ff0" stroke="#000" points="216.5 -.5 216.5 -36.5 270.5 -36.5 270.5 -.5 216.5 -.5"/><text x="243.5" y="-14.8" font-family="Times,serif" font-size="14" text-anchor="middle">3</text></g><g id="node8" class="node"><title>k_e</title><polygon fill="#7fff00" stroke="#000" points="271.5 -.5 271.5 -36.5 325.5 -36.5 325.5 -.5 271.5 -.5"/><text x="298.5" y="-14.8" font-family="Times,serif" font-size="14" text-anchor="middle">4</text></g><g id="node9" class="node"><title>k_f</title><polygon fill="#7fff00" stroke="#000" points="326.5 -.5 326.5 -36.5 380.5 -36.5 380.5 -.5 326.5 -.5"/><text x="353.5" y="-14.8" font-family="Times,serif" font-size="14" text-anchor="middle">5</text></g><g id="node10" class="node"><title>k_g</title><polygon fill="#7fff00" stroke="#000" points="381.5 -.5 381.5 -36.5 435.5 -36.5 435.5 -.5 381.5 -.5"/><text x="408.5" y="-14.8" font-family="Times,serif" font-size="14" text-anchor="middle">6</text></g><g id="node11" class="node"><title>k_h</title><polygon fill="#fff" stroke="#000" points="436.5 -.5 436.5 -36.5 490.5 -36.5 490.5 -.5 436.5 -.5"/><text x="463.5" y="-14.8" font-family="Times,serif" font-size="14" text-anchor="middle">7</text></g></g></svg>