<svg xmlns="http://www.w3.org/2000/svg" xmlns:xlink="http://www.w3.org/1999/xlink" width="548pt" height="215pt" viewBox="0 0 548.3 214.8"><g id="graph0" class="graph" transform="scale(1 1) rotate(0) translate(14.4 200.4)"><polygon fill="#fff" stroke="transparent" points="-14.4 14.4 -14.4 -200.4 533.9 -200.4 533.9 14.4 -14.4 14.4"/><g id="node1" class="node"><title>mulle_pointerarray</title><polygon fill="#00f" stroke="transparent" points="11.5 -157.5 11.5 -178.5 124.5 -178.5 124.5 -157.5 11.5 -157.5"/><polygon fill="none" stroke="#000" points="11.5 -157.5 11.5 -178.5 124.5 -178.5 124.5 -157.5 11.5 -157.5"/><text x="15.5" y="-164.3" fill="#fff" font-family="Times,serif" font-size="14" text-anchor="start">mulle_pointerarray</text><polygon fill="#000" stroke="transparent" points="11.5 -134.5 11.5 -155.5 87.5 -155.5 87.5 -134.5 11.5 -134.5"/><polygon fill="none" stroke="#000" points="11.5 -134.5 11.5 -155.5 87.5 -155.5 87.5 -134.5 11.5 -134.5"/><text x="25.5" y="-141.3" fill="#fff" font-family="Times,serif" font-size="14" text-anchor="start">allocator</text><polygon fill="none" stroke="#000" points="89.5 -134.5 89.5 -155.5 124.5 -155.5 124.5 -134.5 89.5 -134.5"/><polygon fill="#000" stroke="transparent" points="11.5 -111.5 11.5 -132.5 87.5 -132.5 87.5 -111.5 11.5 -111.5"/><polygon fill="none" stroke="#000" points="11.5 -111.5 11.5 -132.5 87.5 -132.5 87.5 -111.5 11.5 -111.5"/><text x="34" y="-118.3" fill="#fff" font-family="Times,serif" font-size="14" text-anchor="start">count</text><polygon fill="none" stroke="#000" points="89.5 -111.5 89.5 -132.5 124.5 -132.5 124.5 -111.5 89.5 -111.5"/><text x="103.5" y="-118.3" font-family="Times,serif" font-size="14" text-anchor="start">6</text><polygon fill="#000" stroke="transparent" points="11.5 -88.5 11.5 -109.5 87.5 -109.5 87.5 -88.5 11.5 -88.5"/><polygon fill="none" stroke="#000" points="11.5 -88.5 11.5 -109.5 87.5 -109.5 87.5 -88.5 11.5 -88.5"/><text x="38.5" y="-95.3" fill="#fff" font-family="Times,serif" font-size="14" text-anchor="start">size</text><polygon fill="none" stroke="#000" points="89.5 -88.5 89.5 -109.5 124.5 -109.5 124.5 -88.5 89.5 -88.5"/><text x="103.5" y="-95.3" font-family="Times,serif" font-size="14" text-anchor="start">8</text><polygon fill="#000" stroke="transparent" points="11.5 -65.5 11.5 -86.5 87.5 -86.5 87.5 -65.5 11.5 -65.5"/><polygon fill="none" stroke="#000" points="11.5 -65.5 11.5 -86.5 87.5 -86.5 87.5 -65.5 11.5 -65.5"/><text x="29.5" y="-72.3" fill="#fff" font-family="Times,serif" font-size="14" text-anchor="start">storage</text><polygon fill="none" stroke="#000" points="89.5 -65.5 89.5 -86.5 124.5 -86.5 124.5 -65.5 89.5 -65.5"/><polygon fill="none" stroke="#000" points="8 -63 8 -182 127 -182 127 -63 8 -63"/></g><g id="node2" class="node"><title>mulle_allocator</title><polygon fill="#00f" stroke="transparent" points="147.5 -146.5 147.5 -167.5 239.5 -167.5 239.5 -146.5 147.5 -146.5"/><polygon fill="none" stroke="#000" points="147.5 -146.5 147.5 -167.5 239.5 -167.5 239.5 -146.5 147.5 -146.5"/><text x="150.5" y="-153.3" fill="#fff" font-family="Times,serif" font-size="14" text-anchor="start">mulle_allocator</text><polygon fill="none" stroke="#000" points="147.5 -123.5 147.5 -144.5 239.5 -144.5 239.5 -123.5 147.5 -123.5"/><text x="177" y="-130.3" font-family="Times,serif" font-size="14" text-anchor="start">calloc</text><polygon fill="none" stroke="#000" points="147.5 -100.5 147.5 -121.5 239.5 -121.5 239.5 -100.5 147.5 -100.5"/><text x="175" y="-107.3" font-family="Times,serif" font-size="14" text-anchor="start">realloc</text><polygon fill="none" stroke="#000" points="147.5 -77.5 147.5 -98.5 239.5 -98.5 239.5 -77.5 147.5 -77.5"/><text x="182.5" y="-84.3" font-family="Times,serif" font-size="14" text-anchor="start">free</text><polygon fill="none" stroke="#000" points="144.5 -74.5 144.5 -170.5 242.5 -170.5 242.5 -74.5 144.5 -74.5"/></g><g id="edge3" class="edge"><title>mulle_pointerarray:c-&gt;mulle_allocator:w</title><path fill="none" stroke="#000" d="M124.8,-153.03C128.4,-154.35 132.36,-155.56 136.41,-156.39"/><polygon fill="#000" stroke="#000" points="136.18 -159.89 146.5 -157.5 136.94 -152.93 136.18 -159.89"/></g><g id="node3" class="node"><title>a</title><polygon fill="#ff0" stroke="#000" points="80.5 -.5 80.5 -36.5 134.5 -36.5 134.5 -.5 80.5 -.5"/><text x="107.5" y="-14.8" font-family="Times,serif" font-size="14" text-anchor="middle">0</text></g><g id="edge2" class="edge"><title>mulle_pointerarray:c-&gt;a</title><path fill="none" stroke="#000" d="M107.5,-57.19C107.5,-53.91 107.5,-50.4 107.5,-46.89"/><ellipse cx="107.5" cy="-61.42" fill="#000" stroke="#000" rx="4" ry="4"/><polygon fill="#000" stroke="#000" points="107.5 -36.6 112 -46.6 107.5 -41.6 107.5 -46.6 107.5 -46.6 107.5 -46.6 107.5 -41.6 103 -46.6 107.5 -36.6 107.5 -36.6"/></g><g id="node4" class="node"><title>b</title><polygon fill="#ff0" stroke="#000" points="135.5 -.5 135.5 -36.5 189.5 -36.5 189.5 -.5 135.5 -.5"/><text x="162.5" y="-14.8" font-family="Times,serif" font-size="14" text-anchor="middle">1</text></g><g id="node5" class="node"><title>c</title><polygon fill="#ff0" stroke="#000" points="190.5 -.5 190.5 -36.5 244.5 -36.5 244.5 -.5 190.5 -.5"/><text x="217.5" y="-14.8" font-family="Times,serif" font-size="14" text-anchor="middle">2</text></g><g id="node6" class="node"><title>d</title><polygon fill="#ff0" stroke="#000" points="245.5 -.5 245.5 -36.5 299.5 -36.5 299.5 -.5 245.5 -.5"/><text x="272.5" y="-14.8" font-family="Times,serif" font-size="14" text-anchor="middle">3</text></g><g id="node7" class="node"><title>e</title><polygon fill="#7fff00" stroke="#000" points="300.5 -.5 300.5 -36.5 354.5 -36.5 354.5 -.5 300.5 -.5"/><text x="327.5" y="-14.8" font-family="Times,serif" font-size="14" text-anchor="middle">4</text></g><g id="node8" class="node"><title>f</title><polygon fill="#7fff00" stroke="#000" points="355.5 -.5 355.5 -36.5 409.5 -36.5 409.5 -.5 355.5 -.5"/><text x="382.5" y="-14.8" font-family="Times,serif" font-size="14" text-anchor="middle">5</text></g><g id="node9" class="node"><title>g</title><polygon fill="#fff" stroke="#000" points="410.5 -.5 410.5 -36.5 464.5 -36.5 464.5 -.5 410.5 -.5"/><text x="437.5" y="-14.8" font-family="Times,serif" font-size="14" text-anchor="middle">6</text></g><g id="node10" class="node"><title>h</title><polygon fill="#fff" stroke="#000" points="465.5 -.5 465.5 -36.5 519.5 -36.5 519.5 -.5 465.5 -.5"/><text x="492.5" y="-14.8" font-family="Times,serif" font-size="14" text-anchor="middle">7</text></g></g></svg>