<?xml version="1.0" encoding="UTF-8" standalone="no"?>
<!DOCTYPE svg PUBLIC "-//W3C//DTD SVG 1.1//EN"
 "http://www.w3.org/Graphics/SVG/1.1/DTD/svg11.dtd">
<!-- Generated by graphviz version 2.44.0 (20200408.0750)
 -->
<!-- Pages: 1 -->
<svg width="517pt" height="192pt"
 viewBox="0.00 0.00 517.30 191.80" xmlns="http://www.w3.org/2000/svg" xmlns:xlink="http://www.w3.org/1999/xlink">
<g id="graph0" class="graph" transform="scale(1 1) rotate(0) translate(14.4 177.4)">
<polygon fill="white" stroke="transparent" points="-14.4,14.4 -14.4,-177.4 502.9,-177.4 502.9,14.4 -14.4,14.4"/>
<!-- mulle__array -->
<g id="node1" class="node">
<title>mulle__array</title>
<polygon fill="blue" stroke="transparent" points="11.5,-135 11.5,-156 86.5,-156 86.5,-135 11.5,-135"/>
<polygon fill="none" stroke="black" points="11.5,-135 11.5,-156 86.5,-156 86.5,-135 11.5,-135"/>
<text text-anchor="start" x="15.5" y="-141.8" font-family="Times,serif" font-size="14.00" fill="white">mulle_array</text>
<polygon fill="black" stroke="transparent" points="11.5,-112 11.5,-133 64.5,-133 64.5,-112 11.5,-112"/>
<polygon fill="none" stroke="black" points="11.5,-112 11.5,-133 64.5,-133 64.5,-112 11.5,-112"/>
<text text-anchor="start" x="22.5" y="-118.8" font-family="Times,serif" font-size="14.00" fill="white">count</text>
<polygon fill="none" stroke="black" points="66.5,-112 66.5,-133 86.5,-133 86.5,-112 66.5,-112"/>
<text text-anchor="start" x="73" y="-118.8" font-family="Times,serif" font-size="14.00">5</text>
<polygon fill="black" stroke="transparent" points="11.5,-89 11.5,-110 64.5,-110 64.5,-89 11.5,-89"/>
<polygon fill="none" stroke="black" points="11.5,-89 11.5,-110 64.5,-110 64.5,-89 11.5,-89"/>
<text text-anchor="start" x="27" y="-95.8" font-family="Times,serif" font-size="14.00" fill="white">size</text>
<polygon fill="none" stroke="black" points="66.5,-89 66.5,-110 86.5,-110 86.5,-89 66.5,-89"/>
<text text-anchor="start" x="73" y="-95.8" font-family="Times,serif" font-size="14.00">8</text>
<polygon fill="black" stroke="transparent" points="11.5,-66 11.5,-87 64.5,-87 64.5,-66 11.5,-66"/>
<polygon fill="none" stroke="black" points="11.5,-66 11.5,-87 64.5,-87 64.5,-66 11.5,-66"/>
<text text-anchor="start" x="18" y="-72.8" font-family="Times,serif" font-size="14.00" fill="white">storage</text>
<polygon fill="none" stroke="black" points="66.5,-66 66.5,-87 86.5,-87 86.5,-66 66.5,-66"/>
<polygon fill="none" stroke="black" points="8,-63 8,-159 89,-159 89,-63 8,-63"/>
</g>
<!-- k_a -->
<g id="node2" class="node">
<title>k_a</title>
<polygon fill="yellow" stroke="black" points="49.5,-0.5 49.5,-36.5 103.5,-36.5 103.5,-0.5 49.5,-0.5"/>
<text text-anchor="middle" x="76.5" y="-14.8" font-family="Times,serif" font-size="14.00">0</text>
</g>
<!-- mulle__array&#45;&gt;k_a -->
<g id="edge1" class="edge">
<title>mulle__array:c&#45;&gt;k_a</title>
<path fill="none" stroke="black" d="M76.5,-57.53C76.5,-54.12 76.5,-50.46 76.5,-46.81"/>
<ellipse fill="black" stroke="black" cx="76.5" cy="-61.84" rx="4" ry="4"/>
<polygon fill="black" stroke="black" points="76.5,-36.76 81,-46.76 76.5,-41.76 76.5,-46.76 76.5,-46.76 76.5,-46.76 76.5,-41.76 72,-46.76 76.5,-36.76 76.5,-36.76"/>
</g>
<!-- k_b -->
<g id="node3" class="node">
<title>k_b</title>
<polygon fill="yellow" stroke="black" points="104.5,-0.5 104.5,-36.5 158.5,-36.5 158.5,-0.5 104.5,-0.5"/>
<text text-anchor="middle" x="131.5" y="-14.8" font-family="Times,serif" font-size="14.00">1</text>
</g>
<!-- k_c -->
<g id="node4" class="node">
<title>k_c</title>
<polygon fill="yellow" stroke="black" points="159.5,-0.5 159.5,-36.5 213.5,-36.5 213.5,-0.5 159.5,-0.5"/>
<text text-anchor="middle" x="186.5" y="-14.8" font-family="Times,serif" font-size="14.00">2</text>
</g>
<!-- k_d -->
<g id="node5" class="node">
<title>k_d</title>
<polygon fill="yellow" stroke="black" points="214.5,-0.5 214.5,-36.5 268.5,-36.5 268.5,-0.5 214.5,-0.5"/>
<text text-anchor="middle" x="241.5" y="-14.8" font-family="Times,serif" font-size="14.00">3</text>
</g>
<!-- k_e -->
<g id="node6" class="node">
<title>k_e</title>
<polygon fill="chartreuse" stroke="black" points="269.5,-0.5 269.5,-36.5 323.5,-36.5 323.5,-0.5 269.5,-0.5"/>
<text text-anchor="middle" x="296.5" y="-14.8" font-family="Times,serif" font-size="14.00">4</text>
</g>
<!-- k_f -->
<g id="node7" class="node">
<title>k_f</title>
<polygon fill="white" stroke="black" points="324.5,-0.5 324.5,-36.5 378.5,-36.5 378.5,-0.5 324.5,-0.5"/>
<text text-anchor="middle" x="351.5" y="-14.8" font-family="Times,serif" font-size="14.00">5</text>
</g>
<!-- k_g -->
<g id="node8" class="node">
<title>k_g</title>
<polygon fill="white" stroke="black" points="379.5,-0.5 379.5,-36.5 433.5,-36.5 433.5,-0.5 379.5,-0.5"/>
<text text-anchor="middle" x="406.5" y="-14.8" font-family="Times,serif" font-size="14.00">6</text>
</g>
<!-- k_h -->
<g id="node9" class="node">
<title>k_h</title>
<polygon fill="white" stroke="black" points="434.5,-0.5 434.5,-36.5 488.5,-36.5 488.5,-0.5 434.5,-0.5"/>
<text text-anchor="middle" x="461.5" y="-14.8" font-family="Times,serif" font-size="14.00">7</text>
</g>
</g>
</svg>
