<?xml version="1.0" encoding="UTF-8" standalone="no"?>
<!DOCTYPE svg PUBLIC "-//W3C//DTD SVG 1.1//EN"
 "http://www.w3.org/Graphics/SVG/1.1/DTD/svg11.dtd">
<!-- Generated by graphviz version 2.43.0 (0)
 -->
<!-- Title: G Pages: 1 -->
<svg width="491pt" height="305pt"
 viewBox="0.00 0.00 491.00 305.00" xmlns="http://www.w3.org/2000/svg" xmlns:xlink="http://www.w3.org/1999/xlink">
<g id="graph0" class="graph" transform="scale(1 1) rotate(0) translate(4 301)">
<title>G</title>
<polygon fill="white" stroke="transparent" points="-4,4 -4,-301 487,-301 487,4 -4,4"/>
<!-- mulle&#45;array.h -->
<g id="node1" class="node">
<title>mulle&#45;array.h</title>
<polygon fill="none" stroke="black" points="410,-297 306,-297 306,-261 416,-261 416,-291 410,-297"/>
<polyline fill="none" stroke="black" points="410,-297 410,-291 "/>
<polyline fill="none" stroke="black" points="416,-291 410,-291 "/>
<text text-anchor="middle" x="361" y="-275.3" font-family="Times,serif" font-size="14.00">mulle&#45;array.h</text>
</g>
<!-- mulle&#45;&#45;array.h -->
<g id="node2" class="node">
<title>mulle&#45;&#45;array.h</title>
<polygon fill="none" stroke="black" points="356.5,-210 247.5,-210 247.5,-174 362.5,-174 362.5,-204 356.5,-210"/>
<polyline fill="none" stroke="black" points="356.5,-210 356.5,-204 "/>
<polyline fill="none" stroke="black" points="362.5,-204 356.5,-204 "/>
<text text-anchor="middle" x="305" y="-188.3" font-family="Times,serif" font-size="14.00">mulle&#45;&#45;array.h</text>
</g>
<!-- mulle&#45;array.h&#45;&gt;mulle&#45;&#45;array.h -->
<g id="edge1" class="edge">
<title>mulle&#45;array.h&#45;&gt;mulle&#45;&#45;array.h</title>
<path fill="none" stroke="black" d="M346.46,-260.98C341.95,-255.4 337.09,-249.07 333,-243 327.89,-235.41 322.83,-226.81 318.46,-218.92"/>
<polygon fill="black" stroke="black" points="321.51,-217.2 313.67,-210.08 315.35,-220.54 321.51,-217.2"/>
<text text-anchor="middle" x="367.5" y="-231.8" font-family="Times,serif" font-size="14.00"> #include</text>
</g>
<!-- mulle&#45;container&#45;operation.h -->
<g id="node4" class="node">
<title>mulle&#45;container&#45;operation.h</title>
<polygon fill="none" stroke="black" points="406.5,-36 197.5,-36 197.5,0 412.5,0 412.5,-30 406.5,-36"/>
<polyline fill="none" stroke="black" points="406.5,-36 406.5,-30 "/>
<polyline fill="none" stroke="black" points="412.5,-30 406.5,-30 "/>
<text text-anchor="middle" x="305" y="-14.3" font-family="Times,serif" font-size="14.00">mulle&#45;container&#45;operation.h</text>
</g>
<!-- mulle&#45;array.h&#45;&gt;mulle&#45;container&#45;operation.h -->
<g id="edge6" class="edge">
<title>mulle&#45;array.h&#45;&gt;mulle&#45;container&#45;operation.h</title>
<path fill="none" stroke="black" d="M388.04,-260.76C393.68,-255.77 398.86,-249.8 402,-243 407.7,-230.63 447.2,-262.29 397,-87 392.34,-70.73 390.41,-65.51 378,-54 372.88,-49.25 366.99,-45.02 360.83,-41.3"/>
<polygon fill="black" stroke="black" points="362.1,-38 351.66,-36.19 358.7,-44.12 362.1,-38"/>
<text text-anchor="middle" x="448.5" y="-144.8" font-family="Times,serif" font-size="14.00"> #include</text>
</g>
<!-- mulle&#45;container&#45;callback.h -->
<g id="node3" class="node">
<title>mulle&#45;container&#45;callback.h</title>
<polygon fill="none" stroke="black" points="198,-123 0,-123 0,-87 204,-87 204,-117 198,-123"/>
<polyline fill="none" stroke="black" points="198,-123 198,-117 "/>
<polyline fill="none" stroke="black" points="204,-117 198,-117 "/>
<text text-anchor="middle" x="102" y="-101.3" font-family="Times,serif" font-size="14.00">mulle&#45;container&#45;callback.h</text>
</g>
<!-- mulle&#45;&#45;array.h&#45;&gt;mulle&#45;container&#45;callback.h -->
<g id="edge2" class="edge">
<title>mulle&#45;&#45;array.h&#45;&gt;mulle&#45;container&#45;callback.h</title>
<path fill="none" stroke="black" d="M263.92,-173.8C231.62,-160.27 186.49,-141.38 152.07,-126.97"/>
<polygon fill="black" stroke="black" points="153.25,-123.66 142.67,-123.03 150.54,-130.12 153.25,-123.66"/>
<text text-anchor="middle" x="250.5" y="-144.8" font-family="Times,serif" font-size="14.00"> #include</text>
</g>
<!-- mulle&#45;&#45;pointerarray.h -->
<g id="node5" class="node">
<title>mulle&#45;&#45;pointerarray.h</title>
<polygon fill="none" stroke="black" points="382.5,-123 221.5,-123 221.5,-87 388.5,-87 388.5,-117 382.5,-123"/>
<polyline fill="none" stroke="black" points="382.5,-123 382.5,-117 "/>
<polyline fill="none" stroke="black" points="388.5,-117 382.5,-117 "/>
<text text-anchor="middle" x="305" y="-101.3" font-family="Times,serif" font-size="14.00">mulle&#45;&#45;pointerarray.h</text>
</g>
<!-- mulle&#45;&#45;array.h&#45;&gt;mulle&#45;&#45;pointerarray.h -->
<g id="edge4" class="edge">
<title>mulle&#45;&#45;array.h&#45;&gt;mulle&#45;&#45;pointerarray.h</title>
<path fill="none" stroke="black" d="M305,-173.8C305,-162.16 305,-146.55 305,-133.24"/>
<polygon fill="black" stroke="black" points="308.5,-133.18 305,-123.18 301.5,-133.18 308.5,-133.18"/>
<text text-anchor="middle" x="339.5" y="-144.8" font-family="Times,serif" font-size="14.00"> #include</text>
</g>
<!-- mulle&#45;container&#45;callback.h&#45;&gt;mulle&#45;container&#45;operation.h -->
<g id="edge3" class="edge">
<title>mulle&#45;container&#45;callback.h&#45;&gt;mulle&#45;container&#45;operation.h</title>
<path fill="none" stroke="black" d="M143.08,-86.8C175.38,-73.27 220.51,-54.38 254.93,-39.97"/>
<polygon fill="black" stroke="black" points="256.46,-43.12 264.33,-36.03 253.75,-36.66 256.46,-43.12"/>
<text text-anchor="middle" x="250.5" y="-57.8" font-family="Times,serif" font-size="14.00"> #include</text>
</g>
<!-- mulle&#45;&#45;pointerarray.h&#45;&gt;mulle&#45;container&#45;operation.h -->
<g id="edge5" class="edge">
<title>mulle&#45;&#45;pointerarray.h&#45;&gt;mulle&#45;container&#45;operation.h</title>
<path fill="none" stroke="black" d="M305,-86.8C305,-75.16 305,-59.55 305,-46.24"/>
<polygon fill="black" stroke="black" points="308.5,-46.18 305,-36.18 301.5,-46.18 308.5,-46.18"/>
<text text-anchor="middle" x="339.5" y="-57.8" font-family="Times,serif" font-size="14.00"> #include</text>
</g>
</g>
</svg>
