<?xml version="1.0" encoding="UTF-8" standalone="no"?>
<!DOCTYPE svg PUBLIC "-//W3C//DTD SVG 1.1//EN"
 "http://www.w3.org/Graphics/SVG/1.1/DTD/svg11.dtd">
<!-- Generated by graphviz version 2.43.0 (0)
 -->
<!-- Title: G Pages: 1 -->
<svg width="223pt" height="392pt"
 viewBox="0.00 0.00 223.00 392.00" xmlns="http://www.w3.org/2000/svg" xmlns:xlink="http://www.w3.org/1999/xlink">
<g id="graph0" class="graph" transform="scale(1 1) rotate(0) translate(4 388)">
<title>G</title>
<polygon fill="white" stroke="transparent" points="-4,4 -4,-388 219,-388 219,4 -4,4"/>
<!-- mulle&#45;pointerpairarray.h -->
<g id="node1" class="node">
<title>mulle&#45;pointerpairarray.h</title>
<polygon fill="none" stroke="black" points="197,-384 12,-384 12,-348 203,-348 203,-378 197,-384"/>
<polyline fill="none" stroke="black" points="197,-384 197,-378 "/>
<polyline fill="none" stroke="black" points="203,-378 197,-378 "/>
<text text-anchor="middle" x="107.5" y="-362.3" font-family="Times,serif" font-size="14.00">mulle&#45;pointerpairarray.h</text>
</g>
<!-- mulle&#45;&#45;pointerpairarray.h -->
<g id="node2" class="node">
<title>mulle&#45;&#45;pointerpairarray.h</title>
<polygon fill="none" stroke="black" points="199,-297 10,-297 10,-261 205,-261 205,-291 199,-297"/>
<polyline fill="none" stroke="black" points="199,-297 199,-291 "/>
<polyline fill="none" stroke="black" points="205,-291 199,-291 "/>
<text text-anchor="middle" x="107.5" y="-275.3" font-family="Times,serif" font-size="14.00">mulle&#45;&#45;pointerpairarray.h</text>
</g>
<!-- mulle&#45;pointerpairarray.h&#45;&gt;mulle&#45;&#45;pointerpairarray.h -->
<g id="edge1" class="edge">
<title>mulle&#45;pointerpairarray.h&#45;&gt;mulle&#45;&#45;pointerpairarray.h</title>
<path fill="none" stroke="black" d="M107.5,-347.8C107.5,-336.16 107.5,-320.55 107.5,-307.24"/>
<polygon fill="black" stroke="black" points="111,-307.18 107.5,-297.18 104,-307.18 111,-307.18"/>
<text text-anchor="middle" x="142" y="-318.8" font-family="Times,serif" font-size="14.00"> #include</text>
</g>
<!-- mulle&#45;pointerpair.h -->
<g id="node3" class="node">
<title>mulle&#45;pointerpair.h</title>
<polygon fill="none" stroke="black" points="178,-210 31,-210 31,-174 184,-174 184,-204 178,-210"/>
<polyline fill="none" stroke="black" points="178,-210 178,-204 "/>
<polyline fill="none" stroke="black" points="184,-204 178,-204 "/>
<text text-anchor="middle" x="107.5" y="-188.3" font-family="Times,serif" font-size="14.00">mulle&#45;pointerpair.h</text>
</g>
<!-- mulle&#45;&#45;pointerpairarray.h&#45;&gt;mulle&#45;pointerpair.h -->
<g id="edge2" class="edge">
<title>mulle&#45;&#45;pointerpairarray.h&#45;&gt;mulle&#45;pointerpair.h</title>
<path fill="none" stroke="black" d="M107.5,-260.8C107.5,-249.16 107.5,-233.55 107.5,-220.24"/>
<polygon fill="black" stroke="black" points="111,-220.18 107.5,-210.18 104,-220.18 111,-220.18"/>
<text text-anchor="middle" x="142" y="-231.8" font-family="Times,serif" font-size="14.00"> #include</text>
</g>
<!-- mulle&#45;container&#45;callback.h -->
<g id="node4" class="node">
<title>mulle&#45;container&#45;callback.h</title>
<polygon fill="none" stroke="black" points="203.5,-123 5.5,-123 5.5,-87 209.5,-87 209.5,-117 203.5,-123"/>
<polyline fill="none" stroke="black" points="203.5,-123 203.5,-117 "/>
<polyline fill="none" stroke="black" points="209.5,-117 203.5,-117 "/>
<text text-anchor="middle" x="107.5" y="-101.3" font-family="Times,serif" font-size="14.00">mulle&#45;container&#45;callback.h</text>
</g>
<!-- mulle&#45;pointerpair.h&#45;&gt;mulle&#45;container&#45;callback.h -->
<g id="edge3" class="edge">
<title>mulle&#45;pointerpair.h&#45;&gt;mulle&#45;container&#45;callback.h</title>
<path fill="none" stroke="black" d="M107.5,-173.8C107.5,-162.16 107.5,-146.55 107.5,-133.24"/>
<polygon fill="black" stroke="black" points="111,-133.18 107.5,-123.18 104,-133.18 111,-133.18"/>
<text text-anchor="middle" x="142" y="-144.8" font-family="Times,serif" font-size="14.00"> #include</text>
</g>
<!-- mulle&#45;container&#45;operation.h -->
<g id="node5" class="node">
<title>mulle&#45;container&#45;operation.h</title>
<polygon fill="none" stroke="black" points="209,-36 0,-36 0,0 215,0 215,-30 209,-36"/>
<polyline fill="none" stroke="black" points="209,-36 209,-30 "/>
<polyline fill="none" stroke="black" points="215,-30 209,-30 "/>
<text text-anchor="middle" x="107.5" y="-14.3" font-family="Times,serif" font-size="14.00">mulle&#45;container&#45;operation.h</text>
</g>
<!-- mulle&#45;container&#45;callback.h&#45;&gt;mulle&#45;container&#45;operation.h -->
<g id="edge4" class="edge">
<title>mulle&#45;container&#45;callback.h&#45;&gt;mulle&#45;container&#45;operation.h</title>
<path fill="none" stroke="black" d="M107.5,-86.8C107.5,-75.16 107.5,-59.55 107.5,-46.24"/>
<polygon fill="black" stroke="black" points="111,-46.18 107.5,-36.18 104,-46.18 111,-46.18"/>
<text text-anchor="middle" x="142" y="-57.8" font-family="Times,serif" font-size="14.00"> #include</text>
</g>
</g>
</svg>
