<?xml version="1.0" encoding="UTF-8" standalone="no"?>
<!DOCTYPE svg PUBLIC "-//W3C//DTD SVG 1.1//EN"
 "http://www.w3.org/Graphics/SVG/1.1/DTD/svg11.dtd">
<!-- Generated by graphviz version 2.44.0 (20200408.0750)
 -->
<!-- Pages: 1 -->
<svg width="956pt" height="454pt"
 viewBox="0.00 0.00 956.30 453.80" xmlns="http://www.w3.org/2000/svg" xmlns:xlink="http://www.w3.org/1999/xlink">
<g id="graph0" class="graph" transform="scale(1 1) rotate(0) translate(14.4 439.4)">
<polygon fill="white" stroke="transparent" points="-14.4,14.4 -14.4,-439.4 941.9,-439.4 941.9,14.4 -14.4,14.4"/>
<!-- mulle_map -->
<g id="node1" class="node">
<title>mulle_map</title>
<polygon fill="blue" stroke="transparent" points="11.5,-308 11.5,-329 82.5,-329 82.5,-308 11.5,-308"/>
<polygon fill="none" stroke="black" points="11.5,-308 11.5,-329 82.5,-329 82.5,-308 11.5,-308"/>
<text text-anchor="start" x="15.5" y="-314.8" font-family="Times,serif" font-size="14.00" fill="white">mulle_map</text>
<polygon fill="black" stroke="transparent" points="11.5,-285 11.5,-306 66.5,-306 66.5,-285 11.5,-285"/>
<polygon fill="none" stroke="black" points="11.5,-285 11.5,-306 66.5,-306 66.5,-285 11.5,-285"/>
<text text-anchor="start" x="15" y="-291.8" font-family="Times,serif" font-size="14.00" fill="white">allocator</text>
<polygon fill="none" stroke="black" points="68.5,-285 68.5,-306 82.5,-306 82.5,-285 68.5,-285"/>
<polygon fill="black" stroke="transparent" points="11.5,-262 11.5,-283 66.5,-283 66.5,-262 11.5,-262"/>
<polygon fill="none" stroke="black" points="11.5,-262 11.5,-283 66.5,-283 66.5,-262 11.5,-262"/>
<text text-anchor="start" x="16" y="-268.8" font-family="Times,serif" font-size="14.00" fill="white">callback</text>
<polygon fill="none" stroke="black" points="68.5,-262 68.5,-283 82.5,-283 82.5,-262 68.5,-262"/>
<polygon fill="black" stroke="transparent" points="11.5,-239 11.5,-260 66.5,-260 66.5,-239 11.5,-239"/>
<polygon fill="none" stroke="black" points="11.5,-239 11.5,-260 66.5,-260 66.5,-239 11.5,-239"/>
<text text-anchor="start" x="23.5" y="-245.8" font-family="Times,serif" font-size="14.00" fill="white">count</text>
<polygon fill="none" stroke="black" points="68.5,-239 68.5,-260 82.5,-260 82.5,-239 68.5,-239"/>
<text text-anchor="start" x="72" y="-245.8" font-family="Times,serif" font-size="14.00">3</text>
<polygon fill="black" stroke="transparent" points="11.5,-216 11.5,-237 66.5,-237 66.5,-216 11.5,-216"/>
<polygon fill="none" stroke="black" points="11.5,-216 11.5,-237 66.5,-237 66.5,-216 11.5,-216"/>
<text text-anchor="start" x="28" y="-222.8" font-family="Times,serif" font-size="14.00" fill="white">size</text>
<polygon fill="none" stroke="black" points="68.5,-216 68.5,-237 82.5,-237 82.5,-216 68.5,-216"/>
<text text-anchor="start" x="72" y="-222.8" font-family="Times,serif" font-size="14.00">8</text>
<polygon fill="black" stroke="transparent" points="11.5,-193 11.5,-214 66.5,-214 66.5,-193 11.5,-193"/>
<polygon fill="none" stroke="black" points="11.5,-193 11.5,-214 66.5,-214 66.5,-193 11.5,-193"/>
<text text-anchor="start" x="19" y="-199.8" font-family="Times,serif" font-size="14.00" fill="white">storage</text>
<polygon fill="none" stroke="black" points="68.5,-193 68.5,-214 82.5,-214 82.5,-193 68.5,-193"/>
<polygon fill="none" stroke="black" points="8,-190 8,-332 85,-332 85,-190 8,-190"/>
</g>
<!-- mulle_container_callback -->
<g id="node2" class="node">
<title>mulle_container_callback</title>
<polygon fill="blue" stroke="transparent" points="105.5,-377 105.5,-398 254.5,-398 254.5,-377 105.5,-377"/>
<polygon fill="none" stroke="black" points="105.5,-377 105.5,-398 254.5,-398 254.5,-377 105.5,-377"/>
<text text-anchor="start" x="109.5" y="-383.8" font-family="Times,serif" font-size="14.00" fill="white">mulle_container_callback</text>
<polygon fill="none" stroke="black" points="105.5,-354 105.5,-375 195.5,-375 195.5,-354 105.5,-354"/>
<text text-anchor="start" x="116" y="-360.8" font-family="Times,serif" font-size="14.00">keycallback.</text>
<polygon fill="none" stroke="black" points="197.5,-354 197.5,-375 254.5,-375 254.5,-354 197.5,-354"/>
<text text-anchor="start" x="213.5" y="-360.8" font-family="Times,serif" font-size="14.00">hash</text>
<polygon fill="none" stroke="black" points="105.5,-331 105.5,-352 195.5,-352 195.5,-331 105.5,-331"/>
<text text-anchor="start" x="116" y="-337.8" font-family="Times,serif" font-size="14.00">keycallback.</text>
<polygon fill="none" stroke="black" points="197.5,-331 197.5,-352 254.5,-352 254.5,-331 197.5,-331"/>
<text text-anchor="start" x="203" y="-337.8" font-family="Times,serif" font-size="14.00">is_equal</text>
<polygon fill="none" stroke="black" points="105.5,-308 105.5,-329 195.5,-329 195.5,-308 105.5,-308"/>
<text text-anchor="start" x="116" y="-314.8" font-family="Times,serif" font-size="14.00">keycallback.</text>
<polygon fill="none" stroke="black" points="197.5,-308 197.5,-329 254.5,-329 254.5,-308 197.5,-308"/>
<text text-anchor="start" x="210.5" y="-314.8" font-family="Times,serif" font-size="14.00">retain</text>
<polygon fill="none" stroke="black" points="105.5,-285 105.5,-306 195.5,-306 195.5,-285 105.5,-285"/>
<text text-anchor="start" x="116" y="-291.8" font-family="Times,serif" font-size="14.00">keycallback.</text>
<polygon fill="none" stroke="black" points="197.5,-285 197.5,-306 254.5,-306 254.5,-285 197.5,-285"/>
<text text-anchor="start" x="207" y="-291.8" font-family="Times,serif" font-size="14.00">release</text>
<polygon fill="none" stroke="black" points="105.5,-262 105.5,-283 195.5,-283 195.5,-262 105.5,-262"/>
<text text-anchor="start" x="116" y="-268.8" font-family="Times,serif" font-size="14.00">keycallback.</text>
<polygon fill="none" stroke="black" points="197.5,-262 197.5,-283 254.5,-283 254.5,-262 197.5,-262"/>
<text text-anchor="start" x="203" y="-268.8" font-family="Times,serif" font-size="14.00">describe</text>
<polygon fill="none" stroke="black" points="105.5,-239 105.5,-260 195.5,-260 195.5,-239 105.5,-239"/>
<text text-anchor="start" x="116" y="-245.8" font-family="Times,serif" font-size="14.00">keycallback.</text>
<polygon fill="lightgray" stroke="transparent" points="197.5,-239 197.5,-260 254.5,-260 254.5,-239 197.5,-239"/>
<polygon fill="none" stroke="black" points="197.5,-239 197.5,-260 254.5,-260 254.5,-239 197.5,-239"/>
<text text-anchor="start" x="204.5" y="-245.8" font-family="Times,serif" font-size="14.00">notakey</text>
<polygon fill="none" stroke="black" points="105.5,-216 105.5,-237 195.5,-237 195.5,-216 105.5,-216"/>
<text text-anchor="start" x="116" y="-222.8" font-family="Times,serif" font-size="14.00">keycallback.</text>
<polygon fill="none" stroke="black" points="197.5,-216 197.5,-237 254.5,-237 254.5,-216 197.5,-216"/>
<text text-anchor="start" x="203.5" y="-222.8" font-family="Times,serif" font-size="14.00">userinfo</text>
<polygon fill="none" stroke="black" points="105.5,-193 105.5,-214 195.5,-214 195.5,-193 105.5,-193"/>
<text text-anchor="start" x="111" y="-199.8" font-family="Times,serif" font-size="14.00">valuecallback.</text>
<polygon fill="none" stroke="black" points="197.5,-193 197.5,-214 254.5,-214 254.5,-193 197.5,-193"/>
<text text-anchor="start" x="210.5" y="-199.8" font-family="Times,serif" font-size="14.00">retain</text>
<polygon fill="none" stroke="black" points="105.5,-170 105.5,-191 195.5,-191 195.5,-170 105.5,-170"/>
<text text-anchor="start" x="111" y="-176.8" font-family="Times,serif" font-size="14.00">valuecallback.</text>
<polygon fill="none" stroke="black" points="197.5,-170 197.5,-191 254.5,-191 254.5,-170 197.5,-170"/>
<text text-anchor="start" x="207" y="-176.8" font-family="Times,serif" font-size="14.00">release</text>
<polygon fill="none" stroke="black" points="105.5,-147 105.5,-168 195.5,-168 195.5,-147 105.5,-147"/>
<text text-anchor="start" x="111" y="-153.8" font-family="Times,serif" font-size="14.00">valuecallback.</text>
<polygon fill="none" stroke="black" points="197.5,-147 197.5,-168 254.5,-168 254.5,-147 197.5,-147"/>
<text text-anchor="start" x="203" y="-153.8" font-family="Times,serif" font-size="14.00">describe</text>
<polygon fill="none" stroke="black" points="105.5,-124 105.5,-145 195.5,-145 195.5,-124 105.5,-124"/>
<text text-anchor="start" x="111" y="-130.8" font-family="Times,serif" font-size="14.00">valuecallback.</text>
<polygon fill="none" stroke="black" points="197.5,-124 197.5,-145 254.5,-145 254.5,-124 197.5,-124"/>
<text text-anchor="start" x="203.5" y="-130.8" font-family="Times,serif" font-size="14.00">userinfo</text>
<polygon fill="none" stroke="black" points="102,-121 102,-401 257,-401 257,-121 102,-121"/>
</g>
<!-- mulle_map&#45;&gt;mulle_container_callback -->
<!-- mulle_map&#45;&gt;mulle_container_callback -->
<g id="edge7" class="edge">
<title>mulle_map:c&#45;&gt;mulle_container_callback:w</title>
<path fill="none" stroke="black" d="M76.81,-283.21C77.77,-306.95 81.54,-365.23 95.59,-382.86"/>
<polygon fill="black" stroke="black" points="94.09,-386.04 104.5,-388 97.58,-379.97 94.09,-386.04"/>
</g>
<!-- mulle_allocator -->
<g id="node3" class="node">
<title>mulle_allocator</title>
<polygon fill="blue" stroke="transparent" points="277.5,-285 277.5,-306 369.5,-306 369.5,-285 277.5,-285"/>
<polygon fill="none" stroke="black" points="277.5,-285 277.5,-306 369.5,-306 369.5,-285 277.5,-285"/>
<text text-anchor="start" x="280.5" y="-291.8" font-family="Times,serif" font-size="14.00" fill="white">mulle_allocator</text>
<polygon fill="none" stroke="black" points="277.5,-262 277.5,-283 369.5,-283 369.5,-262 277.5,-262"/>
<text text-anchor="start" x="307" y="-268.8" font-family="Times,serif" font-size="14.00">calloc</text>
<polygon fill="none" stroke="black" points="277.5,-239 277.5,-260 369.5,-260 369.5,-239 277.5,-239"/>
<text text-anchor="start" x="305" y="-245.8" font-family="Times,serif" font-size="14.00">realloc</text>
<polygon fill="none" stroke="black" points="277.5,-216 277.5,-237 369.5,-237 369.5,-216 277.5,-216"/>
<text text-anchor="start" x="312.5" y="-222.8" font-family="Times,serif" font-size="14.00">free</text>
<polygon fill="none" stroke="black" points="274.5,-213 274.5,-309 372.5,-309 372.5,-213 274.5,-213"/>
</g>
<!-- mulle_map&#45;&gt;mulle_allocator -->
<g id="edge6" class="edge">
<title>mulle_map:c&#45;&gt;mulle_allocator:w</title>
<path fill="none" stroke="black" d="M73.59,-306.1C69.78,-329.71 64.21,-388.56 97,-416 111.06,-427.77 248.28,-428.16 262,-416 279.2,-400.76 257.92,-323.77 268.23,-301.84"/>
<polygon fill="black" stroke="black" points="270.35,-304.63 276.5,-296 266.31,-298.91 270.35,-304.63"/>
</g>
<!-- k_a -->
<g id="node4" class="node">
<title>k_a</title>
<polygon fill="yellow" stroke="black" points="48.5,-58.5 48.5,-94.5 102.5,-94.5 102.5,-58.5 48.5,-58.5"/>
<text text-anchor="middle" x="75.5" y="-72.8" font-family="Times,serif" font-size="14.00">0</text>
</g>
<!-- mulle_map&#45;&gt;k_a -->
<g id="edge5" class="edge">
<title>mulle_map:c&#45;&gt;k_a</title>
<path fill="none" stroke="black" d="M75.5,-184.51C75.5,-163.79 75.5,-129.03 75.5,-104.76"/>
<ellipse fill="black" stroke="black" cx="75.5" cy="-188.64" rx="4" ry="4"/>
<polygon fill="black" stroke="black" points="75.5,-94.76 80,-104.76 75.5,-99.76 75.5,-104.76 75.5,-104.76 75.5,-104.76 75.5,-99.76 71,-104.76 75.5,-94.76 75.5,-94.76"/>
</g>
<!-- mulle_container_callback&#45;&gt;mulle_allocator -->
<!-- KEYS -->
<g id="node20" class="node">
<title>KEYS</title>
<text text-anchor="middle" x="75.5" y="-14.3" font-family="Times,serif" font-size="14.00">KEYS</text>
</g>
<!-- k_a&#45;&gt;KEYS -->
<!-- k_b -->
<g id="node5" class="node">
<title>k_b</title>
<polygon fill="lightgray" stroke="black" points="103.5,-58.5 103.5,-94.5 157.5,-94.5 157.5,-58.5 103.5,-58.5"/>
<text text-anchor="middle" x="130.5" y="-72.8" font-family="Times,serif" font-size="14.00">1</text>
</g>
<!-- k_c -->
<g id="node6" class="node">
<title>k_c</title>
<polygon fill="yellow" stroke="black" points="158.5,-58.5 158.5,-94.5 212.5,-94.5 212.5,-58.5 158.5,-58.5"/>
<text text-anchor="middle" x="185.5" y="-72.8" font-family="Times,serif" font-size="14.00">2</text>
</g>
<!-- k_d -->
<g id="node7" class="node">
<title>k_d</title>
<polygon fill="lightgray" stroke="black" points="213.5,-58.5 213.5,-94.5 267.5,-94.5 267.5,-58.5 213.5,-58.5"/>
<text text-anchor="middle" x="240.5" y="-72.8" font-family="Times,serif" font-size="14.00">3</text>
</g>
<!-- k_e -->
<g id="node8" class="node">
<title>k_e</title>
<polygon fill="lightgray" stroke="black" points="268.5,-58.5 268.5,-94.5 322.5,-94.5 322.5,-58.5 268.5,-58.5"/>
<text text-anchor="middle" x="295.5" y="-72.8" font-family="Times,serif" font-size="14.00">4</text>
</g>
<!-- k_f -->
<g id="node9" class="node">
<title>k_f</title>
<polygon fill="chartreuse" stroke="black" points="323.5,-58.5 323.5,-94.5 377.5,-94.5 377.5,-58.5 323.5,-58.5"/>
<text text-anchor="middle" x="350.5" y="-72.8" font-family="Times,serif" font-size="14.00">5</text>
</g>
<!-- k_g -->
<g id="node10" class="node">
<title>k_g</title>
<polygon fill="lightgray" stroke="black" points="378.5,-58.5 378.5,-94.5 432.5,-94.5 432.5,-58.5 378.5,-58.5"/>
<text text-anchor="middle" x="405.5" y="-72.8" font-family="Times,serif" font-size="14.00">6</text>
</g>
<!-- k_h -->
<g id="node11" class="node">
<title>k_h</title>
<polygon fill="lightgray" stroke="black" points="433.5,-58.5 433.5,-94.5 487.5,-94.5 487.5,-58.5 433.5,-58.5"/>
<text text-anchor="middle" x="460.5" y="-72.8" font-family="Times,serif" font-size="14.00">7</text>
</g>
<!-- v_a -->
<g id="node12" class="node">
<title>v_a</title>
<polygon fill="yellow" stroke="black" points="488.5,-58.5 488.5,-94.5 542.5,-94.5 542.5,-58.5 488.5,-58.5"/>
<text text-anchor="middle" x="515.5" y="-72.8" font-family="Times,serif" font-size="14.00">0</text>
</g>
<!-- VALUES -->
<g id="node21" class="node">
<title>VALUES</title>
<text text-anchor="middle" x="515.5" y="-14.3" font-family="Times,serif" font-size="14.00">VALUES</text>
</g>
<!-- v_a&#45;&gt;VALUES -->
<!-- v_b -->
<g id="node13" class="node">
<title>v_b</title>
<polygon fill="white" stroke="black" points="543.5,-58.5 543.5,-94.5 597.5,-94.5 597.5,-58.5 543.5,-58.5"/>
<text text-anchor="middle" x="570.5" y="-72.8" font-family="Times,serif" font-size="14.00">1</text>
</g>
<!-- v_c -->
<g id="node14" class="node">
<title>v_c</title>
<polygon fill="yellow" stroke="black" points="598.5,-58.5 598.5,-94.5 652.5,-94.5 652.5,-58.5 598.5,-58.5"/>
<text text-anchor="middle" x="625.5" y="-72.8" font-family="Times,serif" font-size="14.00">2</text>
</g>
<!-- v_d -->
<g id="node15" class="node">
<title>v_d</title>
<polygon fill="white" stroke="black" points="653.5,-58.5 653.5,-94.5 707.5,-94.5 707.5,-58.5 653.5,-58.5"/>
<text text-anchor="middle" x="680.5" y="-72.8" font-family="Times,serif" font-size="14.00">3</text>
</g>
<!-- v_e -->
<g id="node16" class="node">
<title>v_e</title>
<polygon fill="white" stroke="black" points="708.5,-58.5 708.5,-94.5 762.5,-94.5 762.5,-58.5 708.5,-58.5"/>
<text text-anchor="middle" x="735.5" y="-72.8" font-family="Times,serif" font-size="14.00">4</text>
</g>
<!-- v_f -->
<g id="node17" class="node">
<title>v_f</title>
<polygon fill="chartreuse" stroke="black" points="763.5,-58.5 763.5,-94.5 817.5,-94.5 817.5,-58.5 763.5,-58.5"/>
<text text-anchor="middle" x="790.5" y="-72.8" font-family="Times,serif" font-size="14.00">5</text>
</g>
<!-- v_g -->
<g id="node18" class="node">
<title>v_g</title>
<polygon fill="white" stroke="black" points="818.5,-58.5 818.5,-94.5 872.5,-94.5 872.5,-58.5 818.5,-58.5"/>
<text text-anchor="middle" x="845.5" y="-72.8" font-family="Times,serif" font-size="14.00">6</text>
</g>
<!-- v_h -->
<g id="node19" class="node">
<title>v_h</title>
<polygon fill="white" stroke="black" points="873.5,-58.5 873.5,-94.5 927.5,-94.5 927.5,-58.5 873.5,-58.5"/>
<text text-anchor="middle" x="900.5" y="-72.8" font-family="Times,serif" font-size="14.00">7</text>
</g>
</g>
</svg>
