<svg xmlns="http://www.w3.org/2000/svg" xmlns:xlink="http://www.w3.org/1999/xlink" width="684" height="256" viewBox="0 0 513.3 191.8"><g id="graph0" class="graph" transform="scale(1 1) rotate(0) translate(14.4 177.4)"><polygon fill="#fff" stroke="transparent" points="-14.4 14.4 -14.4 -177.4 498.9 -177.4 498.9 14.4 -14.4 14.4"/><g id="node1" class="node"><title>mulle__set</title><polygon fill="#00f" stroke="transparent" points="11.5 -135 11.5 -156 80.5 -156 80.5 -135 11.5 -135"/><polygon fill="none" stroke="#000" points="11.5 -135 11.5 -156 80.5 -156 80.5 -135 11.5 -135"/><text x="15.5" y="-141.8" fill="#fff" font-family="Times,serif" font-size="14" text-anchor="start">mulle__set</text><polygon fill="#000" stroke="transparent" points="11.5 -112 11.5 -133 61.5 -133 61.5 -112 11.5 -112"/><polygon fill="none" stroke="#000" points="11.5 -112 11.5 -133 61.5 -133 61.5 -112 11.5 -112"/><text x="21" y="-118.8" fill="#fff" font-family="Times,serif" font-size="14" text-anchor="start">count</text><polygon fill="none" stroke="#000" points="63.5 -112 63.5 -133 80.5 -133 80.5 -112 63.5 -112"/><text x="68.5" y="-118.8" font-family="Times,serif" font-size="14" text-anchor="start">3</text><polygon fill="#000" stroke="transparent" points="11.5 -89 11.5 -110 61.5 -110 61.5 -89 11.5 -89"/><polygon fill="none" stroke="#000" points="11.5 -89 11.5 -110 61.5 -110 61.5 -89 11.5 -89"/><text x="25.5" y="-95.8" fill="#fff" font-family="Times,serif" font-size="14" text-anchor="start">size</text><polygon fill="none" stroke="#000" points="63.5 -89 63.5 -110 80.5 -110 80.5 -89 63.5 -89"/><text x="68.5" y="-95.8" font-family="Times,serif" font-size="14" text-anchor="start">8</text><polygon fill="#000" stroke="transparent" points="11.5 -66 11.5 -87 61.5 -87 61.5 -66 11.5 -66"/><polygon fill="none" stroke="#000" points="11.5 -66 11.5 -87 61.5 -87 61.5 -66 11.5 -66"/><text x="16.5" y="-72.8" fill="#fff" font-family="Times,serif" font-size="14" text-anchor="start">storage</text><polygon fill="none" stroke="#000" points="63.5 -66 63.5 -87 80.5 -87 80.5 -66 63.5 -66"/><polygon fill="none" stroke="#000" points="8 -63 8 -159 83 -159 83 -63 8 -63"/></g><g id="node2" class="node"><title>k_a</title><polygon fill="#ff0" stroke="#000" points="45.5 -.5 45.5 -36.5 99.5 -36.5 99.5 -.5 45.5 -.5"/><text x="72.5" y="-14.8" font-family="Times,serif" font-size="14" text-anchor="middle">0</text></g><g id="edge1" class="edge"><title>mulle__set:c-&gt;k_a</title><path fill="none" stroke="#000" d="M72.5,-57.53C72.5,-54.12 72.5,-50.46 72.5,-46.81"/><ellipse cx="72.5" cy="-61.84" fill="#000" stroke="#000" rx="4" ry="4"/><polygon fill="#000" stroke="#000" points="72.5 -36.76 77 -46.76 72.5 -41.76 72.5 -46.76 72.5 -46.76 72.5 -46.76 72.5 -41.76 68 -46.76 72.5 -36.76 72.5 -36.76"/></g><g id="node3" class="node"><title>k_b</title><polygon fill="#d3d3d3" stroke="#000" points="100.5 -.5 100.5 -36.5 154.5 -36.5 154.5 -.5 100.5 -.5"/><text x="127.5" y="-14.8" font-family="Times,serif" font-size="14" text-anchor="middle">1</text></g><g id="node4" class="node"><title>k_c</title><polygon fill="#ff0" stroke="#000" points="155.5 -.5 155.5 -36.5 209.5 -36.5 209.5 -.5 155.5 -.5"/><text x="182.5" y="-14.8" font-family="Times,serif" font-size="14" text-anchor="middle">2</text></g><g id="node5" class="node"><title>k_d</title><polygon fill="#d3d3d3" stroke="#000" points="210.5 -.5 210.5 -36.5 264.5 -36.5 264.5 -.5 210.5 -.5"/><text x="237.5" y="-14.8" font-family="Times,serif" font-size="14" text-anchor="middle">3</text></g><g id="node6" class="node"><title>k_e</title><polygon fill="#d3d3d3" stroke="#000" points="265.5 -.5 265.5 -36.5 319.5 -36.5 319.5 -.5 265.5 -.5"/><text x="292.5" y="-14.8" font-family="Times,serif" font-size="14" text-anchor="middle">4</text></g><g id="node7" class="node"><title>k_f</title><polygon fill="#7fff00" stroke="#000" points="320.5 -.5 320.5 -36.5 374.5 -36.5 374.5 -.5 320.5 -.5"/><text x="347.5" y="-14.8" font-family="Times,serif" font-size="14" text-anchor="middle">5</text></g><g id="node8" class="node"><title>k_g</title><polygon fill="#d3d3d3" stroke="#000" points="375.5 -.5 375.5 -36.5 429.5 -36.5 429.5 -.5 375.5 -.5"/><text x="402.5" y="-14.8" font-family="Times,serif" font-size="14" text-anchor="middle">6</text></g><g id="node9" class="node"><title>k_h</title><polygon fill="#d3d3d3" stroke="#000" points="430.5 -.5 430.5 -36.5 484.5 -36.5 484.5 -.5 430.5 -.5"/><text x="457.5" y="-14.8" font-family="Times,serif" font-size="14" text-anchor="middle">7</text></g></g></svg>