<?xml version="1.0" encoding="UTF-8" standalone="no"?>
<!DOCTYPE svg PUBLIC "-//W3C//DTD SVG 1.1//EN"
 "http://www.w3.org/Graphics/SVG/1.1/DTD/svg11.dtd">
<!-- Generated by graphviz version 2.43.0 (0)
 -->
<!-- Title: G Pages: 1 -->
<svg width="469pt" height="653pt"
 viewBox="0.00 0.00 468.50 653.00" xmlns="http://www.w3.org/2000/svg" xmlns:xlink="http://www.w3.org/1999/xlink">
<g id="graph0" class="graph" transform="scale(1 1) rotate(0) translate(4 649)">
<title>G</title>
<polygon fill="white" stroke="transparent" points="-4,4 -4,-649 464.5,-649 464.5,4 -4,4"/>
<!-- mulle&#45;set.h -->
<g id="node1" class="node">
<title>mulle&#45;set.h</title>
<polygon fill="none" stroke="black" points="92.5,-645 2.5,-645 2.5,-609 98.5,-609 98.5,-639 92.5,-645"/>
<polyline fill="none" stroke="black" points="92.5,-645 92.5,-639 "/>
<polyline fill="none" stroke="black" points="98.5,-639 92.5,-639 "/>
<text text-anchor="middle" x="50.5" y="-623.3" font-family="Times,serif" font-size="14.00">mulle&#45;set.h</text>
</g>
<!-- mulle&#45;&#45;set.h -->
<g id="node2" class="node">
<title>mulle&#45;&#45;set.h</title>
<polygon fill="none" stroke="black" points="95,-558 0,-558 0,-522 101,-522 101,-552 95,-558"/>
<polyline fill="none" stroke="black" points="95,-558 95,-552 "/>
<polyline fill="none" stroke="black" points="101,-552 95,-552 "/>
<text text-anchor="middle" x="50.5" y="-536.3" font-family="Times,serif" font-size="14.00">mulle&#45;&#45;set.h</text>
</g>
<!-- mulle&#45;set.h&#45;&gt;mulle&#45;&#45;set.h -->
<g id="edge1" class="edge">
<title>mulle&#45;set.h&#45;&gt;mulle&#45;&#45;set.h</title>
<path fill="none" stroke="black" d="M50.5,-608.8C50.5,-597.16 50.5,-581.55 50.5,-568.24"/>
<polygon fill="black" stroke="black" points="54,-568.18 50.5,-558.18 47,-568.18 54,-568.18"/>
<text text-anchor="middle" x="85" y="-579.8" font-family="Times,serif" font-size="14.00"> #include</text>
</g>
<!-- mulle&#45;container&#45;callback.h -->
<g id="node3" class="node">
<title>mulle&#45;container&#45;callback.h</title>
<polygon fill="none" stroke="black" points="226.5,-123 28.5,-123 28.5,-87 232.5,-87 232.5,-117 226.5,-123"/>
<polyline fill="none" stroke="black" points="226.5,-123 226.5,-117 "/>
<polyline fill="none" stroke="black" points="232.5,-117 226.5,-117 "/>
<text text-anchor="middle" x="130.5" y="-101.3" font-family="Times,serif" font-size="14.00">mulle&#45;container&#45;callback.h</text>
</g>
<!-- mulle&#45;&#45;set.h&#45;&gt;mulle&#45;container&#45;callback.h -->
<g id="edge2" class="edge">
<title>mulle&#45;&#45;set.h&#45;&gt;mulle&#45;container&#45;callback.h</title>
<path fill="none" stroke="black" d="M39.18,-521.89C29.29,-505.27 16.5,-478.95 16.5,-454 16.5,-454 16.5,-454 16.5,-191 16.5,-161.39 41.52,-140.87 68.12,-127.42"/>
<polygon fill="black" stroke="black" points="69.64,-130.57 77.17,-123.12 66.64,-124.25 69.64,-130.57"/>
<text text-anchor="middle" x="51" y="-318.8" font-family="Times,serif" font-size="14.00"> #include</text>
</g>
<!-- mulle&#45;&#45;pointerset.h -->
<g id="node5" class="node">
<title>mulle&#45;&#45;pointerset.h</title>
<polygon fill="none" stroke="black" points="190.5,-471 44.5,-471 44.5,-435 196.5,-435 196.5,-465 190.5,-471"/>
<polyline fill="none" stroke="black" points="190.5,-471 190.5,-465 "/>
<polyline fill="none" stroke="black" points="196.5,-465 190.5,-465 "/>
<text text-anchor="middle" x="120.5" y="-449.3" font-family="Times,serif" font-size="14.00">mulle&#45;&#45;pointerset.h</text>
</g>
<!-- mulle&#45;&#45;set.h&#45;&gt;mulle&#45;&#45;pointerset.h -->
<g id="edge4" class="edge">
<title>mulle&#45;&#45;set.h&#45;&gt;mulle&#45;&#45;pointerset.h</title>
<path fill="none" stroke="black" d="M64.67,-521.8C74.72,-509.59 88.39,-492.99 99.68,-479.28"/>
<polygon fill="black" stroke="black" points="102.7,-481.12 106.36,-471.18 97.3,-476.67 102.7,-481.12"/>
<text text-anchor="middle" x="124" y="-492.8" font-family="Times,serif" font-size="14.00"> #include</text>
</g>
<!-- mulle&#45;container&#45;operation.h -->
<g id="node4" class="node">
<title>mulle&#45;container&#45;operation.h</title>
<polygon fill="none" stroke="black" points="342,-36 133,-36 133,0 348,0 348,-30 342,-36"/>
<polyline fill="none" stroke="black" points="342,-36 342,-30 "/>
<polyline fill="none" stroke="black" points="348,-30 342,-30 "/>
<text text-anchor="middle" x="240.5" y="-14.3" font-family="Times,serif" font-size="14.00">mulle&#45;container&#45;operation.h</text>
</g>
<!-- mulle&#45;container&#45;callback.h&#45;&gt;mulle&#45;container&#45;operation.h -->
<g id="edge3" class="edge">
<title>mulle&#45;container&#45;callback.h&#45;&gt;mulle&#45;container&#45;operation.h</title>
<path fill="none" stroke="black" d="M76.79,-86.92C59.14,-78.49 46.54,-67.26 57.5,-54 66.94,-42.58 93.08,-34.85 122.74,-29.63"/>
<polygon fill="black" stroke="black" points="123.62,-33.03 132.92,-27.96 122.48,-26.13 123.62,-33.03"/>
<text text-anchor="middle" x="92" y="-57.8" font-family="Times,serif" font-size="14.00"> #include</text>
</g>
<!-- mulle&#45;container&#45;callback.h&#45;&gt;mulle&#45;container&#45;operation.h -->
<g id="edge9" class="edge">
<title>mulle&#45;container&#45;callback.h&#45;&gt;mulle&#45;container&#45;operation.h</title>
<path fill="none" stroke="black" d="M133.35,-86.76C135.92,-76.1 140.72,-62.82 149.5,-54 154.59,-48.89 160.51,-44.51 166.84,-40.76"/>
<polygon fill="black" stroke="black" points="168.52,-43.83 175.69,-36.02 165.22,-37.66 168.52,-43.83"/>
<text text-anchor="middle" x="184" y="-57.8" font-family="Times,serif" font-size="14.00"> #include</text>
</g>
<!-- mulle&#45;container&#45;callback.h&#45;&gt;mulle&#45;container&#45;operation.h -->
<g id="edge14" class="edge">
<title>mulle&#45;container&#45;callback.h&#45;&gt;mulle&#45;container&#45;operation.h</title>
<path fill="none" stroke="black" d="M191.97,-86.8C201.64,-82.15 210.93,-76.31 218.5,-69 225.07,-62.66 229.82,-54.01 233.17,-45.69"/>
<polygon fill="black" stroke="black" points="236.48,-46.83 236.5,-36.23 229.88,-44.5 236.48,-46.83"/>
<text text-anchor="middle" x="263" y="-57.8" font-family="Times,serif" font-size="14.00"> #include</text>
</g>
<!-- mulle&#45;&#45;pointerset&#45;generic.h -->
<g id="node6" class="node">
<title>mulle&#45;&#45;pointerset&#45;generic.h</title>
<polygon fill="none" stroke="black" points="401.5,-384 197.5,-384 197.5,-348 407.5,-348 407.5,-378 401.5,-384"/>
<polyline fill="none" stroke="black" points="401.5,-384 401.5,-378 "/>
<polyline fill="none" stroke="black" points="407.5,-378 401.5,-378 "/>
<text text-anchor="middle" x="302.5" y="-362.3" font-family="Times,serif" font-size="14.00">mulle&#45;&#45;pointerset&#45;generic.h</text>
</g>
<!-- mulle&#45;&#45;pointerset.h&#45;&gt;mulle&#45;&#45;pointerset&#45;generic.h -->
<g id="edge5" class="edge">
<title>mulle&#45;&#45;pointerset.h&#45;&gt;mulle&#45;&#45;pointerset&#45;generic.h</title>
<path fill="none" stroke="black" d="M157.33,-434.8C186.04,-421.39 226.06,-402.7 256.81,-388.34"/>
<polygon fill="black" stroke="black" points="258.46,-391.43 266.04,-384.03 255.49,-385.09 258.46,-391.43"/>
<text text-anchor="middle" x="256" y="-405.8" font-family="Times,serif" font-size="14.00"> #include</text>
</g>
<!-- mulle&#45;&#45;pointerset&#45;struct.h -->
<g id="node7" class="node">
<title>mulle&#45;&#45;pointerset&#45;struct.h</title>
<polygon fill="none" stroke="black" points="370.5,-297 176.5,-297 176.5,-261 376.5,-261 376.5,-291 370.5,-297"/>
<polyline fill="none" stroke="black" points="370.5,-297 370.5,-291 "/>
<polyline fill="none" stroke="black" points="376.5,-291 370.5,-291 "/>
<text text-anchor="middle" x="276.5" y="-275.3" font-family="Times,serif" font-size="14.00">mulle&#45;&#45;pointerset&#45;struct.h</text>
</g>
<!-- mulle&#45;&#45;pointerset.h&#45;&gt;mulle&#45;&#45;pointerset&#45;struct.h -->
<g id="edge11" class="edge">
<title>mulle&#45;&#45;pointerset.h&#45;&gt;mulle&#45;&#45;pointerset&#45;struct.h</title>
<path fill="none" stroke="black" d="M114.95,-434.91C108.91,-412.87 102.25,-374.26 119.5,-348 134.1,-325.76 157.7,-310.76 182.22,-300.66"/>
<polygon fill="black" stroke="black" points="183.57,-303.89 191.64,-297.02 181.05,-297.36 183.57,-303.89"/>
<text text-anchor="middle" x="154" y="-362.3" font-family="Times,serif" font-size="14.00"> #include</text>
</g>
<!-- mulle&#45;&#45;pointerset&#45;generic.h&#45;&gt;mulle&#45;&#45;pointerset&#45;struct.h -->
<g id="edge6" class="edge">
<title>mulle&#45;&#45;pointerset&#45;generic.h&#45;&gt;mulle&#45;&#45;pointerset&#45;struct.h</title>
<path fill="none" stroke="black" d="M297.24,-347.8C293.64,-336.05 288.81,-320.24 284.71,-306.84"/>
<polygon fill="black" stroke="black" points="288.03,-305.71 281.75,-297.18 281.33,-307.76 288.03,-305.71"/>
<text text-anchor="middle" x="325" y="-318.8" font-family="Times,serif" font-size="14.00"> #include</text>
</g>
<!-- mulle&#45;&#45;pointerset&#45;struct.h&#45;&gt;mulle&#45;container&#45;operation.h -->
<g id="edge10" class="edge">
<title>mulle&#45;&#45;pointerset&#45;struct.h&#45;&gt;mulle&#45;container&#45;operation.h</title>
<path fill="none" stroke="black" d="M296.7,-260.93C301.49,-255.72 305.94,-249.6 308.5,-243 310.81,-237.04 327.16,-96.32 301.5,-54 298.8,-49.55 295.31,-45.61 291.36,-42.13"/>
<polygon fill="black" stroke="black" points="293.37,-39.27 283.29,-36.01 289.14,-44.84 293.37,-39.27"/>
<text text-anchor="middle" x="350" y="-144.8" font-family="Times,serif" font-size="14.00"> #include</text>
</g>
<!-- mulle&#45;&#45;pointerset&#45;struct.h&#45;&gt;mulle&#45;container&#45;operation.h -->
<g id="edge15" class="edge">
<title>mulle&#45;&#45;pointerset&#45;struct.h&#45;&gt;mulle&#45;container&#45;operation.h</title>
<path fill="none" stroke="black" d="M308.07,-260.96C347.13,-237.37 406.42,-191.85 388.5,-141 372.01,-94.19 357.78,-84.33 318.5,-54 312.14,-49.09 304.98,-44.69 297.65,-40.81"/>
<polygon fill="black" stroke="black" points="298.82,-37.48 288.31,-36.16 295.7,-43.75 298.82,-37.48"/>
<text text-anchor="middle" x="426" y="-144.8" font-family="Times,serif" font-size="14.00"> #include</text>
</g>
<!-- mulle&#45;container&#45;callback&#45;global.h -->
<g id="node8" class="node">
<title>mulle&#45;container&#45;callback&#45;global.h</title>
<polygon fill="none" stroke="black" points="290.5,-210 44.5,-210 44.5,-174 296.5,-174 296.5,-204 290.5,-210"/>
<polyline fill="none" stroke="black" points="290.5,-210 290.5,-204 "/>
<polyline fill="none" stroke="black" points="296.5,-204 290.5,-204 "/>
<text text-anchor="middle" x="170.5" y="-188.3" font-family="Times,serif" font-size="14.00">mulle&#45;container&#45;callback&#45;global.h</text>
</g>
<!-- mulle&#45;&#45;pointerset&#45;struct.h&#45;&gt;mulle&#45;container&#45;callback&#45;global.h -->
<g id="edge7" class="edge">
<title>mulle&#45;&#45;pointerset&#45;struct.h&#45;&gt;mulle&#45;container&#45;callback&#45;global.h</title>
<path fill="none" stroke="black" d="M185.2,-260.96C168.63,-256.04 154.87,-250.05 149.5,-243 144.05,-235.85 145.59,-227.08 149.66,-218.89"/>
<polygon fill="black" stroke="black" points="152.65,-220.7 154.86,-210.34 146.67,-217.07 152.65,-220.7"/>
<text text-anchor="middle" x="184" y="-231.8" font-family="Times,serif" font-size="14.00"> #include</text>
</g>
<!-- mulle&#45;&#45;pointerset&#45;struct.h&#45;&gt;mulle&#45;container&#45;callback&#45;global.h -->
<g id="edge12" class="edge">
<title>mulle&#45;&#45;pointerset&#45;struct.h&#45;&gt;mulle&#45;container&#45;callback&#45;global.h</title>
<path fill="none" stroke="black" d="M257.5,-260.93C246.33,-251.08 231.83,-238.58 218.5,-228 213.52,-224.05 208.15,-219.96 202.87,-216.05"/>
<polygon fill="black" stroke="black" points="204.85,-213.16 194.71,-210.07 200.71,-218.8 204.85,-213.16"/>
<text text-anchor="middle" x="270" y="-231.8" font-family="Times,serif" font-size="14.00"> #include</text>
</g>
<!-- mulle&#45;container&#45;callback&#45;global.h&#45;&gt;mulle&#45;container&#45;callback.h -->
<g id="edge8" class="edge">
<title>mulle&#45;container&#45;callback&#45;global.h&#45;&gt;mulle&#45;container&#45;callback.h</title>
<path fill="none" stroke="black" d="M115.54,-173.99C107.99,-169.34 101.21,-163.44 96.5,-156 91.28,-147.75 94.34,-138.9 100.35,-130.97"/>
<polygon fill="black" stroke="black" points="103.07,-133.18 107.15,-123.4 97.86,-128.5 103.07,-133.18"/>
<text text-anchor="middle" x="131" y="-144.8" font-family="Times,serif" font-size="14.00"> #include</text>
</g>
<!-- mulle&#45;container&#45;callback&#45;global.h&#45;&gt;mulle&#45;container&#45;callback.h -->
<g id="edge13" class="edge">
<title>mulle&#45;container&#45;callback&#45;global.h&#45;&gt;mulle&#45;container&#45;callback.h</title>
<path fill="none" stroke="black" d="M171.59,-173.57C171.53,-163.59 170.28,-151.09 165.5,-141 163.86,-137.53 161.72,-134.21 159.32,-131.09"/>
<polygon fill="black" stroke="black" points="161.72,-128.52 152.48,-123.33 156.47,-133.15 161.72,-128.52"/>
<text text-anchor="middle" x="204" y="-144.8" font-family="Times,serif" font-size="14.00"> #include</text>
</g>
</g>
</svg>
