<svg xmlns="http://www.w3.org/2000/svg" xmlns:xlink="http://www.w3.org/1999/xlink" width="959pt" height="250pt" viewBox="0 0 958.8 249.8"><g id="graph0" class="graph" transform="scale(1 1) rotate(0) translate(14.4 235.4)"><polygon fill="#fff" stroke="transparent" points="-14.4 14.4 -14.4 -235.4 944.4 -235.4 944.4 14.4 -14.4 14.4"/><g id="node1" class="node"><title>mulle__map</title><polygon fill="#00f" stroke="transparent" points="11 -193 11 -214 89 -214 89 -193 11 -193"/><polygon fill="none" stroke="#000" points="11 -193 11 -214 89 -214 89 -193 11 -193"/><text x="15" y="-199.8" fill="#fff" font-family="Times,serif" font-size="14" text-anchor="start">mulle__map</text><polygon fill="#000" stroke="transparent" points="11 -170 11 -191 65 -191 65 -170 11 -170"/><polygon fill="none" stroke="#000" points="11 -170 11 -191 65 -191 65 -170 11 -170"/><text x="22.5" y="-176.8" fill="#fff" font-family="Times,serif" font-size="14" text-anchor="start">count</text><polygon fill="none" stroke="#000" points="67 -170 67 -191 89 -191 89 -170 67 -170"/><text x="74.5" y="-176.8" font-family="Times,serif" font-size="14" text-anchor="start">3</text><polygon fill="#000" stroke="transparent" points="11 -147 11 -168 65 -168 65 -147 11 -147"/><polygon fill="none" stroke="#000" points="11 -147 11 -168 65 -168 65 -147 11 -147"/><text x="27" y="-153.8" fill="#fff" font-family="Times,serif" font-size="14" text-anchor="start">size</text><polygon fill="none" stroke="#000" points="67 -147 67 -168 89 -168 89 -147 67 -147"/><text x="74.5" y="-153.8" font-family="Times,serif" font-size="14" text-anchor="start">8</text><polygon fill="#000" stroke="transparent" points="11 -124 11 -145 65 -145 65 -124 11 -124"/><polygon fill="none" stroke="#000" points="11 -124 11 -145 65 -145 65 -124 11 -124"/><text x="18" y="-130.8" fill="#fff" font-family="Times,serif" font-size="14" text-anchor="start">storage</text><polygon fill="none" stroke="#000" points="67 -124 67 -145 89 -145 89 -124 67 -124"/><polygon fill="none" stroke="#000" points="8 -121 8 -217 92 -217 92 -121 8 -121"/></g><g id="node2" class="node"><title>k_a</title><polygon fill="#ff0" stroke="#000" points="51 -58.5 51 -94.5 105 -94.5 105 -58.5 51 -58.5"/><text x="78" y="-72.8" font-family="Times,serif" font-size="14" text-anchor="middle">0</text></g><g id="edge3" class="edge"><title>mulle__map:c-&gt;k_a</title><path fill="none" stroke="#000" d="M78,-115.53C78,-112.12 78,-108.46 78,-104.81"/><ellipse cx="78" cy="-119.84" fill="#000" stroke="#000" rx="4" ry="4"/><polygon fill="#000" stroke="#000" points="78 -94.76 82.5 -104.76 78 -99.76 78 -104.76 78 -104.76 78 -104.76 78 -99.76 73.5 -104.76 78 -94.76 78 -94.76"/></g><g id="node18" class="node"><title>KEYS</title><text x="78" y="-14.3" font-family="Times,serif" font-size="14" text-anchor="middle">KEYS</text></g><g id="node3" class="node"><title>k_b</title><polygon fill="#d3d3d3" stroke="#000" points="106 -58.5 106 -94.5 160 -94.5 160 -58.5 106 -58.5"/><text x="133" y="-72.8" font-family="Times,serif" font-size="14" text-anchor="middle">1</text></g><g id="node4" class="node"><title>k_c</title><polygon fill="#ff0" stroke="#000" points="161 -58.5 161 -94.5 215 -94.5 215 -58.5 161 -58.5"/><text x="188" y="-72.8" font-family="Times,serif" font-size="14" text-anchor="middle">2</text></g><g id="node5" class="node"><title>k_d</title><polygon fill="#d3d3d3" stroke="#000" points="216 -58.5 216 -94.5 270 -94.5 270 -58.5 216 -58.5"/><text x="243" y="-72.8" font-family="Times,serif" font-size="14" text-anchor="middle">3</text></g><g id="node6" class="node"><title>k_e</title><polygon fill="#d3d3d3" stroke="#000" points="271 -58.5 271 -94.5 325 -94.5 325 -58.5 271 -58.5"/><text x="298" y="-72.8" font-family="Times,serif" font-size="14" text-anchor="middle">4</text></g><g id="node7" class="node"><title>k_f</title><polygon fill="#7fff00" stroke="#000" points="326 -58.5 326 -94.5 380 -94.5 380 -58.5 326 -58.5"/><text x="353" y="-72.8" font-family="Times,serif" font-size="14" text-anchor="middle">5</text></g><g id="node8" class="node"><title>k_g</title><polygon fill="#d3d3d3" stroke="#000" points="381 -58.5 381 -94.5 435 -94.5 435 -58.5 381 -58.5"/><text x="408" y="-72.8" font-family="Times,serif" font-size="14" text-anchor="middle">6</text></g><g id="node9" class="node"><title>k_h</title><polygon fill="#d3d3d3" stroke="#000" points="436 -58.5 436 -94.5 490 -94.5 490 -58.5 436 -58.5"/><text x="463" y="-72.8" font-family="Times,serif" font-size="14" text-anchor="middle">7</text></g><g id="node10" class="node"><title>v_a</title><polygon fill="#ff0" stroke="#000" points="491 -58.5 491 -94.5 545 -94.5 545 -58.5 491 -58.5"/><text x="518" y="-72.8" font-family="Times,serif" font-size="14" text-anchor="middle">0</text></g><g id="node19" class="node"><title>VALUES</title><text x="518" y="-14.3" font-family="Times,serif" font-size="14" text-anchor="middle">VALUES</text></g><g id="node11" class="node"><title>v_b</title><polygon fill="#fff" stroke="#000" points="546 -58.5 546 -94.5 600 -94.5 600 -58.5 546 -58.5"/><text x="573" y="-72.8" font-family="Times,serif" font-size="14" text-anchor="middle">1</text></g><g id="node12" class="node"><title>v_c</title><polygon fill="#ff0" stroke="#000" points="601 -58.5 601 -94.5 655 -94.5 655 -58.5 601 -58.5"/><text x="628" y="-72.8" font-family="Times,serif" font-size="14" text-anchor="middle">2</text></g><g id="node13" class="node"><title>v_d</title><polygon fill="#fff" stroke="#000" points="656 -58.5 656 -94.5 710 -94.5 710 -58.5 656 -58.5"/><text x="683" y="-72.8" font-family="Times,serif" font-size="14" text-anchor="middle">3</text></g><g id="node14" class="node"><title>v_e</title><polygon fill="#fff" stroke="#000" points="711 -58.5 711 -94.5 765 -94.5 765 -58.5 711 -58.5"/><text x="738" y="-72.8" font-family="Times,serif" font-size="14" text-anchor="middle">4</text></g><g id="node15" class="node"><title>v_f</title><polygon fill="#7fff00" stroke="#000" points="766 -58.5 766 -94.5 820 -94.5 820 -58.5 766 -58.5"/><text x="793" y="-72.8" font-family="Times,serif" font-size="14" text-anchor="middle">5</text></g><g id="node16" class="node"><title>v_g</title><polygon fill="#fff" stroke="#000" points="821 -58.5 821 -94.5 875 -94.5 875 -58.5 821 -58.5"/><text x="848" y="-72.8" font-family="Times,serif" font-size="14" text-anchor="middle">6</text></g><g id="node17" class="node"><title>v_h</title><polygon fill="#fff" stroke="#000" points="876 -58.5 876 -94.5 930 -94.5 930 -58.5 876 -58.5"/><text x="903" y="-72.8" font-family="Times,serif" font-size="14" text-anchor="middle">7</text></g></g></svg>