<?xml version="1.0" encoding="UTF-8" standalone="no"?>
<!DOCTYPE svg PUBLIC "-//W3C//DTD SVG 1.1//EN"
 "http://www.w3.org/Graphics/SVG/1.1/DTD/svg11.dtd">
<!-- Generated by graphviz version 2.44.0 (20200408.0750)
 -->
<!-- Pages: 1 -->
<svg width="959pt" height="250pt"
 viewBox="0.00 0.00 958.80 249.80" xmlns="http://www.w3.org/2000/svg" xmlns:xlink="http://www.w3.org/1999/xlink">
<g id="graph0" class="graph" transform="scale(1 1) rotate(0) translate(14.4 235.4)">
<polygon fill="white" stroke="transparent" points="-14.4,14.4 -14.4,-235.4 944.4,-235.4 944.4,14.4 -14.4,14.4"/>
<!-- mulle__map -->
<g id="node1" class="node">
<title>mulle__map</title>
<polygon fill="blue" stroke="transparent" points="11,-193 11,-214 89,-214 89,-193 11,-193"/>
<polygon fill="none" stroke="black" points="11,-193 11,-214 89,-214 89,-193 11,-193"/>
<text text-anchor="start" x="15" y="-199.8" font-family="Times,serif" font-size="14.00" fill="white">mulle__map</text>
<polygon fill="black" stroke="transparent" points="11,-170 11,-191 65,-191 65,-170 11,-170"/>
<polygon fill="none" stroke="black" points="11,-170 11,-191 65,-191 65,-170 11,-170"/>
<text text-anchor="start" x="22.5" y="-176.8" font-family="Times,serif" font-size="14.00" fill="white">count</text>
<polygon fill="none" stroke="black" points="67,-170 67,-191 89,-191 89,-170 67,-170"/>
<text text-anchor="start" x="74.5" y="-176.8" font-family="Times,serif" font-size="14.00">3</text>
<polygon fill="black" stroke="transparent" points="11,-147 11,-168 65,-168 65,-147 11,-147"/>
<polygon fill="none" stroke="black" points="11,-147 11,-168 65,-168 65,-147 11,-147"/>
<text text-anchor="start" x="27" y="-153.8" font-family="Times,serif" font-size="14.00" fill="white">size</text>
<polygon fill="none" stroke="black" points="67,-147 67,-168 89,-168 89,-147 67,-147"/>
<text text-anchor="start" x="74.5" y="-153.8" font-family="Times,serif" font-size="14.00">8</text>
<polygon fill="black" stroke="transparent" points="11,-124 11,-145 65,-145 65,-124 11,-124"/>
<polygon fill="none" stroke="black" points="11,-124 11,-145 65,-145 65,-124 11,-124"/>
<text text-anchor="start" x="18" y="-130.8" font-family="Times,serif" font-size="14.00" fill="white">storage</text>
<polygon fill="none" stroke="black" points="67,-124 67,-145 89,-145 89,-124 67,-124"/>
<polygon fill="none" stroke="black" points="8,-121 8,-217 92,-217 92,-121 8,-121"/>
</g>
<!-- k_a -->
<g id="node2" class="node">
<title>k_a</title>
<polygon fill="yellow" stroke="black" points="51,-58.5 51,-94.5 105,-94.5 105,-58.5 51,-58.5"/>
<text text-anchor="middle" x="78" y="-72.8" font-family="Times,serif" font-size="14.00">0</text>
</g>
<!-- mulle__map&#45;&gt;k_a -->
<g id="edge3" class="edge">
<title>mulle__map:c&#45;&gt;k_a</title>
<path fill="none" stroke="black" d="M78,-115.53C78,-112.12 78,-108.46 78,-104.81"/>
<ellipse fill="black" stroke="black" cx="78" cy="-119.84" rx="4" ry="4"/>
<polygon fill="black" stroke="black" points="78,-94.76 82.5,-104.76 78,-99.76 78,-104.76 78,-104.76 78,-104.76 78,-99.76 73.5,-104.76 78,-94.76 78,-94.76"/>
</g>
<!-- KEYS -->
<g id="node18" class="node">
<title>KEYS</title>
<text text-anchor="middle" x="78" y="-14.3" font-family="Times,serif" font-size="14.00">KEYS</text>
</g>
<!-- k_a&#45;&gt;KEYS -->
<!-- k_b -->
<g id="node3" class="node">
<title>k_b</title>
<polygon fill="lightgray" stroke="black" points="106,-58.5 106,-94.5 160,-94.5 160,-58.5 106,-58.5"/>
<text text-anchor="middle" x="133" y="-72.8" font-family="Times,serif" font-size="14.00">1</text>
</g>
<!-- k_c -->
<g id="node4" class="node">
<title>k_c</title>
<polygon fill="yellow" stroke="black" points="161,-58.5 161,-94.5 215,-94.5 215,-58.5 161,-58.5"/>
<text text-anchor="middle" x="188" y="-72.8" font-family="Times,serif" font-size="14.00">2</text>
</g>
<!-- k_d -->
<g id="node5" class="node">
<title>k_d</title>
<polygon fill="lightgray" stroke="black" points="216,-58.5 216,-94.5 270,-94.5 270,-58.5 216,-58.5"/>
<text text-anchor="middle" x="243" y="-72.8" font-family="Times,serif" font-size="14.00">3</text>
</g>
<!-- k_e -->
<g id="node6" class="node">
<title>k_e</title>
<polygon fill="lightgray" stroke="black" points="271,-58.5 271,-94.5 325,-94.5 325,-58.5 271,-58.5"/>
<text text-anchor="middle" x="298" y="-72.8" font-family="Times,serif" font-size="14.00">4</text>
</g>
<!-- k_f -->
<g id="node7" class="node">
<title>k_f</title>
<polygon fill="chartreuse" stroke="black" points="326,-58.5 326,-94.5 380,-94.5 380,-58.5 326,-58.5"/>
<text text-anchor="middle" x="353" y="-72.8" font-family="Times,serif" font-size="14.00">5</text>
</g>
<!-- k_g -->
<g id="node8" class="node">
<title>k_g</title>
<polygon fill="lightgray" stroke="black" points="381,-58.5 381,-94.5 435,-94.5 435,-58.5 381,-58.5"/>
<text text-anchor="middle" x="408" y="-72.8" font-family="Times,serif" font-size="14.00">6</text>
</g>
<!-- k_h -->
<g id="node9" class="node">
<title>k_h</title>
<polygon fill="lightgray" stroke="black" points="436,-58.5 436,-94.5 490,-94.5 490,-58.5 436,-58.5"/>
<text text-anchor="middle" x="463" y="-72.8" font-family="Times,serif" font-size="14.00">7</text>
</g>
<!-- v_a -->
<g id="node10" class="node">
<title>v_a</title>
<polygon fill="yellow" stroke="black" points="491,-58.5 491,-94.5 545,-94.5 545,-58.5 491,-58.5"/>
<text text-anchor="middle" x="518" y="-72.8" font-family="Times,serif" font-size="14.00">0</text>
</g>
<!-- VALUES -->
<g id="node19" class="node">
<title>VALUES</title>
<text text-anchor="middle" x="518" y="-14.3" font-family="Times,serif" font-size="14.00">VALUES</text>
</g>
<!-- v_a&#45;&gt;VALUES -->
<!-- v_b -->
<g id="node11" class="node">
<title>v_b</title>
<polygon fill="white" stroke="black" points="546,-58.5 546,-94.5 600,-94.5 600,-58.5 546,-58.5"/>
<text text-anchor="middle" x="573" y="-72.8" font-family="Times,serif" font-size="14.00">1</text>
</g>
<!-- v_c -->
<g id="node12" class="node">
<title>v_c</title>
<polygon fill="yellow" stroke="black" points="601,-58.5 601,-94.5 655,-94.5 655,-58.5 601,-58.5"/>
<text text-anchor="middle" x="628" y="-72.8" font-family="Times,serif" font-size="14.00">2</text>
</g>
<!-- v_d -->
<g id="node13" class="node">
<title>v_d</title>
<polygon fill="white" stroke="black" points="656,-58.5 656,-94.5 710,-94.5 710,-58.5 656,-58.5"/>
<text text-anchor="middle" x="683" y="-72.8" font-family="Times,serif" font-size="14.00">3</text>
</g>
<!-- v_e -->
<g id="node14" class="node">
<title>v_e</title>
<polygon fill="white" stroke="black" points="711,-58.5 711,-94.5 765,-94.5 765,-58.5 711,-58.5"/>
<text text-anchor="middle" x="738" y="-72.8" font-family="Times,serif" font-size="14.00">4</text>
</g>
<!-- v_f -->
<g id="node15" class="node">
<title>v_f</title>
<polygon fill="chartreuse" stroke="black" points="766,-58.5 766,-94.5 820,-94.5 820,-58.5 766,-58.5"/>
<text text-anchor="middle" x="793" y="-72.8" font-family="Times,serif" font-size="14.00">5</text>
</g>
<!-- v_g -->
<g id="node16" class="node">
<title>v_g</title>
<polygon fill="white" stroke="black" points="821,-58.5 821,-94.5 875,-94.5 875,-58.5 821,-58.5"/>
<text text-anchor="middle" x="848" y="-72.8" font-family="Times,serif" font-size="14.00">6</text>
</g>
<!-- v_h -->
<g id="node17" class="node">
<title>v_h</title>
<polygon fill="white" stroke="black" points="876,-58.5 876,-94.5 930,-94.5 930,-58.5 876,-58.5"/>
<text text-anchor="middle" x="903" y="-72.8" font-family="Times,serif" font-size="14.00">7</text>
</g>
</g>
</svg>
