<svg xmlns="http://www.w3.org/2000/svg" xmlns:xlink="http://www.w3.org/1999/xlink" width="541pt" height="256" viewBox="0 0 541.3 191.8"><g id="graph0" class="graph" transform="scale(1 1) rotate(0) translate(14.4 177.4)"><polygon fill="#fff" stroke="transparent" points="-14.4 14.4 -14.4 -177.4 526.9 -177.4 526.9 14.4 -14.4 14.4"/><g id="node1" class="node"><title>mulle__pointerset</title><polygon fill="#00f" stroke="transparent" points="11.5 -135 11.5 -156 118.5 -156 118.5 -135 11.5 -135"/><polygon fill="none" stroke="#000" points="11.5 -135 11.5 -156 118.5 -156 118.5 -135 11.5 -135"/><text x="15.5" y="-141.8" fill="#fff" font-family="Times,serif" font-size="14" text-anchor="start">mulle__pointerset</text><polygon fill="#000" stroke="transparent" points="11.5 -112 11.5 -133 80.5 -133 80.5 -112 11.5 -112"/><polygon fill="none" stroke="#000" points="11.5 -112 11.5 -133 80.5 -133 80.5 -112 11.5 -112"/><text x="30.5" y="-118.8" fill="#fff" font-family="Times,serif" font-size="14" text-anchor="start">count</text><polygon fill="none" stroke="#000" points="82.5 -112 82.5 -133 118.5 -133 118.5 -112 82.5 -112"/><text x="97" y="-118.8" font-family="Times,serif" font-size="14" text-anchor="start">3</text><polygon fill="#000" stroke="transparent" points="11.5 -89 11.5 -110 80.5 -110 80.5 -89 11.5 -89"/><polygon fill="none" stroke="#000" points="11.5 -89 11.5 -110 80.5 -110 80.5 -89 11.5 -89"/><text x="35" y="-95.8" fill="#fff" font-family="Times,serif" font-size="14" text-anchor="start">size</text><polygon fill="none" stroke="#000" points="82.5 -89 82.5 -110 118.5 -110 118.5 -89 82.5 -89"/><text x="97" y="-95.8" font-family="Times,serif" font-size="14" text-anchor="start">8</text><polygon fill="#000" stroke="transparent" points="11.5 -66 11.5 -87 80.5 -87 80.5 -66 11.5 -66"/><polygon fill="none" stroke="#000" points="11.5 -66 11.5 -87 80.5 -87 80.5 -66 11.5 -66"/><text x="26" y="-72.8" fill="#fff" font-family="Times,serif" font-size="14" text-anchor="start">storage</text><polygon fill="none" stroke="#000" points="82.5 -66 82.5 -87 118.5 -87 118.5 -66 82.5 -66"/><polygon fill="none" stroke="#000" points="8 -63 8 -159 121 -159 121 -63 8 -63"/></g><g id="node3" class="node"><title>k_a</title><polygon fill="#ff0" stroke="#000" points="73.5 -.5 73.5 -36.5 127.5 -36.5 127.5 -.5 73.5 -.5"/><text x="100.5" y="-14.8" font-family="Times,serif" font-size="14" text-anchor="middle">0</text></g><g id="edge1" class="edge"><title>mulle__pointerset:c-&gt;k_a</title><path fill="none" stroke="#000" d="M100.5,-57.53C100.5,-54.12 100.5,-50.46 100.5,-46.81"/><ellipse cx="100.5" cy="-61.84" fill="#000" stroke="#000" rx="4" ry="4"/><polygon fill="#000" stroke="#000" points="100.5 -36.76 105 -46.76 100.5 -41.76 100.5 -46.76 100.5 -46.76 100.5 -46.76 100.5 -41.76 96 -46.76 100.5 -36.76 100.5 -36.76"/></g><g id="node2" class="node"><title>global</title><polygon fill="none" stroke="#000" points="130 -93 130 -129 319 -129 319 -93 130 -93"/><text x="159.5" y="-107.3" font-family="Times,serif" font-size="14" text-anchor="middle">notakey</text><polyline fill="none" stroke="#000" points="189 -93 189 -129"/><text x="254" y="-107.3" font-family="Times,serif" font-size="14" text-anchor="middle">mulle_not_a_pointer</text></g><g id="node4" class="node"><title>k_b</title><polygon fill="#d3d3d3" stroke="#000" points="128.5 -.5 128.5 -36.5 182.5 -36.5 182.5 -.5 128.5 -.5"/><text x="155.5" y="-14.8" font-family="Times,serif" font-size="14" text-anchor="middle">1</text></g><g id="node5" class="node"><title>k_c</title><polygon fill="#ff0" stroke="#000" points="183.5 -.5 183.5 -36.5 237.5 -36.5 237.5 -.5 183.5 -.5"/><text x="210.5" y="-14.8" font-family="Times,serif" font-size="14" text-anchor="middle">2</text></g><g id="node6" class="node"><title>k_d</title><polygon fill="#d3d3d3" stroke="#000" points="238.5 -.5 238.5 -36.5 292.5 -36.5 292.5 -.5 238.5 -.5"/><text x="265.5" y="-14.8" font-family="Times,serif" font-size="14" text-anchor="middle">3</text></g><g id="node7" class="node"><title>k_e</title><polygon fill="#d3d3d3" stroke="#000" points="293.5 -.5 293.5 -36.5 347.5 -36.5 347.5 -.5 293.5 -.5"/><text x="320.5" y="-14.8" font-family="Times,serif" font-size="14" text-anchor="middle">4</text></g><g id="node8" class="node"><title>k_f</title><polygon fill="#7fff00" stroke="#000" points="348.5 -.5 348.5 -36.5 402.5 -36.5 402.5 -.5 348.5 -.5"/><text x="375.5" y="-14.8" font-family="Times,serif" font-size="14" text-anchor="middle">5</text></g><g id="node9" class="node"><title>k_g</title><polygon fill="#d3d3d3" stroke="#000" points="403.5 -.5 403.5 -36.5 457.5 -36.5 457.5 -.5 403.5 -.5"/><text x="430.5" y="-14.8" font-family="Times,serif" font-size="14" text-anchor="middle">6</text></g><g id="node10" class="node"><title>k_h</title><polygon fill="#d3d3d3" stroke="#000" points="458.5 -.5 458.5 -36.5 512.5 -36.5 512.5 -.5 458.5 -.5"/><text x="485.5" y="-14.8" font-family="Times,serif" font-size="14" text-anchor="middle">7</text></g></g></svg>