<?xml version="1.0" encoding="UTF-8" standalone="no"?>
<!DOCTYPE svg PUBLIC "-//W3C//DTD SVG 1.1//EN"
 "http://www.w3.org/Graphics/SVG/1.1/DTD/svg11.dtd">
<!-- Generated by graphviz version 2.44.0 (20200408.0750)
 -->
<!-- Pages: 1 -->
<svg width="563pt" height="215pt"
 viewBox="0.00 0.00 562.80 214.80" xmlns="http://www.w3.org/2000/svg" xmlns:xlink="http://www.w3.org/1999/xlink">
<g id="graph0" class="graph" transform="scale(1 1) rotate(0) translate(14.4 200.4)">
<polygon fill="white" stroke="transparent" points="-14.4,14.4 -14.4,-200.4 548.4,-200.4 548.4,14.4 -14.4,14.4"/>
<!-- mulle_pointerpairarray -->
<g id="node1" class="node">
<title>mulle_pointerpairarray</title>
<polygon fill="blue" stroke="transparent" points="11,-157.5 11,-178.5 145,-178.5 145,-157.5 11,-157.5"/>
<polygon fill="none" stroke="black" points="11,-157.5 11,-178.5 145,-178.5 145,-157.5 11,-157.5"/>
<text text-anchor="start" x="15" y="-164.3" font-family="Times,serif" font-size="14.00" fill="white">mulle_pointerpairarray</text>
<polygon fill="black" stroke="transparent" points="11,-134.5 11,-155.5 97,-155.5 97,-134.5 11,-134.5"/>
<polygon fill="none" stroke="black" points="11,-134.5 11,-155.5 97,-155.5 97,-134.5 11,-134.5"/>
<text text-anchor="start" x="30" y="-141.3" font-family="Times,serif" font-size="14.00" fill="white">allocator</text>
<polygon fill="none" stroke="black" points="99,-134.5 99,-155.5 145,-155.5 145,-134.5 99,-134.5"/>
<polygon fill="black" stroke="transparent" points="11,-111.5 11,-132.5 97,-132.5 97,-111.5 11,-111.5"/>
<polygon fill="none" stroke="black" points="11,-111.5 11,-132.5 97,-132.5 97,-111.5 11,-111.5"/>
<text text-anchor="start" x="38.5" y="-118.3" font-family="Times,serif" font-size="14.00" fill="white">count</text>
<polygon fill="none" stroke="black" points="99,-111.5 99,-132.5 145,-132.5 145,-111.5 99,-111.5"/>
<text text-anchor="start" x="118.5" y="-118.3" font-family="Times,serif" font-size="14.00">5</text>
<polygon fill="black" stroke="transparent" points="11,-88.5 11,-109.5 97,-109.5 97,-88.5 11,-88.5"/>
<polygon fill="none" stroke="black" points="11,-88.5 11,-109.5 97,-109.5 97,-88.5 11,-88.5"/>
<text text-anchor="start" x="43" y="-95.3" font-family="Times,serif" font-size="14.00" fill="white">size</text>
<polygon fill="none" stroke="black" points="99,-88.5 99,-109.5 145,-109.5 145,-88.5 99,-88.5"/>
<text text-anchor="start" x="118.5" y="-95.3" font-family="Times,serif" font-size="14.00">8</text>
<polygon fill="black" stroke="transparent" points="11,-65.5 11,-86.5 97,-86.5 97,-65.5 11,-65.5"/>
<polygon fill="none" stroke="black" points="11,-65.5 11,-86.5 97,-86.5 97,-65.5 11,-65.5"/>
<text text-anchor="start" x="34" y="-72.3" font-family="Times,serif" font-size="14.00" fill="white">storage</text>
<polygon fill="none" stroke="black" points="99,-65.5 99,-86.5 145,-86.5 145,-65.5 99,-65.5"/>
<polygon fill="none" stroke="black" points="8,-63 8,-182 148,-182 148,-63 8,-63"/>
</g>
<!-- mulle_allocator -->
<g id="node2" class="node">
<title>mulle_allocator</title>
<polygon fill="blue" stroke="transparent" points="168,-146.5 168,-167.5 260,-167.5 260,-146.5 168,-146.5"/>
<polygon fill="none" stroke="black" points="168,-146.5 168,-167.5 260,-167.5 260,-146.5 168,-146.5"/>
<text text-anchor="start" x="171" y="-153.3" font-family="Times,serif" font-size="14.00" fill="white">mulle_allocator</text>
<polygon fill="none" stroke="black" points="168,-123.5 168,-144.5 260,-144.5 260,-123.5 168,-123.5"/>
<text text-anchor="start" x="197.5" y="-130.3" font-family="Times,serif" font-size="14.00">calloc</text>
<polygon fill="none" stroke="black" points="168,-100.5 168,-121.5 260,-121.5 260,-100.5 168,-100.5"/>
<text text-anchor="start" x="195.5" y="-107.3" font-family="Times,serif" font-size="14.00">realloc</text>
<polygon fill="none" stroke="black" points="168,-77.5 168,-98.5 260,-98.5 260,-77.5 168,-77.5"/>
<text text-anchor="start" x="203" y="-84.3" font-family="Times,serif" font-size="14.00">free</text>
<polygon fill="none" stroke="black" points="165,-74.5 165,-170.5 263,-170.5 263,-74.5 165,-74.5"/>
</g>
<!-- mulle_pointerpairarray&#45;&gt;mulle_allocator -->
<!-- mulle_pointerpairarray&#45;&gt;mulle_allocator -->
<g id="edge3" class="edge">
<title>mulle_pointerpairarray:c&#45;&gt;mulle_allocator:w</title>
<path fill="none" stroke="black" d="M145.07,-153.96C148.85,-155.05 152.88,-156.01 156.94,-156.65"/>
<polygon fill="black" stroke="black" points="156.74,-160.14 167,-157.5 157.33,-153.17 156.74,-160.14"/>
</g>
<!-- k_a -->
<g id="node3" class="node">
<title>k_a</title>
<polygon fill="yellow" stroke="black" points="95,-0.5 95,-36.5 149,-36.5 149,-0.5 95,-0.5"/>
<text text-anchor="middle" x="122" y="-23.8" font-family="Times,serif" font-size="14.00">0</text>
<polyline fill="none" stroke="black" points="95,-18.5 149,-18.5 "/>
<text text-anchor="middle" x="122" y="-5.8" font-family="Times,serif" font-size="14.00">a</text>
</g>
<!-- mulle_pointerpairarray&#45;&gt;k_a -->
<g id="edge2" class="edge">
<title>mulle_pointerpairarray:c&#45;&gt;k_a</title>
<path fill="none" stroke="black" d="M122,-57.19C122,-53.91 122,-50.4 122,-46.89"/>
<ellipse fill="black" stroke="black" cx="122" cy="-61.42" rx="4" ry="4"/>
<polygon fill="black" stroke="black" points="122,-36.6 126.5,-46.6 122,-41.6 122,-46.6 122,-46.6 122,-46.6 122,-41.6 117.5,-46.6 122,-36.6 122,-36.6"/>
</g>
<!-- k_b -->
<g id="node4" class="node">
<title>k_b</title>
<polygon fill="yellow" stroke="black" points="150,-0.5 150,-36.5 204,-36.5 204,-0.5 150,-0.5"/>
<text text-anchor="middle" x="177" y="-23.8" font-family="Times,serif" font-size="14.00">1</text>
<polyline fill="none" stroke="black" points="150,-18.5 204,-18.5 "/>
<text text-anchor="middle" x="177" y="-5.8" font-family="Times,serif" font-size="14.00">b</text>
</g>
<!-- k_c -->
<g id="node5" class="node">
<title>k_c</title>
<polygon fill="yellow" stroke="black" points="205,-0.5 205,-36.5 259,-36.5 259,-0.5 205,-0.5"/>
<text text-anchor="middle" x="232" y="-23.8" font-family="Times,serif" font-size="14.00">2</text>
<polyline fill="none" stroke="black" points="205,-18.5 259,-18.5 "/>
<text text-anchor="middle" x="232" y="-5.8" font-family="Times,serif" font-size="14.00">c</text>
</g>
<!-- k_d -->
<g id="node6" class="node">
<title>k_d</title>
<polygon fill="yellow" stroke="black" points="260,-0.5 260,-36.5 314,-36.5 314,-0.5 260,-0.5"/>
<text text-anchor="middle" x="287" y="-23.8" font-family="Times,serif" font-size="14.00">3</text>
<polyline fill="none" stroke="black" points="260,-18.5 314,-18.5 "/>
<text text-anchor="middle" x="287" y="-5.8" font-family="Times,serif" font-size="14.00">d</text>
</g>
<!-- k_e -->
<g id="node7" class="node">
<title>k_e</title>
<polygon fill="chartreuse" stroke="black" points="315,-0.5 315,-36.5 369,-36.5 369,-0.5 315,-0.5"/>
<text text-anchor="middle" x="342" y="-23.8" font-family="Times,serif" font-size="14.00">4</text>
<polyline fill="none" stroke="black" points="315,-18.5 369,-18.5 "/>
<text text-anchor="middle" x="342" y="-5.8" font-family="Times,serif" font-size="14.00">e</text>
</g>
<!-- k_f -->
<g id="node8" class="node">
<title>k_f</title>
<polygon fill="white" stroke="black" points="370,-0.5 370,-36.5 424,-36.5 424,-0.5 370,-0.5"/>
<text text-anchor="middle" x="397" y="-23.8" font-family="Times,serif" font-size="14.00">5</text>
<polyline fill="none" stroke="black" points="370,-18.5 424,-18.5 "/>
<text text-anchor="middle" x="397" y="-5.8" font-family="Times,serif" font-size="14.00">f</text>
</g>
<!-- k_g -->
<g id="node9" class="node">
<title>k_g</title>
<polygon fill="white" stroke="black" points="425,-0.5 425,-36.5 479,-36.5 479,-0.5 425,-0.5"/>
<text text-anchor="middle" x="452" y="-23.8" font-family="Times,serif" font-size="14.00">6</text>
<polyline fill="none" stroke="black" points="425,-18.5 479,-18.5 "/>
<text text-anchor="middle" x="452" y="-5.8" font-family="Times,serif" font-size="14.00">g</text>
</g>
<!-- k_h -->
<g id="node10" class="node">
<title>k_h</title>
<polygon fill="white" stroke="black" points="480,-0.5 480,-36.5 534,-36.5 534,-0.5 480,-0.5"/>
<text text-anchor="middle" x="507" y="-23.8" font-family="Times,serif" font-size="14.00">7</text>
<polyline fill="none" stroke="black" points="480,-18.5 534,-18.5 "/>
<text text-anchor="middle" x="507" y="-5.8" font-family="Times,serif" font-size="14.00">h</text>
</g>
</g>
</svg>
