<?xml version="1.0" encoding="UTF-8" standalone="no"?>
<!DOCTYPE svg PUBLIC "-//W3C//DTD SVG 1.1//EN"
 "http://www.w3.org/Graphics/SVG/1.1/DTD/svg11.dtd">
<!-- Generated by graphviz version 2.44.0 (20200408.0750)
 -->
<!-- Pages: 1 -->
<svg width="513pt" height="192pt"
 viewBox="0.00 0.00 513.30 191.80" xmlns="http://www.w3.org/2000/svg" xmlns:xlink="http://www.w3.org/1999/xlink">
<g id="graph0" class="graph" transform="scale(1 1) rotate(0) translate(14.4 177.4)">
<polygon fill="white" stroke="transparent" points="-14.4,14.4 -14.4,-177.4 498.9,-177.4 498.9,14.4 -14.4,14.4"/>
<!-- mulle__set -->
<g id="node1" class="node">
<title>mulle__set</title>
<polygon fill="blue" stroke="transparent" points="11.5,-135 11.5,-156 80.5,-156 80.5,-135 11.5,-135"/>
<polygon fill="none" stroke="black" points="11.5,-135 11.5,-156 80.5,-156 80.5,-135 11.5,-135"/>
<text text-anchor="start" x="15.5" y="-141.8" font-family="Times,serif" font-size="14.00" fill="white">mulle__set</text>
<polygon fill="black" stroke="transparent" points="11.5,-112 11.5,-133 61.5,-133 61.5,-112 11.5,-112"/>
<polygon fill="none" stroke="black" points="11.5,-112 11.5,-133 61.5,-133 61.5,-112 11.5,-112"/>
<text text-anchor="start" x="21" y="-118.8" font-family="Times,serif" font-size="14.00" fill="white">count</text>
<polygon fill="none" stroke="black" points="63.5,-112 63.5,-133 80.5,-133 80.5,-112 63.5,-112"/>
<text text-anchor="start" x="68.5" y="-118.8" font-family="Times,serif" font-size="14.00">3</text>
<polygon fill="black" stroke="transparent" points="11.5,-89 11.5,-110 61.5,-110 61.5,-89 11.5,-89"/>
<polygon fill="none" stroke="black" points="11.5,-89 11.5,-110 61.5,-110 61.5,-89 11.5,-89"/>
<text text-anchor="start" x="25.5" y="-95.8" font-family="Times,serif" font-size="14.00" fill="white">size</text>
<polygon fill="none" stroke="black" points="63.5,-89 63.5,-110 80.5,-110 80.5,-89 63.5,-89"/>
<text text-anchor="start" x="68.5" y="-95.8" font-family="Times,serif" font-size="14.00">8</text>
<polygon fill="black" stroke="transparent" points="11.5,-66 11.5,-87 61.5,-87 61.5,-66 11.5,-66"/>
<polygon fill="none" stroke="black" points="11.5,-66 11.5,-87 61.5,-87 61.5,-66 11.5,-66"/>
<text text-anchor="start" x="16.5" y="-72.8" font-family="Times,serif" font-size="14.00" fill="white">storage</text>
<polygon fill="none" stroke="black" points="63.5,-66 63.5,-87 80.5,-87 80.5,-66 63.5,-66"/>
<polygon fill="none" stroke="black" points="8,-63 8,-159 83,-159 83,-63 8,-63"/>
</g>
<!-- k_a -->
<g id="node2" class="node">
<title>k_a</title>
<polygon fill="yellow" stroke="black" points="45.5,-0.5 45.5,-36.5 99.5,-36.5 99.5,-0.5 45.5,-0.5"/>
<text text-anchor="middle" x="72.5" y="-14.8" font-family="Times,serif" font-size="14.00">0</text>
</g>
<!-- mulle__set&#45;&gt;k_a -->
<g id="edge1" class="edge">
<title>mulle__set:c&#45;&gt;k_a</title>
<path fill="none" stroke="black" d="M72.5,-57.53C72.5,-54.12 72.5,-50.46 72.5,-46.81"/>
<ellipse fill="black" stroke="black" cx="72.5" cy="-61.84" rx="4" ry="4"/>
<polygon fill="black" stroke="black" points="72.5,-36.76 77,-46.76 72.5,-41.76 72.5,-46.76 72.5,-46.76 72.5,-46.76 72.5,-41.76 68,-46.76 72.5,-36.76 72.5,-36.76"/>
</g>
<!-- k_b -->
<g id="node3" class="node">
<title>k_b</title>
<polygon fill="lightgray" stroke="black" points="100.5,-0.5 100.5,-36.5 154.5,-36.5 154.5,-0.5 100.5,-0.5"/>
<text text-anchor="middle" x="127.5" y="-14.8" font-family="Times,serif" font-size="14.00">1</text>
</g>
<!-- k_c -->
<g id="node4" class="node">
<title>k_c</title>
<polygon fill="yellow" stroke="black" points="155.5,-0.5 155.5,-36.5 209.5,-36.5 209.5,-0.5 155.5,-0.5"/>
<text text-anchor="middle" x="182.5" y="-14.8" font-family="Times,serif" font-size="14.00">2</text>
</g>
<!-- k_d -->
<g id="node5" class="node">
<title>k_d</title>
<polygon fill="lightgray" stroke="black" points="210.5,-0.5 210.5,-36.5 264.5,-36.5 264.5,-0.5 210.5,-0.5"/>
<text text-anchor="middle" x="237.5" y="-14.8" font-family="Times,serif" font-size="14.00">3</text>
</g>
<!-- k_e -->
<g id="node6" class="node">
<title>k_e</title>
<polygon fill="lightgray" stroke="black" points="265.5,-0.5 265.5,-36.5 319.5,-36.5 319.5,-0.5 265.5,-0.5"/>
<text text-anchor="middle" x="292.5" y="-14.8" font-family="Times,serif" font-size="14.00">4</text>
</g>
<!-- k_f -->
<g id="node7" class="node">
<title>k_f</title>
<polygon fill="chartreuse" stroke="black" points="320.5,-0.5 320.5,-36.5 374.5,-36.5 374.5,-0.5 320.5,-0.5"/>
<text text-anchor="middle" x="347.5" y="-14.8" font-family="Times,serif" font-size="14.00">5</text>
</g>
<!-- k_g -->
<g id="node8" class="node">
<title>k_g</title>
<polygon fill="lightgray" stroke="black" points="375.5,-0.5 375.5,-36.5 429.5,-36.5 429.5,-0.5 375.5,-0.5"/>
<text text-anchor="middle" x="402.5" y="-14.8" font-family="Times,serif" font-size="14.00">6</text>
</g>
<!-- k_h -->
<g id="node9" class="node">
<title>k_h</title>
<polygon fill="lightgray" stroke="black" points="430.5,-0.5 430.5,-36.5 484.5,-36.5 484.5,-0.5 430.5,-0.5"/>
<text text-anchor="middle" x="457.5" y="-14.8" font-family="Times,serif" font-size="14.00">7</text>
</g>
</g>
</svg>
