<?xml version="1.0" encoding="UTF-8" standalone="no"?>
<!DOCTYPE svg PUBLIC "-//W3C//DTD SVG 1.1//EN"
 "http://www.w3.org/Graphics/SVG/1.1/DTD/svg11.dtd">
<!-- Generated by graphviz version 2.44.0 (20200408.0750)
 -->
<!-- Pages: 1 -->
<svg width="519pt" height="304pt"
 viewBox="0.00 0.00 519.30 304.10" xmlns="http://www.w3.org/2000/svg" xmlns:xlink="http://www.w3.org/1999/xlink">
<g id="graph0" class="graph" transform="scale(1 1) rotate(0) translate(14.4 289.7)">
<polygon fill="white" stroke="transparent" points="-14.4,14.4 -14.4,-289.7 504.9,-289.7 504.9,14.4 -14.4,14.4"/>
<!-- mulle_array -->
<g id="node1" class="node">
<title>mulle_array</title>
<polygon fill="blue" stroke="transparent" points="11.5,-204 11.5,-225 86.5,-225 86.5,-204 11.5,-204"/>
<polygon fill="none" stroke="black" points="11.5,-204 11.5,-225 86.5,-225 86.5,-204 11.5,-204"/>
<text text-anchor="start" x="15.5" y="-210.8" font-family="Times,serif" font-size="14.00" fill="white">mulle_array</text>
<polygon fill="black" stroke="transparent" points="11.5,-181 11.5,-202 68.5,-202 68.5,-181 11.5,-181"/>
<polygon fill="none" stroke="black" points="11.5,-181 11.5,-202 68.5,-202 68.5,-181 11.5,-181"/>
<text text-anchor="start" x="16" y="-187.8" font-family="Times,serif" font-size="14.00" fill="white">allocator</text>
<polygon fill="none" stroke="black" points="70.5,-181 70.5,-202 86.5,-202 86.5,-181 70.5,-181"/>
<polygon fill="black" stroke="transparent" points="11.5,-158 11.5,-179 68.5,-179 68.5,-158 11.5,-158"/>
<polygon fill="none" stroke="black" points="11.5,-158 11.5,-179 68.5,-179 68.5,-158 11.5,-158"/>
<text text-anchor="start" x="17" y="-164.8" font-family="Times,serif" font-size="14.00" fill="white">callback</text>
<polygon fill="none" stroke="black" points="70.5,-158 70.5,-179 86.5,-179 86.5,-158 70.5,-158"/>
<polygon fill="black" stroke="transparent" points="11.5,-135 11.5,-156 68.5,-156 68.5,-135 11.5,-135"/>
<polygon fill="none" stroke="black" points="11.5,-135 11.5,-156 68.5,-156 68.5,-135 11.5,-135"/>
<text text-anchor="start" x="24.5" y="-141.8" font-family="Times,serif" font-size="14.00" fill="white">count</text>
<polygon fill="none" stroke="black" points="70.5,-135 70.5,-156 86.5,-156 86.5,-135 70.5,-135"/>
<text text-anchor="start" x="75" y="-141.8" font-family="Times,serif" font-size="14.00">7</text>
<polygon fill="black" stroke="transparent" points="11.5,-112 11.5,-133 68.5,-133 68.5,-112 11.5,-112"/>
<polygon fill="none" stroke="black" points="11.5,-112 11.5,-133 68.5,-133 68.5,-112 11.5,-112"/>
<text text-anchor="start" x="29" y="-118.8" font-family="Times,serif" font-size="14.00" fill="white">size</text>
<polygon fill="none" stroke="black" points="70.5,-112 70.5,-133 86.5,-133 86.5,-112 70.5,-112"/>
<text text-anchor="start" x="75" y="-118.8" font-family="Times,serif" font-size="14.00">8</text>
<polygon fill="black" stroke="transparent" points="11.5,-89 11.5,-110 68.5,-110 68.5,-89 11.5,-89"/>
<polygon fill="none" stroke="black" points="11.5,-89 11.5,-110 68.5,-110 68.5,-89 11.5,-89"/>
<text text-anchor="start" x="20" y="-95.8" font-family="Times,serif" font-size="14.00" fill="white">storage</text>
<polygon fill="none" stroke="black" points="70.5,-89 70.5,-110 86.5,-110 86.5,-89 70.5,-89"/>
<polygon fill="none" stroke="black" points="8,-86 8,-228 89,-228 89,-86 8,-86"/>
</g>
<!-- mulle_container_keycallback -->
<g id="node2" class="node">
<title>mulle_container_keycallback</title>
<polygon fill="blue" stroke="transparent" points="109.5,-227 109.5,-248 275.5,-248 275.5,-227 109.5,-227"/>
<polygon fill="none" stroke="black" points="109.5,-227 109.5,-248 275.5,-248 275.5,-227 109.5,-227"/>
<text text-anchor="start" x="112.5" y="-233.8" font-family="Times,serif" font-size="14.00" fill="white">mulle_container_keycallback</text>
<polygon fill="none" stroke="black" points="109.5,-204 109.5,-225 275.5,-225 275.5,-204 109.5,-204"/>
<text text-anchor="start" x="180" y="-210.8" font-family="Times,serif" font-size="14.00">hash</text>
<polygon fill="none" stroke="black" points="109.5,-181 109.5,-202 275.5,-202 275.5,-181 109.5,-181"/>
<text text-anchor="start" x="169.5" y="-187.8" font-family="Times,serif" font-size="14.00">is_equal</text>
<polygon fill="none" stroke="black" points="109.5,-158 109.5,-179 275.5,-179 275.5,-158 109.5,-158"/>
<text text-anchor="start" x="177" y="-164.8" font-family="Times,serif" font-size="14.00">retain</text>
<polygon fill="none" stroke="black" points="109.5,-135 109.5,-156 275.5,-156 275.5,-135 109.5,-135"/>
<text text-anchor="start" x="173.5" y="-141.8" font-family="Times,serif" font-size="14.00">release</text>
<polygon fill="none" stroke="black" points="109.5,-112 109.5,-133 275.5,-133 275.5,-112 109.5,-112"/>
<text text-anchor="start" x="169.5" y="-118.8" font-family="Times,serif" font-size="14.00">describe</text>
<polygon fill="none" stroke="black" points="109.5,-89 109.5,-110 275.5,-110 275.5,-89 109.5,-89"/>
<text text-anchor="start" x="171" y="-95.8" font-family="Times,serif" font-size="14.00" fill="lightgray">notakey</text>
<polygon fill="none" stroke="black" points="109.5,-66 109.5,-87 275.5,-87 275.5,-66 109.5,-66"/>
<text text-anchor="start" x="170" y="-72.8" font-family="Times,serif" font-size="14.00">userinfo</text>
<polygon fill="none" stroke="black" points="106.5,-63 106.5,-251 278.5,-251 278.5,-63 106.5,-63"/>
</g>
<!-- mulle_array&#45;&gt;mulle_container_keycallback -->
<!-- mulle_array&#45;&gt;mulle_container_keycallback -->
<g id="edge5" class="edge">
<title>mulle_array:c&#45;&gt;mulle_container_keycallback:w</title>
<path fill="none" stroke="black" d="M79.34,-179.18C79.59,-195.53 82.28,-226.69 98.64,-235.58"/>
<polygon fill="black" stroke="black" points="97.95,-239.01 108.5,-238 99.62,-232.21 97.95,-239.01"/>
</g>
<!-- mulle_allocator -->
<g id="node3" class="node">
<title>mulle_allocator</title>
<polygon fill="blue" stroke="transparent" points="298.5,-181 298.5,-202 390.5,-202 390.5,-181 298.5,-181"/>
<polygon fill="none" stroke="black" points="298.5,-181 298.5,-202 390.5,-202 390.5,-181 298.5,-181"/>
<text text-anchor="start" x="301.5" y="-187.8" font-family="Times,serif" font-size="14.00" fill="white">mulle_allocator</text>
<polygon fill="none" stroke="black" points="298.5,-158 298.5,-179 390.5,-179 390.5,-158 298.5,-158"/>
<text text-anchor="start" x="328" y="-164.8" font-family="Times,serif" font-size="14.00">calloc</text>
<polygon fill="none" stroke="black" points="298.5,-135 298.5,-156 390.5,-156 390.5,-135 298.5,-135"/>
<text text-anchor="start" x="326" y="-141.8" font-family="Times,serif" font-size="14.00">realloc</text>
<polygon fill="none" stroke="black" points="298.5,-112 298.5,-133 390.5,-133 390.5,-112 298.5,-112"/>
<text text-anchor="start" x="333.5" y="-118.8" font-family="Times,serif" font-size="14.00">free</text>
<polygon fill="none" stroke="black" points="295.5,-109 295.5,-205 393.5,-205 393.5,-109 295.5,-109"/>
</g>
<!-- mulle_array&#45;&gt;mulle_allocator -->
<g id="edge4" class="edge">
<title>mulle_array:c&#45;&gt;mulle_allocator:w</title>
<path fill="none" stroke="black" d="M78.27,-202.25C78.53,-218.84 81.77,-251.2 102,-266 118.23,-277.88 267.47,-278.78 283,-266 305.24,-247.7 275.21,-206.2 287.6,-194.89"/>
<polygon fill="black" stroke="black" points="288.88,-198.16 297.5,-192 286.92,-191.44 288.88,-198.16"/>
</g>
<!-- k_a -->
<g id="node4" class="node">
<title>k_a</title>
<polygon fill="yellow" stroke="black" points="51.5,-0.5 51.5,-36.5 105.5,-36.5 105.5,-0.5 51.5,-0.5"/>
<text text-anchor="middle" x="78.5" y="-14.8" font-family="Times,serif" font-size="14.00">0</text>
</g>
<!-- mulle_array&#45;&gt;k_a -->
<g id="edge3" class="edge">
<title>mulle_array:c&#45;&gt;k_a</title>
<path fill="none" stroke="black" d="M78.5,-80.82C78.5,-70.89 78.5,-58.17 78.5,-46.89"/>
<ellipse fill="black" stroke="black" cx="78.5" cy="-85" rx="4" ry="4"/>
<polygon fill="black" stroke="black" points="78.5,-36.66 83,-46.66 78.5,-41.66 78.5,-46.66 78.5,-46.66 78.5,-46.66 78.5,-41.66 74,-46.66 78.5,-36.66 78.5,-36.66"/>
</g>
<!-- mulle_container_keycallback&#45;&gt;mulle_allocator -->
<!-- k_b -->
<g id="node5" class="node">
<title>k_b</title>
<polygon fill="yellow" stroke="black" points="106.5,-0.5 106.5,-36.5 160.5,-36.5 160.5,-0.5 106.5,-0.5"/>
<text text-anchor="middle" x="133.5" y="-14.8" font-family="Times,serif" font-size="14.00">1</text>
</g>
<!-- k_c -->
<g id="node6" class="node">
<title>k_c</title>
<polygon fill="yellow" stroke="black" points="161.5,-0.5 161.5,-36.5 215.5,-36.5 215.5,-0.5 161.5,-0.5"/>
<text text-anchor="middle" x="188.5" y="-14.8" font-family="Times,serif" font-size="14.00">2</text>
</g>
<!-- k_d -->
<g id="node7" class="node">
<title>k_d</title>
<polygon fill="yellow" stroke="black" points="216.5,-0.5 216.5,-36.5 270.5,-36.5 270.5,-0.5 216.5,-0.5"/>
<text text-anchor="middle" x="243.5" y="-14.8" font-family="Times,serif" font-size="14.00">3</text>
</g>
<!-- k_e -->
<g id="node8" class="node">
<title>k_e</title>
<polygon fill="chartreuse" stroke="black" points="271.5,-0.5 271.5,-36.5 325.5,-36.5 325.5,-0.5 271.5,-0.5"/>
<text text-anchor="middle" x="298.5" y="-14.8" font-family="Times,serif" font-size="14.00">4</text>
</g>
<!-- k_f -->
<g id="node9" class="node">
<title>k_f</title>
<polygon fill="chartreuse" stroke="black" points="326.5,-0.5 326.5,-36.5 380.5,-36.5 380.5,-0.5 326.5,-0.5"/>
<text text-anchor="middle" x="353.5" y="-14.8" font-family="Times,serif" font-size="14.00">5</text>
</g>
<!-- k_g -->
<g id="node10" class="node">
<title>k_g</title>
<polygon fill="chartreuse" stroke="black" points="381.5,-0.5 381.5,-36.5 435.5,-36.5 435.5,-0.5 381.5,-0.5"/>
<text text-anchor="middle" x="408.5" y="-14.8" font-family="Times,serif" font-size="14.00">6</text>
</g>
<!-- k_h -->
<g id="node11" class="node">
<title>k_h</title>
<polygon fill="white" stroke="black" points="436.5,-0.5 436.5,-36.5 490.5,-36.5 490.5,-0.5 436.5,-0.5"/>
<text text-anchor="middle" x="463.5" y="-14.8" font-family="Times,serif" font-size="14.00">7</text>
</g>
</g>
</svg>
