<?xml version="1.0" encoding="UTF-8" standalone="no"?>
<!DOCTYPE svg PUBLIC "-//W3C//DTD SVG 1.1//EN"
 "http://www.w3.org/Graphics/SVG/1.1/DTD/svg11.dtd">
<!-- Generated by graphviz version 2.44.0 (20200408.0750)
 -->
<!-- Pages: 1 -->
<svg width="541pt" height="192pt"
 viewBox="0.00 0.00 541.30 191.80" xmlns="http://www.w3.org/2000/svg" xmlns:xlink="http://www.w3.org/1999/xlink">
<g id="graph0" class="graph" transform="scale(1 1) rotate(0) translate(14.4 177.4)">
<polygon fill="white" stroke="transparent" points="-14.4,14.4 -14.4,-177.4 526.9,-177.4 526.9,14.4 -14.4,14.4"/>
<!-- mulle__pointerset -->
<g id="node1" class="node">
<title>mulle__pointerset</title>
<polygon fill="blue" stroke="transparent" points="11.5,-135 11.5,-156 118.5,-156 118.5,-135 11.5,-135"/>
<polygon fill="none" stroke="black" points="11.5,-135 11.5,-156 118.5,-156 118.5,-135 11.5,-135"/>
<text text-anchor="start" x="15.5" y="-141.8" font-family="Times,serif" font-size="14.00" fill="white">mulle__pointerset</text>
<polygon fill="black" stroke="transparent" points="11.5,-112 11.5,-133 80.5,-133 80.5,-112 11.5,-112"/>
<polygon fill="none" stroke="black" points="11.5,-112 11.5,-133 80.5,-133 80.5,-112 11.5,-112"/>
<text text-anchor="start" x="30.5" y="-118.8" font-family="Times,serif" font-size="14.00" fill="white">count</text>
<polygon fill="none" stroke="black" points="82.5,-112 82.5,-133 118.5,-133 118.5,-112 82.5,-112"/>
<text text-anchor="start" x="97" y="-118.8" font-family="Times,serif" font-size="14.00">3</text>
<polygon fill="black" stroke="transparent" points="11.5,-89 11.5,-110 80.5,-110 80.5,-89 11.5,-89"/>
<polygon fill="none" stroke="black" points="11.5,-89 11.5,-110 80.5,-110 80.5,-89 11.5,-89"/>
<text text-anchor="start" x="35" y="-95.8" font-family="Times,serif" font-size="14.00" fill="white">size</text>
<polygon fill="none" stroke="black" points="82.5,-89 82.5,-110 118.5,-110 118.5,-89 82.5,-89"/>
<text text-anchor="start" x="97" y="-95.8" font-family="Times,serif" font-size="14.00">8</text>
<polygon fill="black" stroke="transparent" points="11.5,-66 11.5,-87 80.5,-87 80.5,-66 11.5,-66"/>
<polygon fill="none" stroke="black" points="11.5,-66 11.5,-87 80.5,-87 80.5,-66 11.5,-66"/>
<text text-anchor="start" x="26" y="-72.8" font-family="Times,serif" font-size="14.00" fill="white">storage</text>
<polygon fill="none" stroke="black" points="82.5,-66 82.5,-87 118.5,-87 118.5,-66 82.5,-66"/>
<polygon fill="none" stroke="black" points="8,-63 8,-159 121,-159 121,-63 8,-63"/>
</g>
<!-- k_a -->
<g id="node3" class="node">
<title>k_a</title>
<polygon fill="yellow" stroke="black" points="73.5,-0.5 73.5,-36.5 127.5,-36.5 127.5,-0.5 73.5,-0.5"/>
<text text-anchor="middle" x="100.5" y="-14.8" font-family="Times,serif" font-size="14.00">0</text>
</g>
<!-- mulle__pointerset&#45;&gt;k_a -->
<g id="edge1" class="edge">
<title>mulle__pointerset:c&#45;&gt;k_a</title>
<path fill="none" stroke="black" d="M100.5,-57.53C100.5,-54.12 100.5,-50.46 100.5,-46.81"/>
<ellipse fill="black" stroke="black" cx="100.5" cy="-61.84" rx="4" ry="4"/>
<polygon fill="black" stroke="black" points="100.5,-36.76 105,-46.76 100.5,-41.76 100.5,-46.76 100.5,-46.76 100.5,-46.76 100.5,-41.76 96,-46.76 100.5,-36.76 100.5,-36.76"/>
</g>
<!-- global -->
<g id="node2" class="node">
<title>global</title>
<polygon fill="none" stroke="black" points="130,-93 130,-129 319,-129 319,-93 130,-93"/>
<text text-anchor="middle" x="159.5" y="-107.3" font-family="Times,serif" font-size="14.00">notakey</text>
<polyline fill="none" stroke="black" points="189,-93 189,-129 "/>
<text text-anchor="middle" x="254" y="-107.3" font-family="Times,serif" font-size="14.00">mulle_not_a_pointer</text>
</g>
<!-- k_b -->
<g id="node4" class="node">
<title>k_b</title>
<polygon fill="lightgray" stroke="black" points="128.5,-0.5 128.5,-36.5 182.5,-36.5 182.5,-0.5 128.5,-0.5"/>
<text text-anchor="middle" x="155.5" y="-14.8" font-family="Times,serif" font-size="14.00">1</text>
</g>
<!-- k_c -->
<g id="node5" class="node">
<title>k_c</title>
<polygon fill="yellow" stroke="black" points="183.5,-0.5 183.5,-36.5 237.5,-36.5 237.5,-0.5 183.5,-0.5"/>
<text text-anchor="middle" x="210.5" y="-14.8" font-family="Times,serif" font-size="14.00">2</text>
</g>
<!-- k_d -->
<g id="node6" class="node">
<title>k_d</title>
<polygon fill="lightgray" stroke="black" points="238.5,-0.5 238.5,-36.5 292.5,-36.5 292.5,-0.5 238.5,-0.5"/>
<text text-anchor="middle" x="265.5" y="-14.8" font-family="Times,serif" font-size="14.00">3</text>
</g>
<!-- k_e -->
<g id="node7" class="node">
<title>k_e</title>
<polygon fill="lightgray" stroke="black" points="293.5,-0.5 293.5,-36.5 347.5,-36.5 347.5,-0.5 293.5,-0.5"/>
<text text-anchor="middle" x="320.5" y="-14.8" font-family="Times,serif" font-size="14.00">4</text>
</g>
<!-- k_f -->
<g id="node8" class="node">
<title>k_f</title>
<polygon fill="chartreuse" stroke="black" points="348.5,-0.5 348.5,-36.5 402.5,-36.5 402.5,-0.5 348.5,-0.5"/>
<text text-anchor="middle" x="375.5" y="-14.8" font-family="Times,serif" font-size="14.00">5</text>
</g>
<!-- k_g -->
<g id="node9" class="node">
<title>k_g</title>
<polygon fill="lightgray" stroke="black" points="403.5,-0.5 403.5,-36.5 457.5,-36.5 457.5,-0.5 403.5,-0.5"/>
<text text-anchor="middle" x="430.5" y="-14.8" font-family="Times,serif" font-size="14.00">6</text>
</g>
<!-- k_h -->
<g id="node10" class="node">
<title>k_h</title>
<polygon fill="lightgray" stroke="black" points="458.5,-0.5 458.5,-36.5 512.5,-36.5 512.5,-0.5 458.5,-0.5"/>
<text text-anchor="middle" x="485.5" y="-14.8" font-family="Times,serif" font-size="14.00">7</text>
</g>
</g>
</svg>
