<?xml version="1.0" encoding="UTF-8" standalone="no"?>
<!DOCTYPE svg PUBLIC "-//W3C//DTD SVG 1.1//EN"
 "http://www.w3.org/Graphics/SVG/1.1/DTD/svg11.dtd">
<!-- Generated by graphviz version 2.43.0 (0)
 -->
<!-- Title: G Pages: 1 -->
<svg width="166pt" height="131pt"
 viewBox="0.00 0.00 166.00 131.00" xmlns="http://www.w3.org/2000/svg" xmlns:xlink="http://www.w3.org/1999/xlink">
<g id="graph0" class="graph" transform="scale(1 1) rotate(0) translate(4 127)">
<title>G</title>
<polygon fill="white" stroke="transparent" points="-4,4 -4,-127 162,-127 162,4 -4,4"/>
<!-- mulle&#45;structarray.h -->
<g id="node1" class="node">
<title>mulle&#45;structarray.h</title>
<polygon fill="none" stroke="black" points="149.5,-123 2.5,-123 2.5,-87 155.5,-87 155.5,-117 149.5,-123"/>
<polyline fill="none" stroke="black" points="149.5,-123 149.5,-117 "/>
<polyline fill="none" stroke="black" points="155.5,-117 149.5,-117 "/>
<text text-anchor="middle" x="79" y="-101.3" font-family="Times,serif" font-size="14.00">mulle&#45;structarray.h</text>
</g>
<!-- mulle&#45;&#45;structarray.h -->
<g id="node2" class="node">
<title>mulle&#45;&#45;structarray.h</title>
<polygon fill="none" stroke="black" points="152,-36 0,-36 0,0 158,0 158,-30 152,-36"/>
<polyline fill="none" stroke="black" points="152,-36 152,-30 "/>
<polyline fill="none" stroke="black" points="158,-30 152,-30 "/>
<text text-anchor="middle" x="79" y="-14.3" font-family="Times,serif" font-size="14.00">mulle&#45;&#45;structarray.h</text>
</g>
<!-- mulle&#45;structarray.h&#45;&gt;mulle&#45;&#45;structarray.h -->
<g id="edge1" class="edge">
<title>mulle&#45;structarray.h&#45;&gt;mulle&#45;&#45;structarray.h</title>
<path fill="none" stroke="black" d="M79,-86.8C79,-75.16 79,-59.55 79,-46.24"/>
<polygon fill="black" stroke="black" points="82.5,-46.18 79,-36.18 75.5,-46.18 82.5,-46.18"/>
<text text-anchor="middle" x="113.5" y="-57.8" font-family="Times,serif" font-size="14.00"> #include</text>
</g>
</g>
</svg>
