<?xml version="1.0" encoding="UTF-8" standalone="no"?>
<!DOCTYPE svg PUBLIC "-//W3C//DTD SVG 1.1//EN"
 "http://www.w3.org/Graphics/SVG/1.1/DTD/svg11.dtd">
<!-- Generated by graphviz version 2.43.0 (0)
 -->
<!-- Title: G Pages: 1 -->
<svg width="491pt" height="653pt"
 viewBox="0.00 0.00 491.17 653.00" xmlns="http://www.w3.org/2000/svg" xmlns:xlink="http://www.w3.org/1999/xlink">
<g id="graph0" class="graph" transform="scale(1 1) rotate(0) translate(4 649)">
<title>G</title>
<polygon fill="white" stroke="transparent" points="-4,4 -4,-649 487.17,-649 487.17,4 -4,4"/>
<!-- mulle&#45;map.h -->
<g id="node1" class="node">
<title>mulle&#45;map.h</title>
<polygon fill="none" stroke="black" points="311.67,-645 212.67,-645 212.67,-609 317.67,-609 317.67,-639 311.67,-645"/>
<polyline fill="none" stroke="black" points="311.67,-645 311.67,-639 "/>
<polyline fill="none" stroke="black" points="317.67,-639 311.67,-639 "/>
<text text-anchor="middle" x="265.17" y="-623.3" font-family="Times,serif" font-size="14.00">mulle&#45;map.h</text>
</g>
<!-- mulle&#45;&#45;map.h -->
<g id="node2" class="node">
<title>mulle&#45;&#45;map.h</title>
<polygon fill="none" stroke="black" points="314.17,-558 210.17,-558 210.17,-522 320.17,-522 320.17,-552 314.17,-558"/>
<polyline fill="none" stroke="black" points="314.17,-558 314.17,-552 "/>
<polyline fill="none" stroke="black" points="320.17,-552 314.17,-552 "/>
<text text-anchor="middle" x="265.17" y="-536.3" font-family="Times,serif" font-size="14.00">mulle&#45;&#45;map.h</text>
</g>
<!-- mulle&#45;map.h&#45;&gt;mulle&#45;&#45;map.h -->
<g id="edge1" class="edge">
<title>mulle&#45;map.h&#45;&gt;mulle&#45;&#45;map.h</title>
<path fill="none" stroke="black" d="M265.17,-608.8C265.17,-597.16 265.17,-581.55 265.17,-568.24"/>
<polygon fill="black" stroke="black" points="268.67,-568.18 265.17,-558.18 261.67,-568.18 268.67,-568.18"/>
<text text-anchor="middle" x="299.67" y="-579.8" font-family="Times,serif" font-size="14.00"> #include</text>
</g>
<!-- mulle&#45;container&#45;callback.h -->
<g id="node3" class="node">
<title>mulle&#45;container&#45;callback.h</title>
<polygon fill="none" stroke="black" points="239.17,-123 41.17,-123 41.17,-87 245.17,-87 245.17,-117 239.17,-123"/>
<polyline fill="none" stroke="black" points="239.17,-123 239.17,-117 "/>
<polyline fill="none" stroke="black" points="245.17,-117 239.17,-117 "/>
<text text-anchor="middle" x="143.17" y="-101.3" font-family="Times,serif" font-size="14.00">mulle&#45;container&#45;callback.h</text>
</g>
<!-- mulle&#45;&#45;map.h&#45;&gt;mulle&#45;container&#45;callback.h -->
<g id="edge2" class="edge">
<title>mulle&#45;&#45;map.h&#45;&gt;mulle&#45;container&#45;callback.h</title>
<path fill="none" stroke="black" d="M210.11,-530.79C139.25,-518.63 25.17,-493.01 25.17,-454 25.17,-454 25.17,-454 25.17,-191 25.17,-161.06 50.5,-140.62 77.68,-127.3"/>
<polygon fill="black" stroke="black" points="79.31,-130.4 86.94,-123.05 76.39,-124.04 79.31,-130.4"/>
<text text-anchor="middle" x="59.67" y="-318.8" font-family="Times,serif" font-size="14.00"> #include</text>
</g>
<!-- mulle&#45;&#45;pointermap.h -->
<g id="node5" class="node">
<title>mulle&#45;&#45;pointermap.h</title>
<polygon fill="none" stroke="black" points="339.67,-471 184.67,-471 184.67,-435 345.67,-435 345.67,-465 339.67,-471"/>
<polyline fill="none" stroke="black" points="339.67,-471 339.67,-465 "/>
<polyline fill="none" stroke="black" points="345.67,-465 339.67,-465 "/>
<text text-anchor="middle" x="265.17" y="-449.3" font-family="Times,serif" font-size="14.00">mulle&#45;&#45;pointermap.h</text>
</g>
<!-- mulle&#45;&#45;map.h&#45;&gt;mulle&#45;&#45;pointermap.h -->
<g id="edge4" class="edge">
<title>mulle&#45;&#45;map.h&#45;&gt;mulle&#45;&#45;pointermap.h</title>
<path fill="none" stroke="black" d="M265.17,-521.8C265.17,-510.16 265.17,-494.55 265.17,-481.24"/>
<polygon fill="black" stroke="black" points="268.67,-481.18 265.17,-471.18 261.67,-481.18 268.67,-481.18"/>
<text text-anchor="middle" x="299.67" y="-492.8" font-family="Times,serif" font-size="14.00"> #include</text>
</g>
<!-- mulle&#45;pointerpair.h -->
<g id="node8" class="node">
<title>mulle&#45;pointerpair.h</title>
<polygon fill="none" stroke="black" points="278.67,-210 131.67,-210 131.67,-174 284.67,-174 284.67,-204 278.67,-210"/>
<polyline fill="none" stroke="black" points="278.67,-210 278.67,-204 "/>
<polyline fill="none" stroke="black" points="284.67,-204 278.67,-204 "/>
<text text-anchor="middle" x="208.17" y="-188.3" font-family="Times,serif" font-size="14.00">mulle&#45;pointerpair.h</text>
</g>
<!-- mulle&#45;&#45;map.h&#45;&gt;mulle&#45;pointerpair.h -->
<g id="edge14" class="edge">
<title>mulle&#45;&#45;map.h&#45;&gt;mulle&#45;pointerpair.h</title>
<path fill="none" stroke="black" d="M320.23,-530.43C362.67,-520.32 414.17,-498.82 414.17,-454 414.17,-454 414.17,-454 414.17,-278 414.17,-223.25 351.23,-203.06 294.93,-195.95"/>
<polygon fill="black" stroke="black" points="295.21,-192.46 284.88,-194.8 294.42,-199.41 295.21,-192.46"/>
<text text-anchor="middle" x="448.67" y="-362.3" font-family="Times,serif" font-size="14.00"> #include</text>
</g>
<!-- mulle&#45;container&#45;operation.h -->
<g id="node4" class="node">
<title>mulle&#45;container&#45;operation.h</title>
<polygon fill="none" stroke="black" points="244.67,-36 35.67,-36 35.67,0 250.67,0 250.67,-30 244.67,-36"/>
<polyline fill="none" stroke="black" points="244.67,-36 244.67,-30 "/>
<polyline fill="none" stroke="black" points="250.67,-30 244.67,-30 "/>
<text text-anchor="middle" x="143.17" y="-14.3" font-family="Times,serif" font-size="14.00">mulle&#45;container&#45;operation.h</text>
</g>
<!-- mulle&#45;container&#45;callback.h&#45;&gt;mulle&#45;container&#45;operation.h -->
<g id="edge3" class="edge">
<title>mulle&#45;container&#45;callback.h&#45;&gt;mulle&#45;container&#45;operation.h</title>
<path fill="none" stroke="black" d="M42.34,-86.96C25.54,-82.12 11.74,-76.17 6.17,-69 -7.49,-51.42 4.41,-40.01 25.9,-32.62"/>
<polygon fill="black" stroke="black" points="27.09,-35.92 35.66,-29.69 25.08,-29.21 27.09,-35.92"/>
<text text-anchor="middle" x="40.67" y="-57.8" font-family="Times,serif" font-size="14.00"> #include</text>
</g>
<!-- mulle&#45;container&#45;callback.h&#45;&gt;mulle&#45;container&#45;operation.h -->
<g id="edge9" class="edge">
<title>mulle&#45;container&#45;callback.h&#45;&gt;mulle&#45;container&#45;operation.h</title>
<path fill="none" stroke="black" d="M113.08,-86.83C107.07,-81.89 101.56,-75.93 98.17,-69 93.54,-59.52 97.78,-50.51 105.21,-42.81"/>
<polygon fill="black" stroke="black" points="107.59,-45.38 112.76,-36.13 102.95,-40.13 107.59,-45.38"/>
<text text-anchor="middle" x="132.67" y="-57.8" font-family="Times,serif" font-size="14.00"> #include</text>
</g>
<!-- mulle&#45;container&#45;callback.h&#45;&gt;mulle&#45;container&#45;operation.h -->
<g id="edge13" class="edge">
<title>mulle&#45;container&#45;callback.h&#45;&gt;mulle&#45;container&#45;operation.h</title>
<path fill="none" stroke="black" d="M158.55,-86.92C165.19,-77.49 170.71,-65.4 167.17,-54 166.19,-50.83 164.81,-47.7 163.21,-44.68"/>
<polygon fill="black" stroke="black" points="166.12,-42.74 157.88,-36.07 160.17,-46.42 166.12,-42.74"/>
<text text-anchor="middle" x="203.67" y="-57.8" font-family="Times,serif" font-size="14.00"> #include</text>
</g>
<!-- mulle&#45;container&#45;callback.h&#45;&gt;mulle&#45;container&#45;operation.h -->
<g id="edge16" class="edge">
<title>mulle&#45;container&#45;callback.h&#45;&gt;mulle&#45;container&#45;operation.h</title>
<path fill="none" stroke="black" d="M222.09,-86.94C229.93,-82.31 236.91,-76.44 242.17,-69 250.62,-57.06 245.33,-47.8 233.72,-40.68"/>
<polygon fill="black" stroke="black" points="235.26,-37.54 224.76,-36.09 232.07,-43.77 235.26,-37.54"/>
<text text-anchor="middle" x="281.67" y="-57.8" font-family="Times,serif" font-size="14.00"> #include</text>
</g>
<!-- mulle&#45;&#45;pointermap&#45;generic.h -->
<g id="node6" class="node">
<title>mulle&#45;&#45;pointermap&#45;generic.h</title>
<polygon fill="none" stroke="black" points="266.67,-384 53.67,-384 53.67,-348 272.67,-348 272.67,-378 266.67,-384"/>
<polyline fill="none" stroke="black" points="266.67,-384 266.67,-378 "/>
<polyline fill="none" stroke="black" points="272.67,-378 266.67,-378 "/>
<text text-anchor="middle" x="163.17" y="-362.3" font-family="Times,serif" font-size="14.00">mulle&#45;&#45;pointermap&#45;generic.h</text>
</g>
<!-- mulle&#45;&#45;pointermap.h&#45;&gt;mulle&#45;&#45;pointermap&#45;generic.h -->
<g id="edge5" class="edge">
<title>mulle&#45;&#45;pointermap.h&#45;&gt;mulle&#45;&#45;pointermap&#45;generic.h</title>
<path fill="none" stroke="black" d="M244.53,-434.8C229.32,-422.13 208.45,-404.73 191.66,-390.74"/>
<polygon fill="black" stroke="black" points="193.7,-387.89 183.78,-384.18 189.22,-393.27 193.7,-387.89"/>
<text text-anchor="middle" x="255.67" y="-405.8" font-family="Times,serif" font-size="14.00"> #include</text>
</g>
<!-- mulle&#45;&#45;pointermap&#45;struct.h -->
<g id="node7" class="node">
<title>mulle&#45;&#45;pointermap&#45;struct.h</title>
<polygon fill="none" stroke="black" points="313.67,-297 110.67,-297 110.67,-261 319.67,-261 319.67,-291 313.67,-297"/>
<polyline fill="none" stroke="black" points="313.67,-297 313.67,-291 "/>
<polyline fill="none" stroke="black" points="319.67,-291 313.67,-291 "/>
<text text-anchor="middle" x="215.17" y="-275.3" font-family="Times,serif" font-size="14.00">mulle&#45;&#45;pointermap&#45;struct.h</text>
</g>
<!-- mulle&#45;&#45;pointermap.h&#45;&gt;mulle&#45;&#45;pointermap&#45;struct.h -->
<g id="edge10" class="edge">
<title>mulle&#45;&#45;pointermap.h&#45;&gt;mulle&#45;&#45;pointermap&#45;struct.h</title>
<path fill="none" stroke="black" d="M283.51,-434.64C287.84,-429.43 291.87,-423.38 294.17,-417 300.92,-398.28 287.26,-365.68 281.17,-348 275.93,-332.77 276.53,-327.34 266.17,-315 262.63,-310.78 258.47,-306.85 254.07,-303.26"/>
<polygon fill="black" stroke="black" points="256.08,-300.39 245.98,-297.18 251.87,-305.99 256.08,-300.39"/>
<text text-anchor="middle" x="327.67" y="-362.3" font-family="Times,serif" font-size="14.00"> #include</text>
</g>
<!-- mulle&#45;&#45;pointermap&#45;generic.h&#45;&gt;mulle&#45;&#45;pointermap&#45;struct.h -->
<g id="edge6" class="edge">
<title>mulle&#45;&#45;pointermap&#45;generic.h&#45;&gt;mulle&#45;&#45;pointermap&#45;struct.h</title>
<path fill="none" stroke="black" d="M173.69,-347.8C181.02,-335.82 190.94,-319.62 199.23,-306.06"/>
<polygon fill="black" stroke="black" points="202.43,-307.53 204.66,-297.18 196.46,-303.88 202.43,-307.53"/>
<text text-anchor="middle" x="227.67" y="-318.8" font-family="Times,serif" font-size="14.00"> #include</text>
</g>
<!-- mulle&#45;&#45;pointermap&#45;struct.h&#45;&gt;mulle&#45;pointerpair.h -->
<g id="edge7" class="edge">
<title>mulle&#45;&#45;pointermap&#45;struct.h&#45;&gt;mulle&#45;pointerpair.h</title>
<path fill="none" stroke="black" d="M185.08,-260.83C179.07,-255.89 173.56,-249.93 170.17,-243 165.82,-234.11 169.33,-225.24 175.68,-217.49"/>
<polygon fill="black" stroke="black" points="178.34,-219.78 182.78,-210.16 173.31,-214.91 178.34,-219.78"/>
<text text-anchor="middle" x="204.67" y="-231.8" font-family="Times,serif" font-size="14.00"> #include</text>
</g>
<!-- mulle&#45;&#45;pointermap&#45;struct.h&#45;&gt;mulle&#45;pointerpair.h -->
<g id="edge11" class="edge">
<title>mulle&#45;&#45;pointermap&#45;struct.h&#45;&gt;mulle&#45;pointerpair.h</title>
<path fill="none" stroke="black" d="M231.11,-260.73C237.91,-251.24 243.4,-239.16 239.17,-228 237.9,-224.63 236.13,-221.38 234.09,-218.31"/>
<polygon fill="black" stroke="black" points="236.65,-215.91 227.75,-210.17 231.13,-220.21 236.65,-215.91"/>
<text text-anchor="middle" x="275.67" y="-231.8" font-family="Times,serif" font-size="14.00"> #include</text>
</g>
<!-- mulle&#45;pointerpair.h&#45;&gt;mulle&#45;container&#45;callback.h -->
<g id="edge8" class="edge">
<title>mulle&#45;pointerpair.h&#45;&gt;mulle&#45;container&#45;callback.h</title>
<path fill="none" stroke="black" d="M131.46,-180.35C118.43,-175.07 106.45,-167.32 98.17,-156 91.55,-146.94 96.24,-137.64 104.68,-129.55"/>
<polygon fill="black" stroke="black" points="107.02,-132.15 112.49,-123.07 102.56,-126.76 107.02,-132.15"/>
<text text-anchor="middle" x="132.67" y="-144.8" font-family="Times,serif" font-size="14.00"> #include</text>
</g>
<!-- mulle&#45;pointerpair.h&#45;&gt;mulle&#45;container&#45;callback.h -->
<g id="edge12" class="edge">
<title>mulle&#45;pointerpair.h&#45;&gt;mulle&#45;container&#45;callback.h</title>
<path fill="none" stroke="black" d="M195.02,-173.8C185.68,-161.59 172.99,-144.99 162.5,-131.28"/>
<polygon fill="black" stroke="black" points="165.16,-128.99 156.31,-123.18 159.6,-133.25 165.16,-128.99"/>
<text text-anchor="middle" x="214.67" y="-144.8" font-family="Times,serif" font-size="14.00"> #include</text>
</g>
<!-- mulle&#45;pointerpair.h&#45;&gt;mulle&#45;container&#45;callback.h -->
<g id="edge15" class="edge">
<title>mulle&#45;pointerpair.h&#45;&gt;mulle&#45;container&#45;callback.h</title>
<path fill="none" stroke="black" d="M238.85,-173.93C251.59,-164.59 261.65,-152.6 253.17,-141 249.81,-136.4 245.83,-132.39 241.43,-128.9"/>
<polygon fill="black" stroke="black" points="243.29,-125.93 233.07,-123.15 239.32,-131.7 243.29,-125.93"/>
<text text-anchor="middle" x="291.67" y="-144.8" font-family="Times,serif" font-size="14.00"> #include</text>
</g>
</g>
</svg>
