<?xml version="1.0" encoding="UTF-8" standalone="no"?>
<!DOCTYPE svg PUBLIC "-//W3C//DTD SVG 1.1//EN"
 "http://www.w3.org/Graphics/SVG/1.1/DTD/svg11.dtd">
<!-- Generated by graphviz version 2.44.0 (20200408.0750)
 -->
<!-- Title: mulle_classhierarchy Pages: 1 -->
<svg width="771pt" height="303pt"
 viewBox="0.00 0.00 771.00 302.77" xmlns="http://www.w3.org/2000/svg" xmlns:xlink="http://www.w3.org/1999/xlink">
<g id="graph0" class="graph" transform="scale(1 1) rotate(0) translate(4 298.77)">
<title>mulle_classhierarchy</title>
<polygon fill="white" stroke="transparent" points="-4,4 -4,-298.77 767,-298.77 767,4 -4,4"/>
<!-- 0xa98050 -->
<g id="node1" class="node">
<title>0xa98050</title>
<polygon fill="goldenrod" stroke="transparent" points="19,-237 19,-258 35,-258 35,-237 19,-237"/>
<polygon fill="none" stroke="black" points="19,-237 19,-258 35,-258 35,-237 19,-237"/>
<text text-anchor="start" x="22" y="-243.8" font-family="Times,serif" font-size="14.00" fill="white">A</text>
<polygon fill="none" stroke="black" points="16,-234.5 16,-261.5 38,-261.5 38,-234.5 16,-234.5"/>
</g>
<!-- 0xa98590 -->
<g id="node2" class="node">
<title>0xa98590</title>
<polygon fill="goldenrod" stroke="transparent" points="274,-237 274,-258 288,-258 288,-237 274,-237"/>
<polygon fill="none" stroke="black" points="274,-237 274,-258 288,-258 288,-237 274,-237"/>
<text text-anchor="start" x="277" y="-243.8" font-family="Times,serif" font-size="14.00" fill="white">P</text>
<polygon fill="none" stroke="black" points="271,-234.5 271,-261.5 291,-261.5 291,-234.5 271,-234.5"/>
</g>
<!-- 0xa98050&#45;&gt;0xa98590 -->
<!-- 0xa99150 -->
<g id="node4" class="node">
<title>0xa99150</title>
<polygon fill="goldenrod" stroke="transparent" points="331,-139 331,-160 347,-160 347,-139 331,-139"/>
<polygon fill="none" stroke="black" points="331,-139 331,-160 347,-160 347,-139 331,-139"/>
<text text-anchor="start" x="334" y="-145.8" font-family="Times,serif" font-size="14.00" fill="white">B</text>
<polygon fill="none" stroke="black" points="328,-136.5 328,-163.5 350,-163.5 350,-136.5 328,-136.5"/>
</g>
<!-- 0xa98050&#45;&gt;0xa99150 -->
<g id="edge3" class="edge">
<title>0xa98050&#45;&gt;0xa99150</title>
<path fill="none" stroke="black" d="M63.73,-235.7C127.1,-216.2 255.55,-176.68 311.7,-159.4"/>
<polygon fill="black" stroke="black" points="62.67,-232.36 54.14,-238.65 64.73,-239.05 62.67,-232.36"/>
<text text-anchor="middle" x="251" y="-189.8" font-family="Times,serif" font-size="14.00"> superclass</text>
</g>
<!-- 0x408130 -->
<g id="node5" class="node">
<title>0x408130</title>
<polygon fill="black" stroke="transparent" points="159,-249 159,-270 225,-270 225,-249 159,-249"/>
<polygon fill="none" stroke="black" points="159,-249 159,-270 225,-270 225,-249 159,-249"/>
<text text-anchor="start" x="163" y="-255.8" font-family="Times,serif" font-size="14.00" fill="white">methodlist</text>
<polygon fill="none" stroke="black" points="159,-226 159,-247 225,-247 225,-226 159,-226"/>
<text text-anchor="start" x="182.5" y="-232.8" font-family="Times,serif" font-size="14.00">foo</text>
<polygon fill="none" stroke="black" points="156,-223 156,-273 228,-273 228,-223 156,-223"/>
</g>
<!-- 0xa98050&#45;&gt;0x408130 -->
<g id="edge6" class="edge">
<title>0xa98050&#45;&gt;0x408130</title>
<path fill="none" stroke="black" d="M54.25,-248C76.91,-248 109.87,-248 137.86,-248"/>
<polygon fill="black" stroke="black" points="147.93,-244 147.93,-252 139.93,-252 139.93,-244 147.93,-244"/>
<polyline fill="none" stroke="black" points="139.93,-248 137.93,-248 "/>
<text text-anchor="middle" x="101" y="-254.8" font-family="Times,serif" font-size="14.00">methodlist #0</text>
</g>
<!-- 0xa98af0 -->
<g id="node3" class="node">
<title>0xa98af0</title>
<polygon fill="goldenrod" stroke="transparent" points="527,-237 527,-258 543,-258 543,-237 527,-237"/>
<polygon fill="none" stroke="black" points="527,-237 527,-258 543,-258 543,-237 527,-237"/>
<text text-anchor="start" x="530" y="-243.8" font-family="Times,serif" font-size="14.00" fill="white">Q</text>
<polygon fill="none" stroke="black" points="524,-234.5 524,-261.5 546,-261.5 546,-234.5 524,-234.5"/>
</g>
<!-- 0xa98590&#45;&gt;0xa98af0 -->
<!-- 0xa98590&#45;&gt;0xa99150 -->
<g id="edge4" class="edge">
<title>0xa98590&#45;&gt;0xa99150</title>
<path fill="none" stroke="black" d="M296.69,-221.03C306.87,-204.18 319.84,-182.71 328.72,-168.01"/>
<polygon fill="black" stroke="black" points="293.54,-219.47 291.37,-229.84 299.54,-223.09 293.54,-219.47"/>
<text text-anchor="middle" x="363.5" y="-189.8" font-family="Times,serif" font-size="14.00"> protocolclass #0</text>
</g>
<!-- 0x4081e0 -->
<g id="node6" class="node">
<title>0x4081e0</title>
<polygon fill="black" stroke="transparent" points="413,-249 413,-270 479,-270 479,-249 413,-249"/>
<polygon fill="none" stroke="black" points="413,-249 413,-270 479,-270 479,-249 413,-249"/>
<text text-anchor="start" x="417" y="-255.8" font-family="Times,serif" font-size="14.00" fill="white">methodlist</text>
<polygon fill="none" stroke="black" points="413,-226 413,-247 479,-247 479,-226 413,-226"/>
<text text-anchor="start" x="436.5" y="-232.8" font-family="Times,serif" font-size="14.00">foo</text>
<polygon fill="none" stroke="black" points="410,-223 410,-273 482,-273 482,-223 410,-223"/>
</g>
<!-- 0xa98590&#45;&gt;0x4081e0 -->
<g id="edge7" class="edge">
<title>0xa98590&#45;&gt;0x4081e0</title>
<path fill="none" stroke="black" d="M308.25,-248C330.91,-248 363.87,-248 391.86,-248"/>
<polygon fill="black" stroke="black" points="401.93,-244 401.93,-252 393.93,-252 393.93,-244 401.93,-244"/>
<polyline fill="none" stroke="black" points="393.93,-248 391.93,-248 "/>
<text text-anchor="middle" x="355" y="-254.8" font-family="Times,serif" font-size="14.00">methodlist #0</text>
</g>
<!-- 0xa98af0&#45;&gt;0xa99150 -->
<g id="edge5" class="edge">
<title>0xa98af0&#45;&gt;0xa99150</title>
<path fill="none" stroke="black" d="M506.49,-223.78C504.01,-222.09 501.5,-220.47 499,-219 454.77,-193 398.72,-171.54 366.06,-160.06"/>
<polygon fill="black" stroke="black" points="504.56,-226.71 514.71,-229.75 508.68,-221.04 504.56,-226.71"/>
<text text-anchor="middle" x="507.5" y="-189.8" font-family="Times,serif" font-size="14.00"> protocolclass #1</text>
</g>
<!-- 0x408268 -->
<g id="node7" class="node">
<title>0x408268</title>
<polygon fill="black" stroke="transparent" points="667,-249 667,-270 733,-270 733,-249 667,-249"/>
<polygon fill="none" stroke="black" points="667,-249 667,-270 733,-270 733,-249 667,-249"/>
<text text-anchor="start" x="671" y="-255.8" font-family="Times,serif" font-size="14.00" fill="white">methodlist</text>
<polygon fill="chartreuse" stroke="transparent" points="667,-226 667,-247 733,-247 733,-226 667,-226"/>
<polygon fill="none" stroke="black" points="667,-226 667,-247 733,-247 733,-226 667,-226"/>
<text text-anchor="start" x="690.5" y="-232.8" font-family="Times,serif" font-size="14.00">foo</text>
<polygon fill="none" stroke="black" points="664,-223 664,-273 736,-273 736,-223 664,-223"/>
</g>
<!-- 0xa98af0&#45;&gt;0x408268 -->
<g id="edge8" class="edge">
<title>0xa98af0&#45;&gt;0x408268</title>
<path fill="none" stroke="black" d="M562.25,-248C584.91,-248 617.87,-248 645.86,-248"/>
<polygon fill="black" stroke="black" points="655.93,-244 655.93,-252 647.93,-252 647.93,-244 655.93,-244"/>
<polyline fill="none" stroke="black" points="647.93,-248 645.93,-248 "/>
<text text-anchor="middle" x="609" y="-254.8" font-family="Times,serif" font-size="14.00">methodlist #0</text>
</g>
<!-- 0x4082f0 -->
<g id="node8" class="node">
<title>0x4082f0</title>
<polygon fill="black" stroke="transparent" points="268,-41.5 268,-62.5 334,-62.5 334,-41.5 268,-41.5"/>
<polygon fill="none" stroke="black" points="268,-41.5 268,-62.5 334,-62.5 334,-41.5 268,-41.5"/>
<text text-anchor="start" x="272" y="-48.3" font-family="Times,serif" font-size="14.00" fill="white">methodlist</text>
<polygon fill="none" stroke="black" points="268,-18.5 268,-39.5 334,-39.5 334,-18.5 268,-18.5"/>
<text text-anchor="start" x="291.5" y="-25.3" font-family="Times,serif" font-size="14.00">foo</text>
<polygon fill="none" stroke="black" points="265,-15.5 265,-65.5 337,-65.5 337,-15.5 265,-15.5"/>
</g>
<!-- 0xa99150&#45;&gt;0x4082f0 -->
<g id="edge11" class="edge">
<title>0xa99150&#45;&gt;0x4082f0</title>
<path fill="none" stroke="black" d="M329.93,-131.81C327.18,-126.22 324.28,-119.93 322,-114 317.79,-103.04 313.95,-90.88 310.74,-79.69"/>
<polygon fill="black" stroke="black" points="304.13,-70.83 311.84,-68.68 313.98,-76.39 306.27,-78.53 304.13,-70.83"/>
<polyline fill="none" stroke="black" points="310.13,-77.46 310.66,-79.39 "/>
<text text-anchor="middle" x="360" y="-102.8" font-family="Times,serif" font-size="14.00">methodlist #0</text>
</g>
<!-- 0x408608 -->
<g id="node9" class="node">
<title>0x408608</title>
<polygon fill="black" stroke="transparent" points="392,-52.5 392,-73.5 463,-73.5 463,-52.5 392,-52.5"/>
<polygon fill="none" stroke="black" points="392,-52.5 392,-73.5 463,-73.5 463,-52.5 392,-52.5"/>
<text text-anchor="start" x="398.5" y="-59.3" font-family="Times,serif" font-size="14.00" fill="white">methodlist</text>
<polygon fill="none" stroke="black" points="392,-29.5 392,-50.5 445,-50.5 445,-29.5 392,-29.5"/>
<text text-anchor="start" x="395" y="-36.3" font-family="Times,serif" font-size="14.00">category</text>
<polygon fill="goldenrod" stroke="transparent" points="447,-29.5 447,-50.5 463,-50.5 463,-29.5 447,-29.5"/>
<polygon fill="none" stroke="black" points="447,-29.5 447,-50.5 463,-50.5 463,-29.5 447,-29.5"/>
<text text-anchor="start" x="450" y="-36.3" font-family="Times,serif" font-size="14.00" fill="white">X</text>
<polygon fill="none" stroke="black" points="392,-6.5 392,-27.5 463,-27.5 463,-6.5 392,-6.5"/>
<text text-anchor="start" x="418" y="-13.3" font-family="Times,serif" font-size="14.00">foo</text>
<polygon fill="none" stroke="black" points="388.5,-4 388.5,-77 465.5,-77 465.5,-4 388.5,-4"/>
</g>
<!-- 0xa99150&#45;&gt;0x408608 -->
<g id="edge12" class="edge">
<title>0xa99150&#45;&gt;0x408608</title>
<path fill="none" stroke="black" d="M366.07,-137.7C377.17,-131.96 389.4,-124.04 398,-114 403.83,-107.19 408.58,-99.06 412.42,-90.75"/>
<polygon fill="black" stroke="black" points="412.7,-79.8 420.07,-82.9 416.96,-90.28 409.59,-87.17 412.7,-79.8"/>
<polyline fill="none" stroke="black" points="413.28,-88.72 412.5,-90.57 "/>
<text text-anchor="middle" x="445" y="-102.8" font-family="Times,serif" font-size="14.00">methodlist #1</text>
</g>
<!-- 0x408708 -->
<g id="node10" class="node">
<title>0x408708</title>
<polygon fill="black" stroke="transparent" points="521,-52.5 521,-73.5 592,-73.5 592,-52.5 521,-52.5"/>
<polygon fill="none" stroke="black" points="521,-52.5 521,-73.5 592,-73.5 592,-52.5 521,-52.5"/>
<text text-anchor="start" x="527.5" y="-59.3" font-family="Times,serif" font-size="14.00" fill="white">methodlist</text>
<polygon fill="none" stroke="black" points="521,-29.5 521,-50.5 574,-50.5 574,-29.5 521,-29.5"/>
<text text-anchor="start" x="524" y="-36.3" font-family="Times,serif" font-size="14.00">category</text>
<polygon fill="goldenrod" stroke="transparent" points="576,-29.5 576,-50.5 592,-50.5 592,-29.5 576,-29.5"/>
<polygon fill="none" stroke="black" points="576,-29.5 576,-50.5 592,-50.5 592,-29.5 576,-29.5"/>
<text text-anchor="start" x="579" y="-36.3" font-family="Times,serif" font-size="14.00" fill="white">Y</text>
<polygon fill="chartreuse" stroke="transparent" points="521,-6.5 521,-27.5 592,-27.5 592,-6.5 521,-6.5"/>
<polygon fill="none" stroke="black" points="521,-6.5 521,-27.5 592,-27.5 592,-6.5 521,-6.5"/>
<text text-anchor="start" x="547" y="-13.3" font-family="Times,serif" font-size="14.00">foo</text>
<polygon fill="none" stroke="black" points="517.5,-4 517.5,-77 594.5,-77 594.5,-4 517.5,-4"/>
</g>
<!-- 0xa99150&#45;&gt;0x408708 -->
<g id="edge13" class="edge">
<title>0xa99150&#45;&gt;0x408708</title>
<path fill="none" stroke="black" d="M366.08,-147.24C397.12,-144.21 448.65,-136.02 487,-114 498.53,-107.38 509.33,-98.24 518.81,-88.69"/>
<polygon fill="black" stroke="black" points="522.88,-78.57 528.69,-84.08 523.18,-89.88 517.38,-84.38 522.88,-78.57"/>
<polyline fill="none" stroke="black" points="520.28,-87.13 518.9,-88.58 "/>
<text text-anchor="middle" x="544" y="-102.8" font-family="Times,serif" font-size="14.00">methodlist #2</text>
</g>
<!-- 0x408268&#45;&gt;0x408708 -->
<g id="edge14" class="edge">
<title>0x408268:Q.foo&#45;&gt;0x408708:Y.foo</title>
<path fill="none" stroke="black" stroke-width="2" d="M699.99,-214.93C699.71,-114.23 693.8,-16.5 593,-16.5"/>
<polygon fill="black" stroke="black" stroke-width="2" points="696.49,-215 700,-225 703.49,-215 696.49,-215"/>
<text text-anchor="middle" x="731" y="-146.3" font-family="Times,serif" font-size="14.00" fill="darkgreen"> [super foo]</text>
</g>
<!-- 0x4082f0&#45;&gt;0x408608 -->
<!-- 0x408608&#45;&gt;0x408708 -->
</g>
</svg>
