<svg xmlns="http://www.w3.org/2000/svg" xmlns:xlink="http://www.w3.org/1999/xlink" width="1028" height="404" viewBox="0 0 771 302.77"><g id="graph0" class="graph" transform="scale(1 1) rotate(0) translate(4 298.77)"><title>mulle_classhierarchy</title><polygon fill="#fff" stroke="transparent" points="-4 4 -4 -298.77 767 -298.77 767 4 -4 4"/><g id="node1" class="node"><title>0xa98050</title><polygon fill="#daa520" stroke="transparent" points="19 -237 19 -258 35 -258 35 -237 19 -237"/><polygon fill="none" stroke="#000" points="19 -237 19 -258 35 -258 35 -237 19 -237"/><text x="22" y="-243.8" fill="#fff" font-family="Times,serif" font-size="14" text-anchor="start">A</text><polygon fill="none" stroke="#000" points="16 -234.5 16 -261.5 38 -261.5 38 -234.5 16 -234.5"/></g><g id="node2" class="node"><title>0xa98590</title><polygon fill="#daa520" stroke="transparent" points="274 -237 274 -258 288 -258 288 -237 274 -237"/><polygon fill="none" stroke="#000" points="274 -237 274 -258 288 -258 288 -237 274 -237"/><text x="277" y="-243.8" fill="#fff" font-family="Times,serif" font-size="14" text-anchor="start">P</text><polygon fill="none" stroke="#000" points="271 -234.5 271 -261.5 291 -261.5 291 -234.5 271 -234.5"/></g><g id="node4" class="node"><title>0xa99150</title><polygon fill="#daa520" stroke="transparent" points="331 -139 331 -160 347 -160 347 -139 331 -139"/><polygon fill="none" stroke="#000" points="331 -139 331 -160 347 -160 347 -139 331 -139"/><text x="334" y="-145.8" fill="#fff" font-family="Times,serif" font-size="14" text-anchor="start">B</text><polygon fill="none" stroke="#000" points="328 -136.5 328 -163.5 350 -163.5 350 -136.5 328 -136.5"/></g><g id="edge3" class="edge"><title>0xa98050-&gt;0xa99150</title><path fill="none" stroke="#000" d="M63.73,-235.7C127.1,-216.2 255.55,-176.68 311.7,-159.4"/><polygon fill="#000" stroke="#000" points="62.67 -232.36 54.14 -238.65 64.73 -239.05 62.67 -232.36"/><text x="251" y="-189.8" font-family="Times,serif" font-size="14" text-anchor="middle">superclass</text></g><g id="node5" class="node"><title>0x408130</title><polygon fill="#000" stroke="transparent" points="159 -249 159 -270 225 -270 225 -249 159 -249"/><polygon fill="none" stroke="#000" points="159 -249 159 -270 225 -270 225 -249 159 -249"/><text x="163" y="-255.8" fill="#fff" font-family="Times,serif" font-size="14" text-anchor="start">methodlist</text><polygon fill="none" stroke="#000" points="159 -226 159 -247 225 -247 225 -226 159 -226"/><text x="182.5" y="-232.8" font-family="Times,serif" font-size="14" text-anchor="start">foo</text><polygon fill="none" stroke="#000" points="156 -223 156 -273 228 -273 228 -223 156 -223"/></g><g id="edge6" class="edge"><title>0xa98050-&gt;0x408130</title><path fill="none" stroke="#000" d="M54.25,-248C76.91,-248 109.87,-248 137.86,-248"/><polygon fill="#000" stroke="#000" points="147.93 -244 147.93 -252 139.93 -252 139.93 -244 147.93 -244"/><polyline fill="none" stroke="#000" points="139.93 -248 137.93 -248"/><text x="101" y="-254.8" font-family="Times,serif" font-size="14" text-anchor="middle">methodlist #0</text></g><g id="node3" class="node"><title>0xa98af0</title><polygon fill="#daa520" stroke="transparent" points="527 -237 527 -258 543 -258 543 -237 527 -237"/><polygon fill="none" stroke="#000" points="527 -237 527 -258 543 -258 543 -237 527 -237"/><text x="530" y="-243.8" fill="#fff" font-family="Times,serif" font-size="14" text-anchor="start">Q</text><polygon fill="none" stroke="#000" points="524 -234.5 524 -261.5 546 -261.5 546 -234.5 524 -234.5"/></g><g id="edge4" class="edge"><title>0xa98590-&gt;0xa99150</title><path fill="none" stroke="#000" d="M296.69,-221.03C306.87,-204.18 319.84,-182.71 328.72,-168.01"/><polygon fill="#000" stroke="#000" points="293.54 -219.47 291.37 -229.84 299.54 -223.09 293.54 -219.47"/><text x="363.5" y="-189.8" font-family="Times,serif" font-size="14" text-anchor="middle">protocolclass #0</text></g><g id="node6" class="node"><title>0x4081e0</title><polygon fill="#000" stroke="transparent" points="413 -249 413 -270 479 -270 479 -249 413 -249"/><polygon fill="none" stroke="#000" points="413 -249 413 -270 479 -270 479 -249 413 -249"/><text x="417" y="-255.8" fill="#fff" font-family="Times,serif" font-size="14" text-anchor="start">methodlist</text><polygon fill="none" stroke="#000" points="413 -226 413 -247 479 -247 479 -226 413 -226"/><text x="436.5" y="-232.8" font-family="Times,serif" font-size="14" text-anchor="start">foo</text><polygon fill="none" stroke="#000" points="410 -223 410 -273 482 -273 482 -223 410 -223"/></g><g id="edge7" class="edge"><title>0xa98590-&gt;0x4081e0</title><path fill="none" stroke="#000" d="M308.25,-248C330.91,-248 363.87,-248 391.86,-248"/><polygon fill="#000" stroke="#000" points="401.93 -244 401.93 -252 393.93 -252 393.93 -244 401.93 -244"/><polyline fill="none" stroke="#000" points="393.93 -248 391.93 -248"/><text x="355" y="-254.8" font-family="Times,serif" font-size="14" text-anchor="middle">methodlist #0</text></g><g id="edge5" class="edge"><title>0xa98af0-&gt;0xa99150</title><path fill="none" stroke="#000" d="M506.49,-223.78C504.01,-222.09 501.5,-220.47 499,-219 454.77,-193 398.72,-171.54 366.06,-160.06"/><polygon fill="#000" stroke="#000" points="504.56 -226.71 514.71 -229.75 508.68 -221.04 504.56 -226.71"/><text x="507.5" y="-189.8" font-family="Times,serif" font-size="14" text-anchor="middle">protocolclass #1</text></g><g id="node7" class="node"><title>0x408268</title><polygon fill="#000" stroke="transparent" points="667 -249 667 -270 733 -270 733 -249 667 -249"/><polygon fill="none" stroke="#000" points="667 -249 667 -270 733 -270 733 -249 667 -249"/><text x="671" y="-255.8" fill="#fff" font-family="Times,serif" font-size="14" text-anchor="start">methodlist</text><polygon fill="#7fff00" stroke="transparent" points="667 -226 667 -247 733 -247 733 -226 667 -226"/><polygon fill="none" stroke="#000" points="667 -226 667 -247 733 -247 733 -226 667 -226"/><text x="690.5" y="-232.8" font-family="Times,serif" font-size="14" text-anchor="start">foo</text><polygon fill="none" stroke="#000" points="664 -223 664 -273 736 -273 736 -223 664 -223"/></g><g id="edge8" class="edge"><title>0xa98af0-&gt;0x408268</title><path fill="none" stroke="#000" d="M562.25,-248C584.91,-248 617.87,-248 645.86,-248"/><polygon fill="#000" stroke="#000" points="655.93 -244 655.93 -252 647.93 -252 647.93 -244 655.93 -244"/><polyline fill="none" stroke="#000" points="647.93 -248 645.93 -248"/><text x="609" y="-254.8" font-family="Times,serif" font-size="14" text-anchor="middle">methodlist #0</text></g><g id="node8" class="node"><title>0x4082f0</title><polygon fill="#000" stroke="transparent" points="268 -41.5 268 -62.5 334 -62.5 334 -41.5 268 -41.5"/><polygon fill="none" stroke="#000" points="268 -41.5 268 -62.5 334 -62.5 334 -41.5 268 -41.5"/><text x="272" y="-48.3" fill="#fff" font-family="Times,serif" font-size="14" text-anchor="start">methodlist</text><polygon fill="none" stroke="#000" points="268 -18.5 268 -39.5 334 -39.5 334 -18.5 268 -18.5"/><text x="291.5" y="-25.3" font-family="Times,serif" font-size="14" text-anchor="start">foo</text><polygon fill="none" stroke="#000" points="265 -15.5 265 -65.5 337 -65.5 337 -15.5 265 -15.5"/></g><g id="edge11" class="edge"><title>0xa99150-&gt;0x4082f0</title><path fill="none" stroke="#000" d="M329.93,-131.81C327.18,-126.22 324.28,-119.93 322,-114 317.79,-103.04 313.95,-90.88 310.74,-79.69"/><polygon fill="#000" stroke="#000" points="304.13 -70.83 311.84 -68.68 313.98 -76.39 306.27 -78.53 304.13 -70.83"/><polyline fill="none" stroke="#000" points="310.13 -77.46 310.66 -79.39"/><text x="360" y="-102.8" font-family="Times,serif" font-size="14" text-anchor="middle">methodlist #0</text></g><g id="node9" class="node"><title>0x408608</title><polygon fill="#000" stroke="transparent" points="392 -52.5 392 -73.5 463 -73.5 463 -52.5 392 -52.5"/><polygon fill="none" stroke="#000" points="392 -52.5 392 -73.5 463 -73.5 463 -52.5 392 -52.5"/><text x="398.5" y="-59.3" fill="#fff" font-family="Times,serif" font-size="14" text-anchor="start">methodlist</text><polygon fill="none" stroke="#000" points="392 -29.5 392 -50.5 445 -50.5 445 -29.5 392 -29.5"/><text x="395" y="-36.3" font-family="Times,serif" font-size="14" text-anchor="start">category</text><polygon fill="#daa520" stroke="transparent" points="447 -29.5 447 -50.5 463 -50.5 463 -29.5 447 -29.5"/><polygon fill="none" stroke="#000" points="447 -29.5 447 -50.5 463 -50.5 463 -29.5 447 -29.5"/><text x="450" y="-36.3" fill="#fff" font-family="Times,serif" font-size="14" text-anchor="start">X</text><polygon fill="none" stroke="#000" points="392 -6.5 392 -27.5 463 -27.5 463 -6.5 392 -6.5"/><text x="418" y="-13.3" font-family="Times,serif" font-size="14" text-anchor="start">foo</text><polygon fill="none" stroke="#000" points="388.5 -4 388.5 -77 465.5 -77 465.5 -4 388.5 -4"/></g><g id="edge12" class="edge"><title>0xa99150-&gt;0x408608</title><path fill="none" stroke="#000" d="M366.07,-137.7C377.17,-131.96 389.4,-124.04 398,-114 403.83,-107.19 408.58,-99.06 412.42,-90.75"/><polygon fill="#000" stroke="#000" points="412.7 -79.8 420.07 -82.9 416.96 -90.28 409.59 -87.17 412.7 -79.8"/><polyline fill="none" stroke="#000" points="413.28 -88.72 412.5 -90.57"/><text x="445" y="-102.8" font-family="Times,serif" font-size="14" text-anchor="middle">methodlist #1</text></g><g id="node10" class="node"><title>0x408708</title><polygon fill="#000" stroke="transparent" points="521 -52.5 521 -73.5 592 -73.5 592 -52.5 521 -52.5"/><polygon fill="none" stroke="#000" points="521 -52.5 521 -73.5 592 -73.5 592 -52.5 521 -52.5"/><text x="527.5" y="-59.3" fill="#fff" font-family="Times,serif" font-size="14" text-anchor="start">methodlist</text><polygon fill="none" stroke="#000" points="521 -29.5 521 -50.5 574 -50.5 574 -29.5 521 -29.5"/><text x="524" y="-36.3" font-family="Times,serif" font-size="14" text-anchor="start">category</text><polygon fill="#daa520" stroke="transparent" points="576 -29.5 576 -50.5 592 -50.5 592 -29.5 576 -29.5"/><polygon fill="none" stroke="#000" points="576 -29.5 576 -50.5 592 -50.5 592 -29.5 576 -29.5"/><text x="579" y="-36.3" fill="#fff" font-family="Times,serif" font-size="14" text-anchor="start">Y</text><polygon fill="#7fff00" stroke="transparent" points="521 -6.5 521 -27.5 592 -27.5 592 -6.5 521 -6.5"/><polygon fill="none" stroke="#000" points="521 -6.5 521 -27.5 592 -27.5 592 -6.5 521 -6.5"/><text x="547" y="-13.3" font-family="Times,serif" font-size="14" text-anchor="start">foo</text><polygon fill="none" stroke="#000" points="517.5 -4 517.5 -77 594.5 -77 594.5 -4 517.5 -4"/></g><g id="edge13" class="edge"><title>0xa99150-&gt;0x408708</title><path fill="none" stroke="#000" d="M366.08,-147.24C397.12,-144.21 448.65,-136.02 487,-114 498.53,-107.38 509.33,-98.24 518.81,-88.69"/><polygon fill="#000" stroke="#000" points="522.88 -78.57 528.69 -84.08 523.18 -89.88 517.38 -84.38 522.88 -78.57"/><polyline fill="none" stroke="#000" points="520.28 -87.13 518.9 -88.58"/><text x="544" y="-102.8" font-family="Times,serif" font-size="14" text-anchor="middle">methodlist #2</text></g><g id="edge14" class="edge"><title>0x408268:Q.foo-&gt;0x408708:Y.foo</title><path fill="none" stroke="#000" stroke-width="2" d="M699.99,-214.93C699.71,-114.23 693.8,-16.5 593,-16.5"/><polygon fill="#000" stroke="#000" stroke-width="2" points="696.49 -215 700 -225 703.49 -215 696.49 -215"/><text x="731" y="-146.3" fill="#006400" font-family="Times,serif" font-size="14" text-anchor="middle">[super foo]</text></g></g></svg>